<?xml version="1.0" encoding="UTF-8" standalone="no"?>
<!-- Created with Inkscape (http://www.inkscape.org/) -->

<svg
   xmlns:dc="http://purl.org/dc/elements/1.1/"
   xmlns:cc="http://creativecommons.org/ns#"
   xmlns:rdf="http://www.w3.org/1999/02/22-rdf-syntax-ns#"
   xmlns:svg="http://www.w3.org/2000/svg"
   xmlns="http://www.w3.org/2000/svg"
   xmlns:sodipodi="http://sodipodi.sourceforge.net/DTD/sodipodi-0.dtd"
   xmlns:inkscape="http://www.inkscape.org/namespaces/inkscape"
   id="svg4136"
   version="1.1"
   inkscape:version="0.91 r13725"
   xml:space="preserve"
   width="527.14398"
   height="338.75287"
   viewBox="0 0 527.14398 338.75286"
   sodipodi:docname="finalROC.svg"><metadata
     id="metadata4142"><rdf:RDF><cc:Work
         rdf:about=""><dc:format>image/svg+xml</dc:format><dc:type
           rdf:resource="http://purl.org/dc/dcmitype/StillImage" /><dc:title></dc:title></cc:Work></rdf:RDF></metadata><defs
     id="defs4140"><clipPath
       clipPathUnits="userSpaceOnUse"
       id="clipPath4160"><path
         d="m 131.52,522.24 263.88,0 0,198.48 -263.88,0 0,-198.48 z"
         id="path4162"
         inkscape:connector-curvature="0"
         style="clip-rule:evenodd" /></clipPath><clipPath
       clipPathUnits="userSpaceOnUse"
       id="clipPath4170"><path
         d="m 131.52,522.24 263.88,0 0,198.48 -263.88,0 0,-198.48 z"
         id="path4172"
         inkscape:connector-curvature="0"
         style="clip-rule:evenodd" /></clipPath><clipPath
       clipPathUnits="userSpaceOnUse"
       id="clipPath4180"><path
         d="m 131.52,522.24 263.88,0 0,198.48 -263.88,0 0,-198.48 z"
         id="path4182"
         inkscape:connector-curvature="0"
         style="clip-rule:evenodd" /></clipPath><clipPath
       clipPathUnits="userSpaceOnUse"
       id="clipPath4190"><path
         d="m 72,466.32 451.2,0 0,303.6 -451.2,0 0,-303.6 z"
         id="path4192"
         inkscape:connector-curvature="0"
         style="clip-rule:evenodd" /></clipPath><clipPath
       clipPathUnits="userSpaceOnUse"
       id="clipPath4202"><path
         d="m 72,466.32 451.2,0 0,303.6 -451.2,0 0,-303.6 z"
         id="path4204"
         inkscape:connector-curvature="0"
         style="clip-rule:evenodd" /></clipPath><clipPath
       clipPathUnits="userSpaceOnUse"
       id="clipPath4214"><path
         d="m 72,466.32 451.2,0 0,303.6 -451.2,0 0,-303.6 z"
         id="path4216"
         inkscape:connector-curvature="0"
         style="clip-rule:evenodd" /></clipPath><clipPath
       clipPathUnits="userSpaceOnUse"
       id="clipPath4226"><path
         d="m 72,466.32 451.2,0 0,303.6 -451.2,0 0,-303.6 z"
         id="path4228"
         inkscape:connector-curvature="0"
         style="clip-rule:evenodd" /></clipPath><clipPath
       clipPathUnits="userSpaceOnUse"
       id="clipPath4238"><path
         d="m 72,466.32 451.2,0 0,303.6 -451.2,0 0,-303.6 z"
         id="path4240"
         inkscape:connector-curvature="0"
         style="clip-rule:evenodd" /></clipPath><clipPath
       clipPathUnits="userSpaceOnUse"
       id="clipPath4250"><path
         d="m 72,466.32 451.2,0 0,303.6 -451.2,0 0,-303.6 z"
         id="path4252"
         inkscape:connector-curvature="0"
         style="clip-rule:evenodd" /></clipPath><clipPath
       clipPathUnits="userSpaceOnUse"
       id="clipPath4262"><path
         d="m 72,466.32 451.2,0 0,303.6 -451.2,0 0,-303.6 z"
         id="path4264"
         inkscape:connector-curvature="0"
         style="clip-rule:evenodd" /></clipPath><clipPath
       clipPathUnits="userSpaceOnUse"
       id="clipPath4274"><path
         d="m 72,466.32 451.2,0 0,303.6 -451.2,0 0,-303.6 z"
         id="path4276"
         inkscape:connector-curvature="0"
         style="clip-rule:evenodd" /></clipPath><clipPath
       clipPathUnits="userSpaceOnUse"
       id="clipPath4286"><path
         d="m 72,466.32 451.2,0 0,303.6 -451.2,0 0,-303.6 z"
         id="path4288"
         inkscape:connector-curvature="0"
         style="clip-rule:evenodd" /></clipPath><clipPath
       clipPathUnits="userSpaceOnUse"
       id="clipPath4298"><path
         d="m 72,466.32 451.2,0 0,303.6 -451.2,0 0,-303.6 z"
         id="path4300"
         inkscape:connector-curvature="0"
         style="clip-rule:evenodd" /></clipPath><clipPath
       clipPathUnits="userSpaceOnUse"
       id="clipPath4310"><path
         d="m 72,466.32 451.2,0 0,303.6 -451.2,0 0,-303.6 z"
         id="path4312"
         inkscape:connector-curvature="0"
         style="clip-rule:evenodd" /></clipPath><clipPath
       clipPathUnits="userSpaceOnUse"
       id="clipPath4322"><path
         d="m 72,466.32 451.2,0 0,303.6 -451.2,0 0,-303.6 z"
         id="path4324"
         inkscape:connector-curvature="0"
         style="clip-rule:evenodd" /></clipPath><clipPath
       clipPathUnits="userSpaceOnUse"
       id="clipPath4334"><path
         d="m 72,466.32 451.2,0 0,303.6 -451.2,0 0,-303.6 z"
         id="path4336"
         inkscape:connector-curvature="0"
         style="clip-rule:evenodd" /></clipPath><clipPath
       clipPathUnits="userSpaceOnUse"
       id="clipPath4346"><path
         d="m 72,466.32 451.2,0 0,303.6 -451.2,0 0,-303.6 z"
         id="path4348"
         inkscape:connector-curvature="0"
         style="clip-rule:evenodd" /></clipPath><clipPath
       clipPathUnits="userSpaceOnUse"
       id="clipPath4358"><path
         d="m 72,466.32 451.2,0 0,303.6 -451.2,0 0,-303.6 z"
         id="path4360"
         inkscape:connector-curvature="0"
         style="clip-rule:evenodd" /></clipPath><clipPath
       clipPathUnits="userSpaceOnUse"
       id="clipPath4372"><path
         d="m 72,466.32 451.2,0 0,303.6 -451.2,0 0,-303.6 z"
         id="path4374"
         inkscape:connector-curvature="0"
         style="clip-rule:evenodd" /></clipPath><clipPath
       clipPathUnits="userSpaceOnUse"
       id="clipPath4384"><path
         d="m 72,466.32 451.2,0 0,303.6 -451.2,0 0,-303.6 z"
         id="path4386"
         inkscape:connector-curvature="0"
         style="clip-rule:evenodd" /></clipPath><clipPath
       clipPathUnits="userSpaceOnUse"
       id="clipPath4398"><path
         d="m 72,466.32 451.2,0 0,303.6 -451.2,0 0,-303.6 z"
         id="path4400"
         inkscape:connector-curvature="0"
         style="clip-rule:evenodd" /></clipPath><clipPath
       clipPathUnits="userSpaceOnUse"
       id="clipPath4412"><path
         d="m 72,466.32 451.2,0 0,303.6 -451.2,0 0,-303.6 z"
         id="path4414"
         inkscape:connector-curvature="0"
         style="clip-rule:evenodd" /></clipPath><clipPath
       clipPathUnits="userSpaceOnUse"
       id="clipPath4424"><path
         d="m 72,466.32 451.2,0 0,303.6 -451.2,0 0,-303.6 z"
         id="path4426"
         inkscape:connector-curvature="0"
         style="clip-rule:evenodd" /></clipPath><clipPath
       clipPathUnits="userSpaceOnUse"
       id="clipPath4436"><path
         d="m -2.039e-6,456.36 595.320002039,0 0,313.56 -595.320002039,0 0,-313.56 z"
         id="path4438"
         inkscape:connector-curvature="0"
         style="clip-rule:evenodd" /></clipPath></defs><sodipodi:namedview
     pagecolor="#ffffff"
     bordercolor="#666666"
     borderopacity="1"
     objecttolerance="10"
     gridtolerance="10"
     guidetolerance="10"
     inkscape:pageopacity="0"
     inkscape:pageshadow="2"
     inkscape:window-width="1920"
     inkscape:window-height="1019"
     id="namedview4138"
     showgrid="false"
     inkscape:zoom="1.1476039"
     inkscape:cx="226.32033"
     inkscape:cy="300.38059"
     inkscape:window-x="-8"
     inkscape:window-y="-8"
     inkscape:window-maximized="1"
     inkscape:current-layer="g4144"
     fit-margin-top="0"
     fit-margin-left="0"
     fit-margin-right="0"
     fit-margin-bottom="0" /><g
     id="g4144"
     inkscape:groupmode="layer"
     inkscape:label="finalROC"
     transform="matrix(1.25,0,0,-1.25,-113.68501,943.80449)"><path
       d="m 131.63,562.44 263.05,0 m -263.05,39.6 263.05,0 m -263.05,39.48 263.05,0 m -263.05,39.6 263.05,0 m -263.05,39.5 263.05,0"
       style="fill:none;stroke:#d9d9d9;stroke-width:0.75;stroke-linecap:butt;stroke-linejoin:round;stroke-miterlimit:10;stroke-dasharray:none;stroke-opacity:1"
       id="path4148"
       inkscape:connector-curvature="0" /><path
       d="m 184.2,720.62 0,-197.69 m 52.68,197.69 0,-197.69 m 52.56,197.69 0,-197.69 m 52.68,197.69 0,-197.69 m 52.56,197.69 0,-197.69"
       style="fill:none;stroke:#d9d9d9;stroke-width:0.75;stroke-linecap:butt;stroke-linejoin:round;stroke-miterlimit:10;stroke-dasharray:none;stroke-opacity:1"
       id="path4150"
       inkscape:connector-curvature="0" /><path
       d="m 131.63,522.93 0,197.69"
       style="fill:none;stroke:#bfbfbf;stroke-width:0.75;stroke-linecap:butt;stroke-linejoin:round;stroke-miterlimit:10;stroke-dasharray:none;stroke-opacity:1"
       id="path4152"
       inkscape:connector-curvature="0" /><path
       d="m 131.63,522.93 263.05,0"
       style="fill:none;stroke:#bfbfbf;stroke-width:0.75;stroke-linecap:butt;stroke-linejoin:round;stroke-miterlimit:10;stroke-dasharray:none;stroke-opacity:1"
       id="path4154"
       inkscape:connector-curvature="0" /><g
       id="g4156"><g
         id="g4158"
         clip-path="url(#clipPath4160)"><path
           d="m 131.63,522.93 c 7.31,53.15 18.04,132.57 21.93,159.45 0.16,1.13 0.92,1.54 1.38,1.81 11.02,6.37 53.88,30.36 64.76,36.43 0.22,0.13 0.51,0 0.51,0 0.18,0 0.38,0 0.58,0 0.21,0 0.44,0 0.66,0 0.22,0 0.47,0 0.66,0 0,0 0.21,0 0.43,0 25.21,0 125.64,0 150.8,0 0.07,0 0.13,0 0.14,0 3.56,0 14.13,0 21.2,0"
           style="fill:none;stroke:#ffc000;stroke-width:1.5;stroke-linecap:round;stroke-linejoin:round;stroke-miterlimit:10;stroke-dasharray:none;stroke-opacity:1"
           id="path4164"
           inkscape:connector-curvature="0" /></g></g><g
       id="g4166"><g
         id="g4168"
         clip-path="url(#clipPath4170)"><path
           d="m 131.63,522.93 c 19.47,45.96 48.58,114.87 58.42,137.87 0.13,0.31 0.52,0 0.66,0.13 10.29,9.97 50.93,49.75 61.12,59.69 0,0 0,0 0,0 0.01,0 0.11,0 0.22,0 0.23,0 0.94,0 1.16,0 0.07,0 0.13,0 0.15,0 0,0 0.11,0 0.22,0 20.44,0 101.97,0 122.45,0 0.22,0 0.4,0 0.44,0 3.11,0 12.14,0 18.21,0"
           style="fill:none;stroke:#ed8731;stroke-width:1.5;stroke-linecap:round;stroke-linejoin:round;stroke-miterlimit:10;stroke-dasharray:none;stroke-opacity:1"
           id="path4174"
           inkscape:connector-curvature="0" /></g></g><g
       id="g4176"><g
         id="g4178"
         clip-path="url(#clipPath4180)"><path
           d="m 131.63,522.93 c 8.79,48.93 21.2,120.53 26.37,146.79 1.13,5.73 2.94,8.98 4.66,10.72 7.89,7.97 35.56,30.9 42.69,37.08 0.03,0.03 0.07,0 0.07,0 0,0 0,0 0,0 0,0 0,0 0,0 0.03,0 0.12,0 0.15,0 0,0 0,0 0,0 27.18,0.52 131.58,2.59 163.1,3.1 13,0.22 22.43,0 26.01,0"
           style="fill:none;stroke:#70ad47;stroke-width:1.5;stroke-linecap:round;stroke-linejoin:round;stroke-miterlimit:10;stroke-dasharray:none;stroke-opacity:1"
           id="path4184"
           inkscape:connector-curvature="0" /></g></g><g
       id="g4186"><g
         id="g4188"
         clip-path="url(#clipPath4190)"><text
           transform="matrix(1,0,0,-1,118.75,520.37)"
           style="font-variant:normal;font-weight:normal;font-size:9px;font-family:Calibri;-inkscape-font-specification:Calibri;writing-mode:lr-tb;fill:#595959;fill-opacity:1;fill-rule:nonzero;stroke:none"
           id="text4194"><tspan
             x="0"
             y="0"
             id="tspan4196">0</tspan></text>
</g></g><g
       id="g4198"><g
         id="g4200"
         clip-path="url(#clipPath4202)"><text
           transform="matrix(1,0,0,-1,111.94,559.9)"
           style="font-variant:normal;font-weight:normal;font-size:9px;font-family:Calibri;-inkscape-font-specification:Calibri;writing-mode:lr-tb;fill:#595959;fill-opacity:1;fill-rule:nonzero;stroke:none"
           id="text4206"><tspan
             x="0 4.5630002 6.8130002"
             y="0"
             sodipodi:role="line"
             id="tspan4208">0,2</tspan></text>
</g></g><g
       id="g4210"><g
         id="g4212"
         clip-path="url(#clipPath4214)"><text
           transform="matrix(1,0,0,-1,111.94,599.45)"
           style="font-variant:normal;font-weight:normal;font-size:9px;font-family:Calibri;-inkscape-font-specification:Calibri;writing-mode:lr-tb;fill:#595959;fill-opacity:1;fill-rule:nonzero;stroke:none"
           id="text4218"><tspan
             x="0 4.5630002 6.8130002"
             y="0"
             sodipodi:role="line"
             id="tspan4220">0,4</tspan></text>
</g></g><g
       id="g4222"><g
         id="g4224"
         clip-path="url(#clipPath4226)"><text
           transform="matrix(1,0,0,-1,111.94,639)"
           style="font-variant:normal;font-weight:normal;font-size:9px;font-family:Calibri;-inkscape-font-specification:Calibri;writing-mode:lr-tb;fill:#595959;fill-opacity:1;fill-rule:nonzero;stroke:none"
           id="text4230"><tspan
             x="0 4.5630002 6.8130002"
             y="0"
             sodipodi:role="line"
             id="tspan4232">0,6</tspan></text>
</g></g><g
       id="g4234"><g
         id="g4236"
         clip-path="url(#clipPath4238)"><text
           transform="matrix(1,0,0,-1,111.94,678.53)"
           style="font-variant:normal;font-weight:normal;font-size:9px;font-family:Calibri;-inkscape-font-specification:Calibri;writing-mode:lr-tb;fill:#595959;fill-opacity:1;fill-rule:nonzero;stroke:none"
           id="text4242"><tspan
             x="0 4.5630002 6.8130002"
             y="0"
             sodipodi:role="line"
             id="tspan4244">0,8</tspan></text>
</g></g><g
       id="g4246"><g
         id="g4248"
         clip-path="url(#clipPath4250)"><text
           transform="matrix(1,0,0,-1,118.75,718.08)"
           style="font-variant:normal;font-weight:normal;font-size:9px;font-family:Calibri;-inkscape-font-specification:Calibri;writing-mode:lr-tb;fill:#595959;fill-opacity:1;fill-rule:nonzero;stroke:none"
           id="text4254"><tspan
             x="0"
             y="0"
             id="tspan4256">1</tspan></text>
</g></g><g
       id="g4258"><g
         id="g4260"
         clip-path="url(#clipPath4262)"><text
           transform="matrix(1,0,0,-1,129.38,508.66)"
           style="font-variant:normal;font-weight:normal;font-size:9px;font-family:Calibri;-inkscape-font-specification:Calibri;writing-mode:lr-tb;fill:#595959;fill-opacity:1;fill-rule:nonzero;stroke:none"
           id="text4266"><tspan
             x="0"
             y="0"
             id="tspan4268">0</tspan></text>
</g></g><g
       id="g4270"><g
         id="g4272"
         clip-path="url(#clipPath4274)"><text
           transform="matrix(1,0,0,-1,178.58,508.66)"
           style="font-variant:normal;font-weight:normal;font-size:9px;font-family:Calibri;-inkscape-font-specification:Calibri;writing-mode:lr-tb;fill:#595959;fill-opacity:1;fill-rule:nonzero;stroke:none"
           id="text4278"><tspan
             x="0 4.5630002 6.8130002"
             y="0"
             sodipodi:role="line"
             id="tspan4280">0,2</tspan></text>
</g></g><g
       id="g4282"><g
         id="g4284"
         clip-path="url(#clipPath4286)"><text
           transform="matrix(1,0,0,-1,231.22,508.66)"
           style="font-variant:normal;font-weight:normal;font-size:9px;font-family:Calibri;-inkscape-font-specification:Calibri;writing-mode:lr-tb;fill:#595959;fill-opacity:1;fill-rule:nonzero;stroke:none"
           id="text4290"><tspan
             x="0 4.5630002 6.8130002"
             y="0"
             sodipodi:role="line"
             id="tspan4292">0,4</tspan></text>
</g></g><g
       id="g4294"><g
         id="g4296"
         clip-path="url(#clipPath4298)"><text
           transform="matrix(1,0,0,-1,283.82,508.66)"
           style="font-variant:normal;font-weight:normal;font-size:9px;font-family:Calibri;-inkscape-font-specification:Calibri;writing-mode:lr-tb;fill:#595959;fill-opacity:1;fill-rule:nonzero;stroke:none"
           id="text4302"><tspan
             x="0 4.5630002 6.8130002"
             y="0"
             sodipodi:role="line"
             id="tspan4304">0,6</tspan></text>
</g></g><g
       id="g4306"><g
         id="g4308"
         clip-path="url(#clipPath4310)"><text
           transform="matrix(1,0,0,-1,336.46,508.66)"
           style="font-variant:normal;font-weight:normal;font-size:9px;font-family:Calibri;-inkscape-font-specification:Calibri;writing-mode:lr-tb;fill:#595959;fill-opacity:1;fill-rule:nonzero;stroke:none"
           id="text4314"><tspan
             x="0 4.5630002 6.8130002"
             y="0"
             sodipodi:role="line"
             id="tspan4316">0,8</tspan></text>
</g></g><g
       id="g4318"><g
         id="g4320"
         clip-path="url(#clipPath4322)"><text
           transform="matrix(1,0,0,-1,392.47,508.66)"
           style="font-variant:normal;font-weight:normal;font-size:9px;font-family:Calibri;-inkscape-font-specification:Calibri;writing-mode:lr-tb;fill:#595959;fill-opacity:1;fill-rule:nonzero;stroke:none"
           id="text4326"><tspan
             x="0"
             y="0"
             id="tspan4328">1</tspan></text>
</g></g><g
       id="g4330"><g
         id="g4332"
         clip-path="url(#clipPath4334)"><text
           transform="matrix(-4.4e-8,1,1,4.4e-8,103.61,605.78)"
           style="font-variant:normal;font-weight:bold;font-size:20.04000092px;font-family:Calibri;-inkscape-font-specification:Calibri-Bold;writing-mode:lr-tb;fill:#595959;fill-opacity:1;fill-rule:nonzero;stroke:none"
           id="text4338"><tspan
             x="0 9.9197998 20.581079"
             y="0"
             sodipodi:role="line"
             id="tspan4340">TPR</tspan></text>
</g></g><g
       id="g4342"><g
         id="g4344"
         clip-path="url(#clipPath4346)"><text
           transform="matrix(1,0,0,-1,247.56,484.1)"
           style="font-variant:normal;font-weight:bold;font-size:20.04000092px;font-family:Calibri;-inkscape-font-specification:Calibri-Bold;writing-mode:lr-tb;fill:#595959;fill-opacity:1;fill-rule:nonzero;stroke:none"
           id="text4350"><tspan
             x="0 9.1983604 19.899719"
             y="0"
             sodipodi:role="line"
             id="tspan4352">FPR</tspan></text>
</g></g><g
       id="g4354"><g
         id="g4356"
         clip-path="url(#clipPath4358)"><text
           transform="matrix(1,0,0,-1,276.55,739.61)"
           style="font-variant:normal;font-weight:bold;font-size:24px;font-family:Calibri;-inkscape-font-specification:Calibri-Bold;writing-mode:lr-tb;fill:#595959;fill-opacity:1;fill-rule:nonzero;stroke:none"
           id="text4362"><tspan
             x="0 13.32 29.544001"
             y="0"
             sodipodi:role="line"
             id="tspan4364">ROC</tspan></text>
</g></g><path
       d="m 412.61,618.92942 19.2,0"
       style="fill:none;stroke:#ffc000;stroke-width:1.5;stroke-linecap:round;stroke-linejoin:round;stroke-miterlimit:10;stroke-dasharray:none;stroke-opacity:1"
       id="path4366"
       inkscape:connector-curvature="0" /><g
       id="g4368"
       transform="translate(0,-28.929842)"><g
         id="g4370"
         clip-path="url(#clipPath4372)"><text
           transform="matrix(1,0,0,-1,433.92,643.25)"
           style="font-variant:normal;font-weight:normal;font-size:14.03999996px;font-family:Calibri;-inkscape-font-specification:Calibri;writing-mode:lr-tb;fill:#595959;fill-opacity:1;fill-rule:nonzero;stroke:none"
           id="text4376"><tspan
             x="0 7.3007998 16.31448 25.314119 29.610359 36.869041 40.09824 47.39904 52.88868 57.227039 65.271957 71.716316"
             y="0"
             sodipodi:role="line"
             id="tspan4378">KNN-Plus-ASB</tspan></text>
</g></g><g
       id="g4380"
       transform="translate(0,-28.929842)"><g
         id="g4382"
         clip-path="url(#clipPath4384)"><text
           transform="matrix(1,0,0,-1,433.92,626.16)"
           style="font-variant:normal;font-weight:normal;font-size:14.06400013px;font-family:Calibri;-inkscape-font-specification:Calibri;writing-mode:lr-tb;fill:#595959;fill-opacity:1;fill-rule:nonzero;stroke:none"
           id="text4388"><tspan
             x="0 7.074192 14.148384 21.222576 28.409281 34.414608 41.4888 48.562992"
             y="0"
             sodipodi:role="line"
             id="tspan4390">1280x720</tspan></text>
</g></g><path
       d="m 412.61,633.7457 19.2,0"
       style="fill:#ffc000;fill-opacity:1;stroke:#ed8731;stroke-width:1.5;stroke-linecap:round;stroke-linejoin:round;stroke-miterlimit:10;stroke-dasharray:none;stroke-opacity:1"
       id="path4392"
       inkscape:connector-curvature="0" /><g
       id="g4394"
       transform="translate(0,26.315699)"><g
         id="g4396"
         clip-path="url(#clipPath4398)"><text
           transform="matrix(1,0,0,-1,433.92,603.41)"
           style="font-variant:normal;font-weight:normal;font-size:14.03999996px;font-family:Calibri;-inkscape-font-specification:Calibri;writing-mode:lr-tb;fill:#595959;fill-opacity:1;fill-rule:nonzero;stroke:none"
           id="text4402"><tspan
             x="0 8.1291599 14.51736"
             y="0"
             sodipodi:role="line"
             id="tspan4404">ASB</tspan></text>
</g></g><path
       d="m 412.61,586.26445 19.2,0"
       style="fill:none;stroke:#70ad47;stroke-width:1.5;stroke-linecap:round;stroke-linejoin:round;stroke-miterlimit:10;stroke-dasharray:none;stroke-opacity:1"
       id="path4406"
       inkscape:connector-curvature="0" /><g
       id="g4408"
       transform="translate(0,18.238314)"><g
         id="g4410"
         clip-path="url(#clipPath4412)"><text
           transform="matrix(1,0,0,-1,433.92,563.54)"
           style="font-variant:normal;font-weight:normal;font-size:14.03999996px;font-family:Calibri;-inkscape-font-specification:Calibri;writing-mode:lr-tb;fill:#595959;fill-opacity:1;fill-rule:nonzero;stroke:none"
           id="text4416"><tspan
             x="0 7.3007998 16.31448 25.314119 29.610359 36.869041 40.09824 47.39904 52.88868 57.227039 65.271957 71.716316"
             y="0"
             sodipodi:role="line"
             id="tspan4418">KNN-Plus-ASB</tspan></text>
</g></g><g
       id="g4420"
       transform="translate(0,18.238314)"><g
         id="g4422"
         clip-path="url(#clipPath4424)"><text
           transform="matrix(1,0,0,-1,433.92,546.46)"
           style="font-variant:normal;font-weight:normal;font-size:14.03999996px;font-family:Calibri;-inkscape-font-specification:Calibri;writing-mode:lr-tb;fill:#595959;fill-opacity:1;fill-rule:nonzero;stroke:none"
           id="text4428"><tspan
             x="0 7.1182799 14.16636 21.284639 27.36396 34.482239 41.530319"
             y="0"
             sodipodi:role="line"
             id="tspan4430">854x450</tspan></text>
</g></g></g></svg>