<?xml version="1.0" encoding="UTF-8" standalone="no"?>
<!-- Created with Inkscape (http://www.inkscape.org/) -->

<svg
   xmlns:dc="http://purl.org/dc/elements/1.1/"
   xmlns:cc="http://creativecommons.org/ns#"
   xmlns:rdf="http://www.w3.org/1999/02/22-rdf-syntax-ns#"
   xmlns:svg="http://www.w3.org/2000/svg"
   xmlns="http://www.w3.org/2000/svg"
   xmlns:sodipodi="http://sodipodi.sourceforge.net/DTD/sodipodi-0.dtd"
   xmlns:inkscape="http://www.inkscape.org/namespaces/inkscape"
   version="1.1"
   id="svg108"
   xml:space="preserve"
   width="304.89185"
   height="111.39746"
   viewBox="0 0 304.89184 111.39746"
   sodipodi:docname="histogramm.svg"
   inkscape:version="0.92.2 (5c3e80d, 2017-08-06)"><metadata
     id="metadata114"><rdf:RDF><cc:Work
         rdf:about=""><dc:format>image/svg+xml</dc:format><dc:type
           rdf:resource="http://purl.org/dc/dcmitype/StillImage" /><dc:title></dc:title></cc:Work></rdf:RDF></metadata><defs
     id="defs112" /><sodipodi:namedview
     pagecolor="#ffffff"
     bordercolor="#666666"
     borderopacity="1"
     objecttolerance="10"
     gridtolerance="10"
     guidetolerance="10"
     inkscape:pageopacity="0"
     inkscape:pageshadow="2"
     inkscape:window-width="1920"
     inkscape:window-height="1138"
     id="namedview110"
     showgrid="false"
     inkscape:zoom="2.0900868"
     inkscape:cx="66.059586"
     inkscape:cy="-50.925655"
     inkscape:window-x="1912"
     inkscape:window-y="-8"
     inkscape:window-maximized="1"
     inkscape:current-layer="g116"
     fit-margin-top="0"
     fit-margin-left="0"
     fit-margin-right="0"
     fit-margin-bottom="0" /><g
     id="g116"
     inkscape:groupmode="layer"
     inkscape:label="histogramm"
     transform="matrix(1.3333333,0,0,-1.3333333,-0.33831605,108.62972)"><path
       inkscape:connector-curvature="0"
       id="path120"
       style="fill:none;stroke:#000000;stroke-width:0.049;stroke-linecap:butt;stroke-linejoin:miter;stroke-miterlimit:10;stroke-dasharray:0.195, 0.391;stroke-dashoffset:0;stroke-opacity:1"
       d="m 14.879,3.643 h 92.305 m -92.305,0 v 70.082" /><path
       inkscape:connector-curvature="0"
       id="path122"
       style="fill:none;stroke:#000000;stroke-width:0.19499999;stroke-linecap:butt;stroke-linejoin:miter;stroke-miterlimit:10;stroke-dasharray:none;stroke-opacity:1"
       d="m 14.879,3.643 h 1.242 m 91.063,0 h -1.239" /><path
       inkscape:connector-curvature="0"
       id="path128"
       style="fill:none;stroke:#000000;stroke-width:0.19499999;stroke-linecap:butt;stroke-linejoin:miter;stroke-miterlimit:10;stroke-dasharray:none;stroke-opacity:1"
       d="m 14.879,13.663 h 1.242 m 91.063,0 h -1.239" /><text
       id="text132"
       style="font-variant:normal;font-weight:normal;font-size:2.73693419px;font-family:Arial;-inkscape-font-specification:ArialMT;writing-mode:lr-tb;fill:#000000;fill-opacity:1;fill-rule:nonzero;stroke:none;stroke-width:0.99308205"
       transform="scale(1.0069662,-0.99308202)"
       x="10.093131"
       y="-12.857141"><tspan
         id="tspan130"
         sodipodi:role="line"
         y="-12.857141"
         x="10.093131 11.614867"
         style="stroke-width:0.99308205">20</tspan></text>
<path
       inkscape:connector-curvature="0"
       id="path134"
       style="fill:none;stroke:#000000;stroke-width:0.19499999;stroke-linecap:butt;stroke-linejoin:miter;stroke-miterlimit:10;stroke-dasharray:none;stroke-opacity:1"
       d="m 14.879,23.659 h 1.242 m 91.063,0 h -1.239" /><text
       id="text138"
       style="font-variant:normal;font-weight:normal;font-size:2.73693419px;font-family:Arial;-inkscape-font-specification:ArialMT;writing-mode:lr-tb;fill:#000000;fill-opacity:1;fill-rule:nonzero;stroke:none;stroke-width:0.99308205"
       transform="scale(1.0069662,-0.99308202)"
       x="10.09214"
       y="-22.924828"><tspan
         id="tspan136"
         sodipodi:role="line"
         y="-22.924828"
         x="10.09214 11.613875"
         style="stroke-width:0.99308205">40</tspan></text>
<path
       inkscape:connector-curvature="0"
       id="path140"
       style="fill:none;stroke:#000000;stroke-width:0.19499999;stroke-linecap:butt;stroke-linejoin:miter;stroke-miterlimit:10;stroke-dasharray:none;stroke-opacity:1"
       d="m 14.879,33.678 h 1.242 m 91.063,0 h -1.239" /><path
       inkscape:connector-curvature="0"
       id="path146"
       style="fill:none;stroke:#000000;stroke-width:0.19499999;stroke-linecap:butt;stroke-linejoin:miter;stroke-miterlimit:10;stroke-dasharray:none;stroke-opacity:1"
       d="m 14.879,43.694 h 1.242 m 91.063,0 h -1.239" /><text
       id="text150"
       style="font-variant:normal;font-weight:normal;font-size:2.73693419px;font-family:Arial;-inkscape-font-specification:ArialMT;writing-mode:lr-tb;fill:#000000;fill-opacity:1;fill-rule:nonzero;stroke:none;stroke-width:0.99308205"
       transform="scale(1.0069662,-0.99308202)"
       x="10.09214"
       y="-43.099388"><tspan
         id="tspan148"
         sodipodi:role="line"
         y="-43.099388"
         x="10.09214 11.613875"
         style="stroke-width:0.99308205">80</tspan></text>
<path
       inkscape:connector-curvature="0"
       id="path152"
       style="fill:none;stroke:#000000;stroke-width:0.19499999;stroke-linecap:butt;stroke-linejoin:miter;stroke-miterlimit:10;stroke-dasharray:none;stroke-opacity:1"
       d="m 14.879,53.71 h 1.242 m 91.063,0 h -1.239" /><text
       id="text156"
       style="font-variant:normal;font-weight:normal;font-size:2.73693419px;font-family:Arial;-inkscape-font-specification:ArialMT;writing-mode:lr-tb;fill:#000000;fill-opacity:1;fill-rule:nonzero;stroke:none;stroke-width:0.99308205"
       transform="scale(1.0069662,-0.99308202)"
       x="8.5707397"
       y="-53.186119"><tspan
         id="tspan154"
         sodipodi:role="line"
         y="-53.186119"
         x="8.5707397 10.092475 11.61421"
         style="stroke-width:0.99308205">100</tspan></text>
<path
       inkscape:connector-curvature="0"
       id="path158"
       style="fill:none;stroke:#000000;stroke-width:0.19499999;stroke-linecap:butt;stroke-linejoin:miter;stroke-miterlimit:10;stroke-dasharray:none;stroke-opacity:1"
       d="m 14.879,63.71 h 1.242 m 91.063,0 h -1.239" /><path
       inkscape:connector-curvature="0"
       id="path164"
       style="fill:none;stroke:#000000;stroke-width:0.19499999;stroke-linecap:butt;stroke-linejoin:miter;stroke-miterlimit:10;stroke-dasharray:none;stroke-opacity:1"
       d="m 14.879,73.725 h 1.242 m 91.063,0 h -1.239" /><path
       inkscape:connector-curvature="0"
       id="path170"
       style="fill:none;stroke:#000000;stroke-width:0.19499999;stroke-linecap:butt;stroke-linejoin:miter;stroke-miterlimit:10;stroke-dasharray:none;stroke-opacity:1"
       d="m 14.879,3.643 v 1.223 m 0,68.859 v -1.222" /><path
       inkscape:connector-curvature="0"
       id="path176"
       style="fill:none;stroke:#000000;stroke-width:0.19499999;stroke-linecap:butt;stroke-linejoin:miter;stroke-miterlimit:10;stroke-dasharray:none;stroke-opacity:1"
       d="m 29.41,3.643 v 1.223 m 0,68.859 v -1.222" /><text
       id="text180"
       style="font-variant:normal;font-weight:normal;font-size:2.73693419px;font-family:Arial;-inkscape-font-specification:ArialMT;writing-mode:lr-tb;fill:#000000;fill-opacity:1;fill-rule:nonzero;stroke:none;stroke-width:0.99308205"
       transform="scale(1.0069662,-0.99308202)"
       x="27.683594"
       y="-0.033410132"><tspan
         id="tspan178"
         sodipodi:role="line"
         y="-0.033410132"
         x="27.683594 29.20533"
         style="stroke-width:0.99308205">20</tspan></text>
<path
       inkscape:connector-curvature="0"
       id="path182"
       style="fill:none;stroke:#000000;stroke-width:0.19499999;stroke-linecap:butt;stroke-linejoin:miter;stroke-miterlimit:10;stroke-dasharray:none;stroke-opacity:1"
       d="m 43.957,3.643 v 1.223 m 0,68.859 v -1.222" /><text
       id="text186"
       style="font-variant:normal;font-weight:normal;font-size:2.73693419px;font-family:Arial;-inkscape-font-specification:ArialMT;writing-mode:lr-tb;fill:#000000;fill-opacity:1;fill-rule:nonzero;stroke:none;stroke-width:0.99308205"
       transform="scale(1.0069662,-0.99308202)"
       x="42.129955"
       y="-0.033410132"><tspan
         id="tspan184"
         sodipodi:role="line"
         y="-0.033410132"
         x="42.129955 43.651691"
         style="stroke-width:0.99308205">40</tspan></text>
<path
       inkscape:connector-curvature="0"
       id="path188"
       style="fill:none;stroke:#000000;stroke-width:0.19499999;stroke-linecap:butt;stroke-linejoin:miter;stroke-miterlimit:10;stroke-dasharray:none;stroke-opacity:1"
       d="m 58.484,3.643 v 1.223 m 0,68.859 v -1.222" /><path
       inkscape:connector-curvature="0"
       id="path194"
       style="fill:none;stroke:#000000;stroke-width:0.19499999;stroke-linecap:butt;stroke-linejoin:miter;stroke-miterlimit:10;stroke-dasharray:none;stroke-opacity:1"
       d="m 73.031,3.643 v 1.223 m 0,68.859 v -1.222" /><text
       id="text198"
       style="font-variant:normal;font-weight:normal;font-size:2.73693419px;font-family:Arial;-inkscape-font-specification:ArialMT;writing-mode:lr-tb;fill:#000000;fill-opacity:1;fill-rule:nonzero;stroke:none;stroke-width:0.99308205"
       transform="scale(1.0069662,-0.99308202)"
       x="71.003822"
       y="-0.033410132"><tspan
         id="tspan196"
         sodipodi:role="line"
         y="-0.033410132"
         x="71.003822 72.525558"
         style="stroke-width:0.99308205">80</tspan></text>
<path
       inkscape:connector-curvature="0"
       id="path200"
       style="fill:none;stroke:#000000;stroke-width:0.19499999;stroke-linecap:butt;stroke-linejoin:miter;stroke-miterlimit:10;stroke-dasharray:none;stroke-opacity:1"
       d="m 87.559,3.643 v 1.223 m 0,68.859 v -1.222" /><text
       id="text204"
       style="font-variant:normal;font-weight:normal;font-size:2.73693419px;font-family:Arial;-inkscape-font-specification:ArialMT;writing-mode:lr-tb;fill:#000000;fill-opacity:1;fill-rule:nonzero;stroke:none;stroke-width:0.99308205"
       transform="scale(1.0069662,-0.99308202)"
       x="84.669632"
       y="-0.033410132"><tspan
         id="tspan202"
         sodipodi:role="line"
         y="-0.033410132"
         x="84.669632 86.191368 87.713104"
         style="stroke-width:0.99308205">100</tspan></text>
<path
       inkscape:connector-curvature="0"
       id="path206"
       style="fill:none;stroke:#000000;stroke-width:0.19499999;stroke-linecap:butt;stroke-linejoin:miter;stroke-miterlimit:10;stroke-dasharray:none;stroke-opacity:1"
       d="m 102.105,3.643 v 1.223 m 0,68.859 v -1.222" /><path
       inkscape:connector-curvature="0"
       id="path212"
       style="fill:none;stroke:#000000;stroke-width:0.19499999;stroke-linecap:butt;stroke-linejoin:miter;stroke-miterlimit:10;stroke-dasharray:none;stroke-opacity:1"
       d="m 14.879,73.725 h 92.305 V 3.643 H 14.879 Z" /><text
       y="4.5270081"
       x="16.950218"
       id="text216"
       style="font-variant:normal;font-weight:normal;font-size:5.87206841px;font-family:Arial;-inkscape-font-specification:ArialMT;writing-mode:lr-tb;fill:#000000;fill-opacity:1;fill-rule:nonzero;stroke:none;stroke-width:2.13064909"
       transform="matrix(0,0.993082,1.0069662,0,0,0)"><tspan
         style="stroke-width:2.13064909"
         id="tspan214"
         sodipodi:role="line"
         y="4.5270081"
         x="16.950218 21.18985 24.454723 29.346157 32.611019 35.875893 37.831295 39.457855 42.722721 44.349285 45.975849 49.886642 51.19025 54.126286 57.391148">Number of Pixel</tspan></text>
<path
       inkscape:connector-curvature="0"
       id="path218"
       style="fill:none;stroke:#000000;stroke-width:0.19499999;stroke-linecap:butt;stroke-linejoin:miter;stroke-miterlimit:10;stroke-dasharray:none;stroke-opacity:1"
       d="m 14.879,73.725 h 92.305 V 3.643 H 14.879 Z" /><text
       y="-78.553459"
       x="0.7107591"
       id="text224"
       style="font-variant:normal;font-weight:normal;font-size:4.78881407px;font-family:Arial;-inkscape-font-specification:ArialMT;writing-mode:lr-tb;fill:#000000;fill-opacity:1;fill-rule:nonzero;stroke:none;stroke-width:1.73759568"
       transform="scale(1.0069662,-0.993082)"><tspan
         style="stroke-width:1.73759568"
         id="tspan222"
         sodipodi:role="line"
         y="-78.553459"
         x="0.7107591">Normalized Horizontal Projection of Generic Postures</tspan></text>
<path
       inkscape:connector-curvature="0"
       id="path226"
       style="fill:none;stroke:#000000;stroke-width:0.098;stroke-linecap:butt;stroke-linejoin:miter;stroke-miterlimit:10;stroke-dasharray:none;stroke-opacity:1"
       d="m 14.879,3.643 0.73,6.504 0.727,2.504 0.73,-2.504 0.727,5.008 0.73,2.508 0.727,1.996 0.711,1.012 h 0.727 l 1.457,-1.012 0.73,-0.988 0.727,-1.008 1.457,-1.012 0.726,-0.484 0.731,-0.504 0.726,-1.012 0.731,-0.484 0.726,-0.504 h 5.809 l 0.726,-0.504 h 3.625 l 0.727,0.504 h 0.727 l 0.73,-0.504 h 3.641 l 0.73,0.504 h 7.262 l 0.73,0.504 h 2.184 l 0.73,0.484 h 1.434 l 0.73,0.504 h 0.727 l 1.457,1.012 h 0.727 l 0.73,0.988 0.727,0.508 h 0.73 l 0.727,0.504 h 2.894 l 0.731,0.988 1.457,2.02 0.726,1.496 0.727,0.988 0.73,0.504 h 1.457 l 0.727,-0.504 0.73,-0.484 0.707,-1.008 0.731,-0.992 2.91,-2.02 h 0.73 l 0.727,-0.484 1.457,-1.008 h 0.73 l 0.727,-0.508 h 0.731 l 0.707,-0.504 h 0.73 l 0.727,-0.484 0.73,0.484 0.727,-0.484 0.726,-0.504 0.731,-1.012 0.726,-0.988 0.731,-1.012 0.726,-0.988 0.731,-0.504 h 0.726 l 0.711,-0.508 h 0.727 l 1.457,-1.008 0.726,-0.484 h 0.731 l 0.726,0.484 h 2.188 l 0.726,0.504 h 1.457 l 0.708,0.504 0.73,-0.504 H 105 l 0.727,1.516 0.73,0.988 0.727,-0.988"
       sodipodi:nodetypes="cccccccccccccccccccccccccccccccccccccccccccccccccccccccccccccccccccccccccccccccccccc" /><text
       id="text230"
       style="font-variant:normal;font-weight:normal;font-size:4.08336639px;font-family:Arial;-inkscape-font-specification:ArialMT;writing-mode:lr-tb;fill:#000000;fill-opacity:1;fill-rule:nonzero;stroke:none;stroke-width:1.48162782"
       transform="scale(1.0069662,-0.993082)"
       x="70.199112"
       y="-63.259163"><tspan
         id="tspan228"
         sodipodi:role="line"
         y="-63.259163"
         x="70.199112 73.147301 75.417656 78.365845 79.272346 80.632111 83.351631 85.621986 87.892326"
         style="stroke-width:1.48162782">Cawl-Bend</tspan></text>
<path
       inkscape:connector-curvature="0"
       id="path232"
       style="fill:none;stroke:#000000;stroke-width:0.098;stroke-linecap:butt;stroke-linejoin:miter;stroke-miterlimit:10;stroke-dasharray:0.782, 0.391;stroke-dashoffset:0;stroke-opacity:1"
       d="m 14.879,3.643 h 10.906 l 0.731,11.512 0.726,-11.512 0.731,13.008 h 1.437 l 0.727,11.027 0.73,-10.523 0.727,12.523 0.726,0.504 0.731,0.485 h 0.726 l 0.731,4.523 0.726,-5.512 0.731,5.512 h 0.726 l 0.731,-2.019 0.707,-0.989 0.73,-1.011 0.727,-0.504 0.727,-0.485 0.73,-1.007 0.727,-1.497 0.73,-1.011 0.727,-0.989 1.457,-1.007 h 0.73 l 1.457,-1.012 h 0.707 l 1.457,1.012 0.727,1.007 0.73,0.989 1.457,1.011 h 0.727 l 0.73,0.504 h 2.914 l 0.707,0.485 0.727,-0.485 h 4.371 l 0.727,0.485 h 0.73 l 1.457,1.011 0.707,0.504 0.731,0.485 1.457,2.019 0.726,0.485 0.731,1.011 0.726,0.504 h 0.727 l 0.73,0.504 0.727,-0.504 h 1.457 l 0.73,-0.504 h 1.438 l 0.726,-0.504 h 1.457 l 0.727,-0.507 0.73,-0.989 0.727,-1.011 0.73,-1.996 0.727,-2.508 0.73,-0.989 0.727,-1.515 0.731,-0.988 0.707,-1.516 0.73,-2 0.727,-3.996 0.73,-3.012 0.727,-2.504 0.726,3.012 0.731,-0.508 0.726,-5.492 2.188,-1.516 0.726,-0.988 0.711,-0.504 0.727,-0.508 0.73,3.516 0.727,-3.516 h 11.633"
       sodipodi:nodetypes="ccccccccccccccccccccccccccccccccccccccccccccccccccccccccccccccccccccccccccccccc" /><text
       id="text236"
       style="font-variant:normal;font-weight:normal;font-size:4.08336639px;font-family:Arial;-inkscape-font-specification:ArialMT;writing-mode:lr-tb;fill:#000000;fill-opacity:1;fill-rule:nonzero;stroke:none;stroke-width:1.48162782"
       transform="scale(1.0069662,-0.993082)"
       x="66.550949"
       y="-59.255543"><tspan
         id="tspan234"
         sodipodi:role="line"
         y="-59.255543"
         x="66.550949 68.821304 71.09166 73.133331 74.039848 76.310188 78.580544 79.711639 82.659828 84.930183 87.878372"
         style="stroke-width:1.48162782">Laying Down</tspan></text>
<path
       inkscape:connector-curvature="0"
       id="path238"
       style="fill:none;stroke:#000000;stroke-width:0.098;stroke-linecap:butt;stroke-linejoin:miter;stroke-miterlimit:10;stroke-dasharray:0.391, 0.586;stroke-dashoffset:0;stroke-opacity:1"
       d="m 14.879,3.643 h 23.98 l 0.727,51.059 0.727,-46.047 0.73,50.551 0.727,1.515 0.73,0.989 0.727,1.008 1.457,5.011 0.73,1.996 0.727,0.508 h 1.437 l 0.727,-0.508 h 2.914 l 0.73,0.508 h 0.727 l 0.73,-0.508 0.727,-1.007 0.73,-0.989 0.727,-1.515 0.73,-2.504 0.707,-0.992 0.727,-1.008 0.73,-0.504 0.727,-0.992 0.73,-1.008 1.454,-2.988 0.73,-2.02 0.727,-3.496 0.73,-4 1.457,-6.016 0.707,-3.011 0.731,-1.493 0.726,-0.507 0.731,0.507 0.726,-0.992 0.727,-1.008 0.73,-1.496 2.914,-2.019 0.727,-0.485 0.73,-0.504 0.707,0.504 0.731,1.496 0.726,1.008 0.731,0.992 0.726,0.504 0.727,-0.504 0.73,-0.992 1.457,-2.019 0.727,-0.989 0.73,-1.011 0.727,-0.485 0.731,-1.007 0.707,-1.012 1.457,-2.988 0.726,-2.504 0.731,-4.02 0.726,-4 0.731,-2.504 0.726,14.524 0.731,-21.028 h 16.711"
       sodipodi:nodetypes="cccccccccccccccccccccccccccccccccccccccccccccccccccccccccccccc" /><text
       id="text242"
       style="font-variant:normal;font-weight:normal;font-size:4.08336639px;font-family:Arial;-inkscape-font-specification:ArialMT;writing-mode:lr-tb;fill:#000000;fill-opacity:1;fill-rule:nonzero;stroke:none;stroke-width:1.48162782"
       transform="scale(1.0069662,-0.993082)"
       x="78.805336"
       y="-55.152237"><tspan
         id="tspan240"
         sodipodi:role="line"
         y="-55.152237"
         x="78.805336 81.524864 82.431366 83.562462 84.693542 85.60006 87.870399"
         style="stroke-width:1.48162782">Sitting</tspan></text>
<path
       inkscape:connector-curvature="0"
       id="path244"
       style="fill:none;stroke:#000000;stroke-width:0.098;stroke-linecap:butt;stroke-linejoin:miter;stroke-miterlimit:10;stroke-dasharray:0.195, 0.293;stroke-dashoffset:0;stroke-opacity:1"
       d="m 14.879,3.643 h 4.371 l 0.711,1.012 0.727,2 0.73,0.504 0.727,2 0.73,0.484 2.184,1.516 0.726,1.492 0.731,2.504 0.726,1.496 0.731,3.516 0.726,1.492 0.711,1.516 0.727,0.484 0.73,0.504 h 0.727 l 0.726,-0.504 0.731,-0.484 0.726,-1.008 0.731,-0.992 1.457,-2.02 0.726,-0.988 0.731,-1.012 0.707,-0.988 0.73,-1.516 0.727,-0.988 1.457,-1.012 h 2.184 l 0.73,0.508 h 0.727 l 0.73,0.504 h 0.727 l 0.73,0.504 0.707,-0.504 h 1.457 l 0.727,0.504 0.73,0.484 0.727,1.516 1.457,2.988 0.73,1.516 0.727,2 0.73,1.492 0.727,2 0.73,1.012 0.707,1.492 0.727,1.011 0.73,0.989 2.184,1.515 0.727,-0.504 h 0.73 l 1.457,-1.011 0.727,-0.485 0.73,-1.007 0.707,-0.993 0.731,-1.515 0.726,-0.989 0.731,-1.515 0.726,-0.988 0.731,-1.012 0.726,-0.988 1.457,-1.008 h 0.727 l 1.457,-1.012 h 0.73 l 0.707,-0.484 0.731,-0.504 h 0.726 l 0.731,-0.508 h 0.726 l 0.727,-0.504 h 1.457 l 0.73,-0.504 h 0.727 l 0.73,-0.484 h 0.727 l 0.731,-0.504 h 2.164 l 0.73,-0.508 h 4.367 l 0.731,-0.504 h 4.347 l 0.731,-0.484 0.726,-0.504 h 0.731 l 2.183,-1.516 0.731,-0.484 0.726,-0.504 0.708,-1.012 0.73,-1.492 0.727,-1.012 0.73,-0.988 0.727,-1.012 0.73,-0.504 h 0.727"
       sodipodi:nodetypes="ccccccccccccccccccccccccccccccccccccccccccccccccccccccccccccccccccccccccccccccccccccccccccccccc" /><path
       inkscape:connector-curvature="0"
       id="path246"
       style="fill:none;stroke:#000000;stroke-width:0.049;stroke-linecap:butt;stroke-linejoin:miter;stroke-miterlimit:10;stroke-dasharray:0.195, 0.391;stroke-dashoffset:0;stroke-opacity:1"
       d="m 131.52,3.643 h 92.304 m -92.304,0 v 70.082" /><path
       inkscape:connector-curvature="0"
       id="path248"
       style="fill:none;stroke:#000000;stroke-width:0.19499999;stroke-linecap:butt;stroke-linejoin:miter;stroke-miterlimit:10;stroke-dasharray:none;stroke-opacity:1"
       d="m 131.52,3.643 h 1.242 m 91.062,0 h -1.242" /><text
       y="1.2579706"
       x="125.59013"
       id="text252"
       style="font-variant:normal;font-weight:normal;font-size:7.63058519px;font-family:Arial;-inkscape-font-specification:ArialMT;writing-mode:lr-tb;fill:#000000;fill-opacity:1;fill-rule:nonzero;stroke:none;stroke-width:2.76871753"
       transform="scale(1.0069662,-0.993082)"><tspan
         style="stroke-width:2.76871753"
         id="tspan250"
         y="1.2579706"
         x="125.59013">0</tspan></text>
<path
       inkscape:connector-curvature="0"
       id="path254"
       style="fill:none;stroke:#000000;stroke-width:0.19499999;stroke-linecap:butt;stroke-linejoin:miter;stroke-miterlimit:10;stroke-dasharray:none;stroke-opacity:1"
       d="m 131.52,15.331 h 1.242 m 91.062,0 h -1.242" /><text
       id="text258"
       style="font-variant:normal;font-weight:normal;font-size:2.73693419px;font-family:Arial;-inkscape-font-specification:ArialMT;writing-mode:lr-tb;fill:#000000;fill-opacity:1;fill-rule:nonzero;stroke:none;stroke-width:0.99308205"
       transform="scale(1.0069662,-0.99308202)"
       x="125.92622"
       y="-14.538781"><tspan
         id="tspan256"
         sodipodi:role="line"
         y="-14.538781"
         x="125.92622 127.44796"
         style="stroke-width:0.99308205">20</tspan></text>
<path
       inkscape:connector-curvature="0"
       id="path260"
       style="fill:none;stroke:#000000;stroke-width:0.19499999;stroke-linecap:butt;stroke-linejoin:miter;stroke-miterlimit:10;stroke-dasharray:none;stroke-opacity:1"
       d="m 131.52,26.999 h 1.242 m 91.062,0 h -1.242" /><text
       id="text264"
       style="font-variant:normal;font-weight:normal;font-size:2.73693419px;font-family:Arial;-inkscape-font-specification:ArialMT;writing-mode:lr-tb;fill:#000000;fill-opacity:1;fill-rule:nonzero;stroke:none;stroke-width:0.99308205"
       transform="scale(1.0069662,-0.99308202)"
       x="125.92622"
       y="-26.287073"><tspan
         id="tspan262"
         sodipodi:role="line"
         y="-26.287073"
         x="125.92622 127.44796"
         style="stroke-width:0.99308205">40</tspan></text>
<path
       inkscape:connector-curvature="0"
       id="path266"
       style="fill:none;stroke:#000000;stroke-width:0.19499999;stroke-linecap:butt;stroke-linejoin:miter;stroke-miterlimit:10;stroke-dasharray:none;stroke-opacity:1"
       d="m 131.52,38.686 h 1.242 m 91.062,0 h -1.242" /><text
       y="-38.100384"
       x="122.0081"
       id="text270"
       style="font-variant:normal;font-weight:normal;font-size:6.41833782px;font-family:Arial;-inkscape-font-specification:ArialMT;writing-mode:lr-tb;fill:#000000;fill-opacity:1;fill-rule:nonzero;stroke:none;stroke-width:2.32885981"
       transform="scale(1.0069662,-0.99308201)"><tspan
         style="stroke-width:2.32885981"
         id="tspan268"
         sodipodi:role="line"
         y="-38.100384"
         x="122.0081 125.5767">60</tspan></text>
<path
       inkscape:connector-curvature="0"
       id="path272"
       style="fill:none;stroke:#000000;stroke-width:0.19499999;stroke-linecap:butt;stroke-linejoin:miter;stroke-miterlimit:10;stroke-dasharray:none;stroke-opacity:1"
       d="m 131.52,50.374 h 1.242 m 91.062,0 h -1.242" /><text
       id="text276"
       style="font-variant:normal;font-weight:normal;font-size:2.73693419px;font-family:Arial;-inkscape-font-specification:ArialMT;writing-mode:lr-tb;fill:#000000;fill-opacity:1;fill-rule:nonzero;stroke:none;stroke-width:0.99308205"
       transform="scale(1.0069662,-0.99308202)"
       x="125.92622"
       y="-49.823875"><tspan
         id="tspan274"
         sodipodi:role="line"
         y="-49.823875"
         x="125.92622 127.44796"
         style="stroke-width:0.99308205">80</tspan></text>
<path
       inkscape:connector-curvature="0"
       id="path278"
       style="fill:none;stroke:#000000;stroke-width:0.19499999;stroke-linecap:butt;stroke-linejoin:miter;stroke-miterlimit:10;stroke-dasharray:none;stroke-opacity:1"
       d="m 131.52,62.042 h 1.242 m 91.062,0 h -1.242" /><text
       id="text282"
       style="font-variant:normal;font-weight:normal;font-size:2.73693419px;font-family:Arial;-inkscape-font-specification:ArialMT;writing-mode:lr-tb;fill:#000000;fill-opacity:1;fill-rule:nonzero;stroke:none;stroke-width:0.99308205"
       transform="scale(1.0069662,-0.99308202)"
       x="124.40382"
       y="-61.573143"><tspan
         id="tspan280"
         sodipodi:role="line"
         y="-61.573143"
         x="124.40382 125.92556 127.4473"
         style="stroke-width:0.99308205">100</tspan></text>
<path
       inkscape:connector-curvature="0"
       id="path284"
       style="fill:none;stroke:#000000;stroke-width:0.19499999;stroke-linecap:butt;stroke-linejoin:miter;stroke-miterlimit:10;stroke-dasharray:none;stroke-opacity:1"
       d="m 131.52,73.725 h 1.242 m 91.062,0 h -1.242" /><text
       y="-71.124741"
       x="119.40634"
       id="text288"
       style="font-variant:normal;font-weight:normal;font-size:5.82122517px;font-family:Arial;-inkscape-font-specification:ArialMT;writing-mode:lr-tb;fill:#000000;fill-opacity:1;fill-rule:nonzero;stroke:none;stroke-width:2.11220074"
       transform="scale(1.0069662,-0.99308201)"><tspan
         style="stroke-width:2.11220074"
         id="tspan286"
         sodipodi:role="line"
         y="-71.124741"
         x="119.40634 122.64294 125.87955">120</tspan></text>
<path
       inkscape:connector-curvature="0"
       id="path290"
       style="fill:none;stroke:#000000;stroke-width:0.19499999;stroke-linecap:butt;stroke-linejoin:miter;stroke-miterlimit:10;stroke-dasharray:none;stroke-opacity:1"
       d="m 131.52,3.643 v 1.223 m 0,68.859 v -1.222" /><path
       inkscape:connector-curvature="0"
       id="path296"
       style="fill:none;stroke:#000000;stroke-width:0.19499999;stroke-linecap:butt;stroke-linejoin:miter;stroke-miterlimit:10;stroke-dasharray:none;stroke-opacity:1"
       d="m 146.047,3.643 v 1.223 m 0,68.859 v -1.222" /><text
       id="text300"
       style="font-variant:normal;font-weight:normal;font-size:2.73693419px;font-family:Arial;-inkscape-font-specification:ArialMT;writing-mode:lr-tb;fill:#000000;fill-opacity:1;fill-rule:nonzero;stroke:none;stroke-width:0.99308205"
       transform="scale(1.0069662,-0.99308202)"
       x="143.51669"
       y="-0.033410132"><tspan
         id="tspan298"
         sodipodi:role="line"
         y="-0.033410132"
         x="143.51669 145.03842"
         style="stroke-width:0.99308205">20</tspan></text>
<path
       inkscape:connector-curvature="0"
       id="path302"
       style="fill:none;stroke:#000000;stroke-width:0.19499999;stroke-linecap:butt;stroke-linejoin:miter;stroke-miterlimit:10;stroke-dasharray:none;stroke-opacity:1"
       d="m 160.594,3.643 v 1.223 m 0,68.859 v -1.222" /><text
       id="text306"
       style="font-variant:normal;font-weight:normal;font-size:2.73693419px;font-family:Arial;-inkscape-font-specification:ArialMT;writing-mode:lr-tb;fill:#000000;fill-opacity:1;fill-rule:nonzero;stroke:none;stroke-width:0.99308205"
       transform="scale(1.0069662,-0.99308202)"
       x="157.96304"
       y="-0.033410132"><tspan
         id="tspan304"
         sodipodi:role="line"
         y="-0.033410132"
         x="157.96304 159.48477"
         style="stroke-width:0.99308205">40</tspan></text>
<path
       inkscape:connector-curvature="0"
       id="path308"
       style="fill:none;stroke:#000000;stroke-width:0.19499999;stroke-linecap:butt;stroke-linejoin:miter;stroke-miterlimit:10;stroke-dasharray:none;stroke-opacity:1"
       d="m 175.125,3.643 v 1.223 m 0,68.859 v -1.222" /><path
       inkscape:connector-curvature="0"
       id="path314"
       style="fill:none;stroke:#000000;stroke-width:0.19499999;stroke-linecap:butt;stroke-linejoin:miter;stroke-miterlimit:10;stroke-dasharray:none;stroke-opacity:1"
       d="m 189.672,3.643 v 1.223 m 0,68.859 v -1.222" /><text
       id="text318"
       style="font-variant:normal;font-weight:normal;font-size:2.73693419px;font-family:Arial;-inkscape-font-specification:ArialMT;writing-mode:lr-tb;fill:#000000;fill-opacity:1;fill-rule:nonzero;stroke:none;stroke-width:0.99308205"
       transform="scale(1.0069662,-0.99308202)"
       x="186.83691"
       y="-0.033410132"><tspan
         id="tspan316"
         sodipodi:role="line"
         y="-0.033410132"
         x="186.83691 188.35864"
         style="stroke-width:0.99308205">80</tspan></text>
<path
       inkscape:connector-curvature="0"
       id="path320"
       style="fill:none;stroke:#000000;stroke-width:0.19499999;stroke-linecap:butt;stroke-linejoin:miter;stroke-miterlimit:10;stroke-dasharray:none;stroke-opacity:1"
       d="m 204.199,3.643 v 1.223 m 0,68.859 v -1.222" /><text
       id="text324"
       style="font-variant:normal;font-weight:normal;font-size:2.73693419px;font-family:Arial;-inkscape-font-specification:ArialMT;writing-mode:lr-tb;fill:#000000;fill-opacity:1;fill-rule:nonzero;stroke:none;stroke-width:0.99308205"
       transform="scale(1.0069662,-0.99308202)"
       x="200.50272"
       y="-0.033410132"><tspan
         id="tspan322"
         sodipodi:role="line"
         y="-0.033410132"
         x="200.50272 202.02444 203.54619"
         style="stroke-width:0.99308205">100</tspan></text>
<path
       inkscape:connector-curvature="0"
       id="path326"
       style="fill:none;stroke:#000000;stroke-width:0.19499999;stroke-linecap:butt;stroke-linejoin:miter;stroke-miterlimit:10;stroke-dasharray:none;stroke-opacity:1"
       d="m 218.746,3.643 v 1.223 m 0,68.859 v -1.222" /><text
       y="1.2890534"
       x="213.209"
       id="text330"
       style="font-variant:normal;font-weight:normal;font-size:5.99880934px;font-family:Arial;-inkscape-font-specification:ArialMT;writing-mode:lr-tb;fill:#000000;fill-opacity:1;fill-rule:nonzero;stroke:none;stroke-width:2.17663622"
       transform="scale(1.0069662,-0.993082)"><tspan
         style="stroke-width:2.17663622"
         id="tspan328"
         sodipodi:role="line"
         y="1.2890534"
         x="213.209 216.54434 219.87968">120</tspan></text>
<path
       inkscape:connector-curvature="0"
       id="path332"
       style="fill:none;stroke:#000000;stroke-width:0.19499999;stroke-linecap:butt;stroke-linejoin:miter;stroke-miterlimit:10;stroke-dasharray:none;stroke-opacity:1"
       d="m 131.52,73.725 h 92.305 V 3.643 H 131.52 Z" /><path
       inkscape:connector-curvature="0"
       id="path338"
       style="fill:none;stroke:#000000;stroke-width:0.19499999;stroke-linecap:butt;stroke-linejoin:miter;stroke-miterlimit:10;stroke-dasharray:none;stroke-opacity:1"
       d="m 131.52,73.725 h 92.305 V 3.643 H 131.52 Z" /><text
       id="text344"
       style="font-variant:normal;font-weight:normal;font-size:2.73693419px;font-family:Arial;-inkscape-font-specification:ArialMT;writing-mode:lr-tb;fill:#000000;fill-opacity:1;fill-rule:nonzero;stroke:none;stroke-width:0.99308205"
       transform="scale(1.0069662,-0.993082)"
       x="119.93391"
       y="-78.553665"><tspan
         id="tspan342"
         sodipodi:role="line"
         y="-78.553665"
         x="119.93391"
         style="font-size:4.78800011px;stroke-width:0.99308205">Normalized Vertical Projection of Generic Postures</tspan></text>
<path
       inkscape:connector-curvature="0"
       id="path346"
       style="fill:none;stroke:#000000;stroke-width:0.098;stroke-linecap:butt;stroke-linejoin:miter;stroke-miterlimit:10;stroke-dasharray:none;stroke-opacity:1"
       d="m 131.52,3.643 h 18.898 l 0.727,1.164 0.73,-1.164 0.727,1.746 0.73,0.586 h 0.727 l 0.711,0.582 h 1.457 l 0.726,0.602 0.731,1.164 2.183,1.746 0.727,1.168 0.73,1.746 0.727,2.348 0.73,1.746 0.727,4.098 0.711,4.66 0.726,4.093 0.731,4.079 0.726,3.515 0.731,5.262 1.457,12.832 0.726,4.094 0.727,1.746 0.73,2.933 0.727,1.746 0.73,1.165 0.727,0.582 h 0.711 l 0.727,0.586 h 0.73 l 0.727,1.164 0.73,1.183 0.727,1.746 0.726,0.582 h 0.731 l 0.726,-1.746 0.731,-2.929 0.726,-5.243 0.731,-5.843 0.707,-5.262 0.73,-6.426 0.727,-7.59 0.73,-8.176 0.727,-5.257 0.73,-4.098 0.727,-2.91 0.726,-2.332 0.731,-1.766 0.726,-1.164 0.731,-2.332 0.726,-1.746 0.731,-1.164 0.707,-0.602 h 0.727 l 0.73,6.426 0.727,-7.008 0.73,-0.586 h 5.098 l 0.73,-0.582 0.707,-0.582 0.727,-0.582 h 21.812"
       sodipodi:nodetypes="cccccccccccccccccccccccccccccccccccccccccccccccccccccccccccccccc" /><path
       inkscape:connector-curvature="0"
       id="path352"
       style="fill:none;stroke:#000000;stroke-width:0.098;stroke-linecap:butt;stroke-linejoin:miter;stroke-miterlimit:10;stroke-dasharray:0.782, 0.391;stroke-dashoffset:0;stroke-opacity:1"
       d="m 131.52,3.643 h 9.449 l 0.73,2.332 0.727,1.184 0.73,-0.602 h 1.457 l 0.727,0.602 0.707,2.328 0.73,3.496 0.727,-1.746 0.73,0.582 0.727,1.164 0.73,0.582 0.727,1.184 0.727,1.164 1.457,1.164 0.73,1.168 0.727,0.582 0.711,1.164 0.726,1.184 h 2.188 l 0.726,0.582 h 0.731 l 0.726,-0.582 0.727,1.164 2.187,5.242 0.727,0.601 0.711,10.504 0.726,0.582 0.731,1.746 0.726,1.184 1.457,1.168 h 1.457 l 0.727,0.582 h 2.914 l 0.711,-0.582 h 1.457 l 1.457,-1.168 0.727,-0.602 0.726,-0.582 h 0.731 l 0.726,0.582 0.731,0.602 0.726,1.168 0.731,0.582 h 5.804 l 0.731,-0.582 0.726,-1.168 0.731,-1.184 1.457,-3.492 0.707,-1.75 0.727,-1.765 0.73,-2.329 0.727,-1.75 0.73,1.75 0.727,-12.851 h 1.457 l 2.187,1.746 h 2.164 l 2.184,-1.746 h 0.73 l 0.727,0.582 0.73,1.164 0.727,0.602 h 0.73 l 0.727,-0.602 1.457,-1.164 0.707,-0.582 2.187,-1.75 0.727,-1.164 0.73,-4.676 1.454,-1.168 0.73,-1.164 0.727,-5.262 h 7.265"
       sodipodi:nodetypes="ccccccccccccccccccccccccccccccccccccccccccccccccccccccccccccccccccccccccccc" /><path
       inkscape:connector-curvature="0"
       id="path358"
       style="fill:none;stroke:#000000;stroke-width:0.098;stroke-linecap:butt;stroke-linejoin:miter;stroke-miterlimit:10;stroke-dasharray:0.391, 0.586;stroke-dashoffset:0;stroke-opacity:1"
       d="m 131.52,3.643 h 0.73 l 0.727,5.262 0.73,3.496 0.727,1.164 0.73,2.348 0.727,0.582 0.707,1.168 1.457,1.164 h 0.73 l 0.727,0.582 h 0.73 l 1.457,1.164 0.727,0.602 h 4.351 l 0.727,0.582 h 0.73 l 0.727,0.582 h 1.457 l 0.727,0.582 h 2.914 l 0.711,0.582 h 1.457 l 0.726,0.586 h 2.188 l 0.726,0.582 h 7.266 l 1.457,1.164 h 0.726 l 0.727,0.582 h 1.457 l 0.73,0.582 h 1.438 l 0.727,0.582 h 0.73 l 0.727,0.601 h 0.73 l 3.641,2.914 h 0.726 l 0.731,0.582 h 0.707 l 0.73,0.582 0.727,1.165 1.457,1.164 h 0.73 l 0.727,0.601 h 2.183 l 0.731,0.582 h 0.726 l 0.731,0.586 h 0.707 l 0.727,0.578 h 0.73 l 0.727,0.582 h 0.73 l 0.727,0.586 h 0.73 l 0.727,0.582 h 0.73 l 0.727,0.582 h 0.73 l 0.727,0.582 h 2.164 l 0.73,-1.164 0.727,-0.582 h 2.187 l 0.727,0.582 h 0.73 l 0.727,1.164 0.73,1.746 0.727,0.602 0.707,0.582 h 2.914 l 0.73,-0.582 0.727,-0.602 1.457,-1.164 h 0.727 l 0.73,-0.582 0.727,-1.164 0.73,-2.328 0.707,-4.098 0.731,-3.496 0.726,-2.929 0.731,-1.75 h 1.453 l 0.73,0.586"
       sodipodi:nodetypes="cccccccccccccccccccccccccccccccccccccccccccccccccccccccccccccccccccccccccccccccccccccc" /><path
       inkscape:connector-curvature="0"
       id="path364"
       style="fill:none;stroke:#000000;stroke-width:0.098;stroke-linecap:butt;stroke-linejoin:miter;stroke-miterlimit:10;stroke-dasharray:0.195, 0.293;stroke-dashoffset:0;stroke-opacity:1"
       d="m 131.52,3.643 h 13.093 l 0.727,0.582 h 0.707 l 1.457,2.332 0.73,0.602 0.727,1.746 0.73,0.582 0.727,1.75 0.727,1.164 0.73,1.766 1.457,5.824 0.727,2.348 0.711,2.332 0.726,2.328 0.731,2.347 0.726,1.75 0.731,1.164 0.726,2.329 0.731,1.183 1.453,2.332 h 0.73 l 0.727,0.582 h 2.894 l 1.457,-2.328 0.731,-1.769 2.183,-5.243 0.727,-1.164 0.73,-1.765 2.184,-3.496 0.711,-1.164 0.727,-0.582 0.73,-1.184 2.91,-2.328 h 1.457 l 0.731,0.582 h 3.621 l 1.457,1.164 h 0.73 l 1.453,1.164 0.731,1.184 0.726,1.164 1.457,4.66 0.731,2.347 0.707,2.332 0.727,1.747 0.73,1.765 0.727,0.586 0.73,1.164 0.727,0.582 0.73,-0.582 h 1.457 l 1.457,-1.164 0.727,-1.769 0.73,-1.164 0.707,-2.915 0.727,-3.511 0.73,-3.496 0.727,-3.512 0.73,-2.328 0.727,-1.168 2.187,-1.746 h 1.457 l 0.727,-1.184 0.707,-0.582 0.73,-1.746 0.727,-1.168 3.641,-2.91 h 0.73 l 0.727,-0.602 h 1.457 l 0.73,-0.582 h 0.707 l 0.731,-0.586 h 0.726 l 0.731,-0.582 h 1.453 l 0.73,-0.582"
       sodipodi:nodetypes="cccccccccccccccccccccccccccccccccccccccccccccccccccccccccccccccccccccccccccccc" /><text
       y="119.52605"
       x="16.950216"
       id="text216-2"
       style="font-variant:normal;font-weight:normal;font-size:5.87206841px;font-family:Arial;-inkscape-font-specification:ArialMT;writing-mode:lr-tb;fill:#000000;fill-opacity:1;fill-rule:nonzero;stroke:none;stroke-width:2.13064909"
       transform="matrix(0,0.99308199,1.0069662,0,0,0)"><tspan
         style="stroke-width:2.13064909"
         id="tspan214-0"
         sodipodi:role="line"
         y="119.52605"
         x="16.950216 21.189852 24.454725 29.346159 32.611023 35.875896 37.831299 39.457859 42.722725 44.349289 45.975853 49.88665 51.190254 54.126289 57.391151">Number of Pixel</tspan></text>
<text
       y="2.0119121"
       x="170.45641"
       id="text270-9"
       style="font-variant:normal;font-weight:normal;font-size:6.4183383px;font-family:Arial;-inkscape-font-specification:ArialMT;writing-mode:lr-tb;fill:#000000;fill-opacity:1;fill-rule:nonzero;stroke:none;stroke-width:2.32885981"
       transform="scale(1.0069662,-0.99308199)"><tspan
         style="stroke-width:2.32885981"
         id="tspan268-2"
         sodipodi:role="line"
         y="2.0119121"
         x="170.45641 174.02501">60</tspan></text>
<text
       y="-63.706776"
       x="3.6976848"
       id="text288-8"
       style="font-variant:normal;font-weight:normal;font-size:5.82122517px;font-family:Arial;-inkscape-font-specification:ArialMT;writing-mode:lr-tb;fill:#000000;fill-opacity:1;fill-rule:nonzero;stroke:none;stroke-width:2.11220074"
       transform="scale(1.0069662,-0.99308199)"><tspan
         style="stroke-width:2.11220074"
         id="tspan286-0"
         sodipodi:role="line"
         y="-63.706776"
         x="3.6976848 6.9342799 10.17089">120</tspan></text>
<text
       y="-32.240219"
       x="6.6199198"
       id="text270-8"
       style="font-variant:normal;font-weight:normal;font-size:6.4183383px;font-family:Arial;-inkscape-font-specification:ArialMT;writing-mode:lr-tb;fill:#000000;fill-opacity:1;fill-rule:nonzero;stroke:none;stroke-width:2.32885981"
       transform="scale(1.0069662,-0.99308199)"><tspan
         style="stroke-width:2.32885981"
         id="tspan268-7"
         sodipodi:role="line"
         y="-32.240219"
         x="6.6199198 10.188516">60</tspan></text>
<text
       y="1.9060813"
       x="54.371403"
       id="text270-81"
       style="font-variant:normal;font-weight:normal;font-size:6.4183383px;font-family:Arial;-inkscape-font-specification:ArialMT;writing-mode:lr-tb;fill:#000000;fill-opacity:1;fill-rule:nonzero;stroke:none;stroke-width:2.32885981"
       transform="scale(1.0069662,-0.99308199)"><tspan
         style="stroke-width:2.32885981"
         id="tspan268-3"
         sodipodi:role="line"
         y="1.9060813"
         x="54.371403 57.939999">60</tspan></text>
<text
       y="1.5144701"
       x="96.527992"
       id="text288-8-1"
       style="font-variant:normal;font-weight:normal;font-size:5.82122517px;font-family:Arial;-inkscape-font-specification:ArialMT;writing-mode:lr-tb;fill:#000000;fill-opacity:1;fill-rule:nonzero;stroke:none;stroke-width:2.11220074"
       transform="scale(1.0069662,-0.99308199)"><tspan
         style="stroke-width:2.11220074"
         id="tspan286-0-7"
         sodipodi:role="line"
         y="1.5144701"
         x="96.527992 99.764595 103.00121">120</tspan></text>
<text
       y="1.7923286"
       x="10.19656"
       id="text252-5"
       style="font-variant:normal;font-weight:normal;font-size:7.63058519px;font-family:Arial;-inkscape-font-specification:ArialMT;writing-mode:lr-tb;fill:#000000;fill-opacity:1;fill-rule:nonzero;stroke:none;stroke-width:2.76871753"
       transform="scale(1.0069662,-0.99308199)"><tspan
         style="stroke-width:2.76871753"
         id="tspan250-6"
         y="1.7923286"
         x="10.19656">0</tspan></text>
<text
       id="text230-7"
       style="font-variant:normal;font-weight:normal;font-size:4.08336639px;font-family:Arial;-inkscape-font-specification:ArialMT;writing-mode:lr-tb;fill:#000000;fill-opacity:1;fill-rule:nonzero;stroke:none;stroke-width:1.48162782"
       transform="scale(1.0069662,-0.993082)"
       x="74.009285"
       y="-67.31263"><tspan
         y="-67.31263"
         x="74.009285"
         id="tspan228-3"
         sodipodi:role="line"
         style="stroke-width:1.48162782">Standing</tspan></text>
<path
       style="fill:none;stroke:#000000;stroke-width:0.45000002;stroke-linecap:butt;stroke-linejoin:miter;stroke-miterlimit:4;stroke-dasharray:none;stroke-opacity:1"
       d="M 91.979267,67.896381 H 104.57091"
       id="path4327"
       inkscape:connector-curvature="0" /><path
       style="fill:none;stroke:#000000;stroke-width:0.45000002;stroke-linecap:butt;stroke-linejoin:miter;stroke-miterlimit:4;stroke-dasharray:1.35000009, 0.45000003;stroke-dashoffset:0.45000002;stroke-opacity:1"
       d="M 91.979267,64.272904 H 104.57091"
       id="path4327-0"
       inkscape:connector-curvature="0" /><path
       style="fill:none;stroke:#000000;stroke-width:0.45000002;stroke-linecap:butt;stroke-linejoin:miter;stroke-miterlimit:4;stroke-dasharray:0.90000006, 0.45000003;stroke-dashoffset:0;stroke-opacity:1"
       d="M 91.979267,59.870282 H 104.57091"
       id="path4327-2"
       inkscape:connector-curvature="0" /><path
       style="fill:none;stroke:#000000;stroke-width:0.44999999;stroke-linecap:butt;stroke-linejoin:miter;stroke-miterlimit:4;stroke-dasharray:0.45000003, 0.45000003;stroke-dashoffset:0;stroke-opacity:1"
       d="M 91.979267,55.820114 H 104.57091"
       id="path4327-9"
       inkscape:connector-curvature="0" /><text
       id="text230-2"
       style="font-variant:normal;font-weight:normal;font-size:4.08336639px;font-family:Arial;-inkscape-font-specification:ArialMT;writing-mode:lr-tb;fill:#000000;fill-opacity:1;fill-rule:nonzero;stroke:none;stroke-width:1.48162782"
       transform="scale(1.0069662,-0.99308199)"
       x="186.18283"
       y="-63.951611"><tspan
         id="tspan228-5"
         sodipodi:role="line"
         y="-63.951611"
         x="186.18283 189.13103 191.40138 194.34956 195.25607 196.61584 199.33536 201.60571 203.87605"
         style="stroke-width:1.48162782">Cawl-Bend</tspan></text>
<text
       id="text236-0"
       style="font-variant:normal;font-weight:normal;font-size:4.08336639px;font-family:Arial;-inkscape-font-specification:ArialMT;writing-mode:lr-tb;fill:#000000;fill-opacity:1;fill-rule:nonzero;stroke:none;stroke-width:1.48162782"
       transform="scale(1.0069662,-0.99308199)"
       x="182.53467"
       y="-59.947987"><tspan
         id="tspan234-4"
         sodipodi:role="line"
         y="-59.947987"
         x="182.53467 184.80502 187.07539 189.11705 190.02356 192.29391 194.56427 195.69536 198.64355 200.91391 203.86209"
         style="stroke-width:1.48162782">Laying Down</tspan></text>
<text
       id="text242-1"
       style="font-variant:normal;font-weight:normal;font-size:4.08336639px;font-family:Arial;-inkscape-font-specification:ArialMT;writing-mode:lr-tb;fill:#000000;fill-opacity:1;fill-rule:nonzero;stroke:none;stroke-width:1.48162782"
       transform="scale(1.0069662,-0.99308199)"
       x="194.78906"
       y="-55.844681"><tspan
         id="tspan240-4"
         sodipodi:role="line"
         y="-55.844681"
         x="194.78906 197.50859 198.41508 199.54619 200.67726 201.58379 203.85413"
         style="stroke-width:1.48162782">Sitting</tspan></text>
<text
       id="text230-7-6"
       style="font-variant:normal;font-weight:normal;font-size:4.08336639px;font-family:Arial;-inkscape-font-specification:ArialMT;writing-mode:lr-tb;fill:#000000;fill-opacity:1;fill-rule:nonzero;stroke:none;stroke-width:1.48162782"
       transform="scale(1.0069662,-0.99308199)"
       x="189.99301"
       y="-68.005074"><tspan
         y="-68.005074"
         x="189.99301"
         id="tspan228-3-6"
         sodipodi:role="line"
         style="stroke-width:1.48162782">Standing</tspan></text>
<path
       style="fill:none;stroke:#000000;stroke-width:0.45000002;stroke-linecap:butt;stroke-linejoin:miter;stroke-miterlimit:4;stroke-dasharray:none;stroke-opacity:1"
       d="M 208.77096,68.584035 H 221.3626"
       id="path4327-25"
       inkscape:connector-curvature="0" /><path
       style="fill:none;stroke:#000000;stroke-width:0.45000002;stroke-linecap:butt;stroke-linejoin:miter;stroke-miterlimit:4;stroke-dasharray:1.35000009, 0.45000003;stroke-dashoffset:0.45000002;stroke-opacity:1"
       d="M 208.77096,64.960558 H 221.3626"
       id="path4327-0-9"
       inkscape:connector-curvature="0" /><path
       style="fill:none;stroke:#000000;stroke-width:0.45000002;stroke-linecap:butt;stroke-linejoin:miter;stroke-miterlimit:4;stroke-dasharray:0.90000006, 0.45000003;stroke-dashoffset:0;stroke-opacity:1"
       d="M 208.77096,60.557936 H 221.3626"
       id="path4327-2-9"
       inkscape:connector-curvature="0" /><path
       style="fill:none;stroke:#000000;stroke-width:0.44999999;stroke-linecap:butt;stroke-linejoin:miter;stroke-miterlimit:4;stroke-dasharray:0.45000003, 0.45000003;stroke-dashoffset:0;stroke-opacity:1"
       d="M 208.77096,56.507768 H 221.3626"
       id="path4327-9-0"
       inkscape:connector-curvature="0" /></g></svg>