<?xml version="1.0" encoding="UTF-8" standalone="no"?>
<!-- Created with Inkscape (http://www.inkscape.org/) -->

<svg
   xmlns:dc="http://purl.org/dc/elements/1.1/"
   xmlns:cc="http://creativecommons.org/ns#"
   xmlns:rdf="http://www.w3.org/1999/02/22-rdf-syntax-ns#"
   xmlns:svg="http://www.w3.org/2000/svg"
   xmlns="http://www.w3.org/2000/svg"
   xmlns:sodipodi="http://sodipodi.sourceforge.net/DTD/sodipodi-0.dtd"
   xmlns:inkscape="http://www.inkscape.org/namespaces/inkscape"
   id="svg4390"
   version="1.1"
   inkscape:version="0.91 r13725"
   xml:space="preserve"
   width="617.82953"
   height="243.3045"
   viewBox="0 0 617.82953 243.3045"
   sodipodi:docname="knn_vs_vibe.svg"><metadata
     id="metadata4396"><rdf:RDF><cc:Work
         rdf:about=""><dc:format>image/svg+xml</dc:format><dc:type
           rdf:resource="http://purl.org/dc/dcmitype/StillImage" /><dc:title></dc:title></cc:Work></rdf:RDF></metadata><defs
     id="defs4394"><clipPath
       clipPathUnits="userSpaceOnUse"
       id="clipPath4410"><path
         d="m 99.052,346.4 374.99,0 0,112.53 -374.99,0 0,-112.53 z"
         id="path4412"
         inkscape:connector-curvature="0"
         style="clip-rule:evenodd" /></clipPath><clipPath
       clipPathUnits="userSpaceOnUse"
       id="clipPath4420"><path
         d="m 99.052,346.4 374.99,0 0,112.53 -374.99,0 0,-112.53 z"
         id="path4422"
         inkscape:connector-curvature="0"
         style="clip-rule:evenodd" /></clipPath><clipPath
       clipPathUnits="userSpaceOnUse"
       id="clipPath4430"><path
         d="m 50.76,303.84 493.68,0 0,193.92 -493.68,0 0,-193.92 z"
         id="path4432"
         inkscape:connector-curvature="0"
         style="clip-rule:evenodd" /></clipPath><clipPath
       clipPathUnits="userSpaceOnUse"
       id="clipPath4442"><path
         d="m 50.76,303.84 493.68,0 0,193.92 -493.68,0 0,-193.92 z"
         id="path4444"
         inkscape:connector-curvature="0"
         style="clip-rule:evenodd" /></clipPath><clipPath
       clipPathUnits="userSpaceOnUse"
       id="clipPath4454"><path
         d="m 50.76,303.84 493.68,0 0,193.92 -493.68,0 0,-193.92 z"
         id="path4456"
         inkscape:connector-curvature="0"
         style="clip-rule:evenodd" /></clipPath><clipPath
       clipPathUnits="userSpaceOnUse"
       id="clipPath4466"><path
         d="m 50.76,303.84 493.68,0 0,193.92 -493.68,0 0,-193.92 z"
         id="path4468"
         inkscape:connector-curvature="0"
         style="clip-rule:evenodd" /></clipPath><clipPath
       clipPathUnits="userSpaceOnUse"
       id="clipPath4478"><path
         d="m 50.76,303.84 493.68,0 0,193.92 -493.68,0 0,-193.92 z"
         id="path4480"
         inkscape:connector-curvature="0"
         style="clip-rule:evenodd" /></clipPath><clipPath
       clipPathUnits="userSpaceOnUse"
       id="clipPath4490"><path
         d="m 50.76,303.84 493.68,0 0,193.92 -493.68,0 0,-193.92 z"
         id="path4492"
         inkscape:connector-curvature="0"
         style="clip-rule:evenodd" /></clipPath><clipPath
       clipPathUnits="userSpaceOnUse"
       id="clipPath4502"><path
         d="m 50.76,303.84 493.68,0 0,193.92 -493.68,0 0,-193.92 z"
         id="path4504"
         inkscape:connector-curvature="0"
         style="clip-rule:evenodd" /></clipPath><clipPath
       clipPathUnits="userSpaceOnUse"
       id="clipPath4514"><path
         d="m 50.76,303.84 493.68,0 0,193.92 -493.68,0 0,-193.92 z"
         id="path4516"
         inkscape:connector-curvature="0"
         style="clip-rule:evenodd" /></clipPath><clipPath
       clipPathUnits="userSpaceOnUse"
       id="clipPath4526"><path
         d="m 50.76,303.84 493.68,0 0,193.92 -493.68,0 0,-193.92 z"
         id="path4528"
         inkscape:connector-curvature="0"
         style="clip-rule:evenodd" /></clipPath><clipPath
       clipPathUnits="userSpaceOnUse"
       id="clipPath4538"><path
         d="m 50.76,303.84 493.68,0 0,193.92 -493.68,0 0,-193.92 z"
         id="path4540"
         inkscape:connector-curvature="0"
         style="clip-rule:evenodd" /></clipPath><clipPath
       clipPathUnits="userSpaceOnUse"
       id="clipPath4550"><path
         d="m 50.76,303.84 493.68,0 0,193.92 -493.68,0 0,-193.92 z"
         id="path4552"
         inkscape:connector-curvature="0"
         style="clip-rule:evenodd" /></clipPath><clipPath
       clipPathUnits="userSpaceOnUse"
       id="clipPath4562"><path
         d="m 50.76,303.84 493.68,0 0,193.92 -493.68,0 0,-193.92 z"
         id="path4564"
         inkscape:connector-curvature="0"
         style="clip-rule:evenodd" /></clipPath><clipPath
       clipPathUnits="userSpaceOnUse"
       id="clipPath4574"><path
         d="m 50.76,303.84 493.68,0 0,193.92 -493.68,0 0,-193.92 z"
         id="path4576"
         inkscape:connector-curvature="0"
         style="clip-rule:evenodd" /></clipPath><clipPath
       clipPathUnits="userSpaceOnUse"
       id="clipPath4586"><path
         d="m 50.76,303.84 493.68,0 0,193.92 -493.68,0 0,-193.92 z"
         id="path4588"
         inkscape:connector-curvature="0"
         style="clip-rule:evenodd" /></clipPath><clipPath
       clipPathUnits="userSpaceOnUse"
       id="clipPath4598"><path
         d="m 50.76,303.84 493.68,0 0,193.92 -493.68,0 0,-193.92 z"
         id="path4600"
         inkscape:connector-curvature="0"
         style="clip-rule:evenodd" /></clipPath><clipPath
       clipPathUnits="userSpaceOnUse"
       id="clipPath4612"><path
         d="m 50.76,303.84 493.68,0 0,193.92 -493.68,0 0,-193.92 z"
         id="path4614"
         inkscape:connector-curvature="0"
         style="clip-rule:evenodd" /></clipPath><clipPath
       clipPathUnits="userSpaceOnUse"
       id="clipPath4626"><path
         d="m 50.76,303.84 493.68,0 0,193.92 -493.68,0 0,-193.92 z"
         id="path4628"
         inkscape:connector-curvature="0"
         style="clip-rule:evenodd" /></clipPath></defs><sodipodi:namedview
     pagecolor="#ffffff"
     bordercolor="#666666"
     borderopacity="1"
     objecttolerance="10"
     gridtolerance="10"
     guidetolerance="10"
     inkscape:pageopacity="0"
     inkscape:pageshadow="2"
     inkscape:window-width="1920"
     inkscape:window-height="1019"
     id="namedview4392"
     showgrid="false"
     inkscape:zoom="1.2687266"
     inkscape:cx="473.57729"
     inkscape:cy="176.4538"
     inkscape:window-x="-8"
     inkscape:window-y="-8"
     inkscape:window-maximized="1"
     inkscape:current-layer="g4398"
     fit-margin-top="0"
     fit-margin-left="0"
     fit-margin-right="0"
     fit-margin-bottom="0" /><g
     id="g4398"
     inkscape:groupmode="layer"
     inkscape:label="knn_vs_vibe"
     transform="matrix(1.25,0,0,-1.25,-63.16275,622.5835)"><path
       d="m 50.877,303.77 493.57,0 0,193.95 -493.57,0 0,-193.95 z"
       style="fill:#ffffff;fill-opacity:1;fill-rule:evenodd;stroke:none"
       id="path4400"
       inkscape:connector-curvature="0" /><path
       d="m 99.132,365.71 374.288,0 m -374.288,18.64 374.288,0 M 99.132,403 473.42,403 m -374.288,18.64 374.288,0 m -374.288,18.64 374.288,0 m -374.288,18.62 374.288,0"
       style="fill:none;stroke:#d9d9d9;stroke-width:0.6936;stroke-linecap:butt;stroke-linejoin:round;stroke-miterlimit:10;stroke-dasharray:none;stroke-opacity:1"
       id="path4402"
       inkscape:connector-curvature="0" /><path
       d="m 99.132,347.09 374.288,0"
       style="fill:none;stroke:#d9d9d9;stroke-width:0.6936;stroke-linecap:butt;stroke-linejoin:round;stroke-miterlimit:10;stroke-dasharray:none;stroke-opacity:1"
       id="path4404"
       inkscape:connector-curvature="0" /><g
       id="g4406"><g
         id="g4408"
         clip-path="url(#clipPath4410)"><path
           d="m 100.06,396.51 1.88,0 1.88,-3.39 1.78,-17.54 1.89,-11.09 1.88,-1.33 1.89,0.11 1.89,1.22 1.77,-0.56 1.89,-0.33 1.89,-0.89 1.88,-1.66 1.78,2.99 1.88,-2.44 1.89,1.22 1.89,-1.22 1.88,2.55 1.78,-3.55 1.89,2 1.88,0.22 1.89,0.11 1.77,-0.22 1.89,-1.22 1.89,0.11 1.88,1.22 1.89,0.11 1.78,-1.22 1.88,1 1.89,1.89 1.89,-4.11 1.77,2.11 1.89,-0.78 1.89,2.44 1.88,-2.44 1.89,1.11 1.77,-2.22 1.89,3.33 1.89,-1.11 1.88,-1.11 1.89,0.78 1.78,0.33 1.88,-1.11 1.89,-0.33 1.89,1.89 1.77,0 1.89,-0.56 1.88,-0.11 1.89,-2.44 1.89,3.77 1.77,-2.22 1.89,1.56 1.89,-0.22 1.88,1.77 1.78,-3.11 1.89,2.11 1.88,0.45 1.89,-0.45 1.89,-0.22 1.77,-1.22 1.89,0 1.88,0.89 1.89,-0.11 1.78,-1.22 1.88,1.33 1.89,1.33 1.89,-3.66 1.88,2.22 1.78,-1 1.89,1.66 1.88,-1.88 1.89,1.77 1.77,-2.44 1.89,3 1.89,-1.67 1.88,-0.89 1.89,0.67 1.78,0.22 1.88,-1.11 1.89,0.11 1.89,0.89 1.77,0.11 1.89,0.22 1.88,0.11 1.89,-2.44 1.89,3.44 1.77,-2.33 1.89,1.22 1.89,-1 1.88,2.22 1.78,-3.55 1.89,2.56 1.88,-0.23 1.89,0 1.89,-0.44 1.77,-1.33 1.89,0.44 1.88,1.33 1.89,-0.33 1.89,-1 1.77,1.11 1.89,1.22 1.89,-3.11 1.88,2.11 1.78,-0.88 1.88,2.33 1.89,-2 1.89,1.33 1.88,-2.22 1.78,3.88 1.89,-1.88 1.88,-1 1.89,1.33 1.78,0.22 1.88,-1.33 1.89,-0.66 1.89,1.66 1.88,0.11 1.78,-0.11 1.88,-0.33 1.89,-2.11 1.89,3.33 1.77,-2.89 1.89,1.33 1.89,-0.99 1.88,2.44 1.89,-3.33 1.78,2.22 1.88,-0.45 1.89,0.89 1.89,0.22 1.77,-1.44 1.89,1 1.88,0.66 1.89,0.67 1.89,-1.11 1.77,1.11 1.89,1 1.89,-3.55 1.88,2.22 1.78,-1.22 1.88,2.55 1.89,-2.33 1.89,1.55 1.88,-2.66 1.78,2.55 1.89,-1.88 1.88,-1.11 1.89,0.99 1.78,-0.11 1.88,-0.22 1.89,0.89 1.89,1 1.88,0.11 1.78,-0.45 1.88,0.78 1.89,-2.99 1.89,3.21 1.88,-2.55 1.78,0.89 1.89,-0.67 1.88,2 1.89,-3.77 1.77,1.55 1.89,-0.22 1.89,0.67 1.88,-0.12 1.89,-1.11 1.78,-0.11 1.88,0.34 1.89,0.77 1.89,-1.11 1.77,0.23 1.89,1.66 1.89,-3.11 1.88,2.33 1.89,-1.33 1.77,2.44 1.89,-2.66 1.89,1.44 1.88,-2.98 1.78,3.98 1.89,-1.22 1.88,-1.33 1.89,1.55 1.89,-0.22 1.77,-1 1.89,0.33 1.89,1.23 1.88,-0.12 1.78,0.45 1.88,-0.33 1.89,-2.56 1.89,3.89 1.88,-2.67 1.78,1.22 1.89,-0.77 1.88,2.44 1.89,-3.66 1.77,1.99 1.89,-0.22 1.89,0.56"
           style="fill:none;stroke:#5b9bd5;stroke-width:2.08080006;stroke-linecap:round;stroke-linejoin:round;stroke-miterlimit:10;stroke-dasharray:none;stroke-opacity:1"
           id="path4414"
           inkscape:connector-curvature="0" /></g></g><g
       id="g4416"><g
         id="g4418"
         clip-path="url(#clipPath4420)"><path
           d="m 100.06,444.51 1.88,-26.87 1.88,0.12 1.78,-3.44 1.89,0.33 1.88,-0.67 1.89,0.67 1.89,0.22 1.77,-1.11 1.89,0.78 1.89,-0.34 1.88,2.89 1.78,-2.11 1.88,-0.22 1.89,0.33 1.89,-0.11 1.88,0.33 1.78,1.45 1.89,-2.44 1.88,0.33 1.89,0.11 1.77,0.11 1.89,-0.44 1.89,-0.11 1.88,0.11 1.89,0.22 1.78,0 1.88,0.44 1.89,-0.66 1.89,-0.23 1.77,0.45 1.89,1.66 1.89,-1.22 1.88,-0.44 1.89,-0.33 1.77,0.11 1.89,0.33 1.89,-0.22 1.88,-0.11 1.89,0.44 1.78,1.44 1.88,-1.55 1.89,-0.22 1.89,3.88 1.77,-2.11 1.89,-1.22 1.88,-0.44 1.89,0.22 1.89,0.44 1.77,0.23 1.89,3.21 1.89,5.44 1.88,0.22 1.78,3.22 1.89,-1.77 1.88,-2 1.89,2 1.89,2.44 1.77,-1.56 1.89,0.23 1.88,0 1.89,-0.67 1.78,0.22 1.88,0.22 1.89,-1.44 1.89,-0.66 1.88,-0.67 1.78,-0.78 1.89,-1.88 1.88,1.11 1.89,3.44 1.77,-1 1.89,-3.78 1.89,-2.1 1.88,0.11 1.89,1.66 1.78,-2 1.88,-0.22 1.89,0.22 1.89,-0.44 1.77,2.33 1.89,-3.55 1.88,-2.22 1.89,-0.22 1.89,-0.22 1.77,0.66 1.89,0.45 1.89,-0.45 1.88,-0.44 1.78,0.22 1.89,0.44 1.88,-0.11 1.89,0 1.89,-0.33 1.77,-0.22 1.89,0.44 1.88,0 1.89,-0.11 1.89,0.11 1.77,-0.77 1.89,1.99 1.89,-1 1.88,2.56 1.78,4.88 1.88,5.1 1.89,-2.1 1.89,2.1 1.88,1.45 1.78,2.66 1.89,1.33 1.88,-2 1.89,-1.22 1.78,0.67 1.88,-2.89 1.89,-1.55 1.89,6.33 1.88,-1.34 1.78,-0.55 1.88,0.22 1.89,-0.33 1.89,-0.67 1.77,-0.77 1.89,0.22 1.89,-0.11 1.88,0.66 1.89,-2.99 1.78,0.55 1.88,3.44 1.89,-1.33 1.89,-0.67 1.77,2 1.89,1.22 1.88,1.78 1.89,2.11 1.89,0.44 1.77,1.89 1.89,0.33 1.89,-6.33 1.88,-0.77 1.78,1.77 1.88,3.11 1.89,-3 1.89,0.12 1.88,-0.34 1.78,-0.89 1.89,2.22 1.88,-2.22 1.89,-0.22 1.78,0.45 1.88,7.21 1.89,-1.55 1.89,-3.67 1.88,-1.44 1.78,0.89 1.88,1.22 1.89,-2 1.89,-2.33 1.88,-3.22 1.78,-3.99 1.89,-0.89 1.88,-0.78 1.89,-1.88 1.77,-3.89 1.89,-2.33 1.89,0.45 1.88,-0.23 1.89,0 1.78,-0.44 1.88,1.11 1.89,-1.14 1.89,1.03 1.77,0 1.89,-0.89 1.89,1.55 1.88,-0.88 1.89,0.33 1.77,0.55 1.89,-0.77 1.89,-0.11 1.88,0.44 1.78,-0.33 1.89,0.11 1.88,-0.44 1.89,-0.23 1.89,1.22 1.77,-0.33 1.89,2.55 1.89,5.11 1.88,4.1 1.78,-1.77 1.88,-2.89 1.89,1.22 1.89,2.22 1.88,0.34 1.78,-1.22 1.89,-1.67 1.88,1.22 1.89,0 1.77,-0.11 1.89,-0.22 1.89,0.44"
           style="fill:none;stroke:#ed7d31;stroke-width:2.08080006;stroke-linecap:round;stroke-linejoin:round;stroke-miterlimit:10;stroke-dasharray:none;stroke-opacity:1"
           id="path4424"
           inkscape:connector-curvature="0" /></g></g><g
       id="g4426"><g
         id="g4428"
         clip-path="url(#clipPath4430)"><text
           transform="matrix(1,0,0,-1,87.216,344.69)"
           style="font-variant:normal;font-weight:normal;font-size:8.32800007px;font-family:Calibri;-inkscape-font-specification:Calibri;writing-mode:lr-tb;fill:#595959;fill-opacity:1;fill-rule:nonzero;stroke:none"
           id="text4434"><tspan
             x="0"
             y="0"
             id="tspan4436">0</tspan></text>
</g></g><g
       id="g4438"><g
         id="g4440"
         clip-path="url(#clipPath4442)"><text
           transform="matrix(1,0,0,-1,82.992,363.31)"
           style="font-variant:normal;font-weight:normal;font-size:8.32800007px;font-family:Calibri;-inkscape-font-specification:Calibri;writing-mode:lr-tb;fill:#595959;fill-opacity:1;fill-rule:nonzero;stroke:none"
           id="text4446"><tspan
             x="0 4.2239962"
             y="0"
             sodipodi:role="line"
             id="tspan4448">50</tspan></text>
</g></g><g
       id="g4450"><g
         id="g4452"
         clip-path="url(#clipPath4454)"><text
           transform="matrix(1,0,0,-1,78.768,381.96)"
           style="font-variant:normal;font-weight:normal;font-size:8.32800007px;font-family:Calibri;-inkscape-font-specification:Calibri;writing-mode:lr-tb;fill:#595959;fill-opacity:1;fill-rule:nonzero;stroke:none"
           id="text4458"><tspan
             x="0 4.2239962 8.4479923"
             y="0"
             sodipodi:role="line"
             id="tspan4460">100</tspan></text>
</g></g><g
       id="g4462"><g
         id="g4464"
         clip-path="url(#clipPath4466)"><text
           transform="matrix(1,0,0,-1,78.768,400.58)"
           style="font-variant:normal;font-weight:normal;font-size:8.32800007px;font-family:Calibri;-inkscape-font-specification:Calibri;writing-mode:lr-tb;fill:#595959;fill-opacity:1;fill-rule:nonzero;stroke:none"
           id="text4470"><tspan
             x="0 4.2239962 8.4479923"
             y="0"
             sodipodi:role="line"
             id="tspan4472">150</tspan></text>
</g></g><g
       id="g4474"><g
         id="g4476"
         clip-path="url(#clipPath4478)"><text
           transform="matrix(1,0,0,-1,78.768,419.23)"
           style="font-variant:normal;font-weight:normal;font-size:8.32800007px;font-family:Calibri;-inkscape-font-specification:Calibri;writing-mode:lr-tb;fill:#595959;fill-opacity:1;fill-rule:nonzero;stroke:none"
           id="text4482"><tspan
             x="0 4.2239962 8.4479923"
             y="0"
             sodipodi:role="line"
             id="tspan4484">200</tspan></text>
</g></g><g
       id="g4486"><g
         id="g4488"
         clip-path="url(#clipPath4490)"><text
           transform="matrix(1,0,0,-1,78.768,437.86)"
           style="font-variant:normal;font-weight:normal;font-size:8.3039999px;font-family:Calibri;-inkscape-font-specification:Calibri;writing-mode:lr-tb;fill:#595959;fill-opacity:1;fill-rule:nonzero;stroke:none"
           id="text4494"><tspan
             x="0 4.2240281 8.4480562"
             y="0"
             sodipodi:role="line"
             id="tspan4496">250</tspan></text>
</g></g><g
       id="g4498"><g
         id="g4500"
         clip-path="url(#clipPath4502)"><text
           transform="matrix(1,0,0,-1,78.768,456.5)"
           style="font-variant:normal;font-weight:normal;font-size:8.32800007px;font-family:Calibri;-inkscape-font-specification:Calibri;writing-mode:lr-tb;fill:#595959;fill-opacity:1;fill-rule:nonzero;stroke:none"
           id="text4506"><tspan
             x="0 4.2239962 8.4479923"
             y="0"
             sodipodi:role="line"
             id="tspan4508">300</tspan></text>
</g></g><g
       id="g4510"><g
         id="g4512"
         clip-path="url(#clipPath4514)"><text
           transform="matrix(1,0,0,-1,97.968,333.86)"
           style="font-variant:normal;font-weight:normal;font-size:8.32800007px;font-family:Calibri;-inkscape-font-specification:Calibri;writing-mode:lr-tb;fill:#595959;fill-opacity:1;fill-rule:nonzero;stroke:none"
           id="text4518"><tspan
             x="0"
             y="0"
             id="tspan4520">1</tspan></text>
</g></g><g
       id="g4522"><g
         id="g4524"
         clip-path="url(#clipPath4526)"><text
           transform="matrix(1,0,0,-1,186.89,333.86)"
           style="font-variant:normal;font-weight:normal;font-size:8.32800007px;font-family:Calibri;-inkscape-font-specification:Calibri;writing-mode:lr-tb;fill:#595959;fill-opacity:1;fill-rule:nonzero;stroke:none"
           id="text4530"><tspan
             x="0 4.199996 8.399992"
             y="0"
             sodipodi:role="line"
             id="tspan4532">251</tspan></text>
</g></g><g
       id="g4534"><g
         id="g4536"
         clip-path="url(#clipPath4538)"><text
           transform="matrix(1,0,0,-1,280.01,333.86)"
           style="font-variant:normal;font-weight:normal;font-size:8.32800007px;font-family:Calibri;-inkscape-font-specification:Calibri;writing-mode:lr-tb;fill:#595959;fill-opacity:1;fill-rule:nonzero;stroke:none"
           id="text4542"><tspan
             x="0 4.2239962 8.4479923"
             y="0"
             sodipodi:role="line"
             id="tspan4544">501</tspan></text>
</g></g><g
       id="g4546"><g
         id="g4548"
         clip-path="url(#clipPath4550)"><text
           transform="matrix(1,0,0,-1,373.13,333.86)"
           style="font-variant:normal;font-weight:normal;font-size:8.32800007px;font-family:Calibri;-inkscape-font-specification:Calibri;writing-mode:lr-tb;fill:#595959;fill-opacity:1;fill-rule:nonzero;stroke:none"
           id="text4554"><tspan
             x="0 4.2239962 8.4479923"
             y="0"
             sodipodi:role="line"
             id="tspan4556">751</tspan></text>
</g></g><g
       id="g4558"><g
         id="g4560"
         clip-path="url(#clipPath4562)"><text
           transform="matrix(1,0,0,-1,464.16,333.86)"
           style="font-variant:normal;font-weight:normal;font-size:8.32800007px;font-family:Calibri;-inkscape-font-specification:Calibri;writing-mode:lr-tb;fill:#595959;fill-opacity:1;fill-rule:nonzero;stroke:none"
           id="text4566"><tspan
             x="0 4.199996 8.399992 12.599988"
             y="0"
             sodipodi:role="line"
             id="tspan4568">1001</tspan></text>
</g></g><g
       id="g4570"><g
         id="g4572"
         clip-path="url(#clipPath4574)"><text
           transform="matrix(-4.4e-8,1,1,4.4e-8,72.984,371.06)"
           style="font-variant:normal;font-weight:normal;font-size:11.11200047px;font-family:Calibri;-inkscape-font-specification:Calibri;writing-mode:lr-tb;fill:#595959;fill-opacity:1;fill-rule:nonzero;stroke:none"
           id="text4578"><tspan
             x="0 9.545208 12.100968 14.656728 17.179152 19.734913 24.046368 29.580145 34.49165 40.358784 46.225922 52.093056 57.626831"
             y="0"
             sodipodi:role="line"
             id="tspan4580">Millisekunden</tspan></text>
</g></g><g
       id="g4582"><g
         id="g4584"
         clip-path="url(#clipPath4586)"><text
           transform="matrix(1,0,0,-1,252.58,318.26)"
           style="font-variant:normal;font-weight:normal;font-size:11.11200047px;font-family:Calibri;-inkscape-font-specification:Calibri;writing-mode:lr-tb;fill:#595959;fill-opacity:1;fill-rule:nonzero;stroke:none"
           id="text4590"><tspan
             x="0 5.1004081 8.7784796 14.101128 22.979616 28.546728 34.436089 40.325447 49.203938 58.082424 63.638424"
             y="0"
             sodipodi:role="line"
             id="tspan4592">Framenummer</tspan></text>
</g></g><g
       id="g4594"><g
         id="g4596"
         clip-path="url(#clipPath4598)"><text
           transform="matrix(1,0,0,-1,210.58,474.86)"
           style="font-variant:normal;font-weight:normal;font-size:16.65600014px;font-family:Calibri;-inkscape-font-specification:Calibri;writing-mode:lr-tb;fill:#595959;fill-opacity:1;fill-rule:nonzero;stroke:none"
           id="text4602"><tspan
             x="0 10.24344 18.987841 24.584255 31.629744 40.374146 46.886639 53.932129 62.676529 71.487549 75.318436 80.615044 86.194801 89.975716 93.806595 100.7688 109.5132 117.85786 121.72205 128.71758 136.69579 145.49016 150.48695 156.69965 164.99434 168.82521"
             y="0"
             sodipodi:role="line"
             id="tspan4604">Durchschnittliche Laufzeit</tspan></text>
</g></g><path
       d="m 495.26,383.30421 17.75,0"
       style="fill:none;stroke:#5b9bd5;stroke-width:2.08080006;stroke-linecap:round;stroke-linejoin:round;stroke-miterlimit:10;stroke-dasharray:none;stroke-opacity:1"
       id="path4606"
       inkscape:connector-curvature="0" /><g
       id="g4608"
       transform="translate(0,-12.595789)"><g
         id="g4610"
         clip-path="url(#clipPath4612)"><text
           transform="matrix(1,0,0,-1,514.99,392.69)"
           style="font-variant:normal;font-weight:normal;font-size:11.11200047px;font-family:Calibri;-inkscape-font-specification:Calibri;writing-mode:lr-tb;fill:#595959;fill-opacity:1;fill-rule:nonzero;stroke:none"
           id="text4616"><tspan
             x="0 5.7782402 12.956592"
             y="0"
             sodipodi:role="line"
             id="tspan4618">KNN</tspan></text>
</g></g><path
       d="m 495.26,399.56783 17.75,0"
       style="fill:none;stroke:#ed7d31;stroke-width:2.08080006;stroke-linecap:round;stroke-linejoin:round;stroke-miterlimit:10;stroke-dasharray:none;stroke-opacity:1"
       id="path4620"
       inkscape:connector-curvature="0" /><g
       id="g4622"
       transform="translate(0,22.627834)"><g
         id="g4624"
         clip-path="url(#clipPath4626)"><text
           transform="matrix(1,0,0,-1,514.99,373.7)"
           style="font-variant:normal;font-weight:normal;font-size:11.0880003px;font-family:Calibri;-inkscape-font-specification:Calibri;writing-mode:lr-tb;fill:#595959;fill-opacity:1;fill-rule:nonzero;stroke:none"
           id="text4630"><tspan
             x="0 6.3201599 8.8704004 14.625072"
             y="0"
             sodipodi:role="line"
             id="tspan4632">Vibe</tspan></text>
</g></g><path
       d="m 50.877,303.77 493.57,0 0,193.95 -493.57,0 0,-193.95 z"
       style="fill:none;stroke:#d9d9d9;stroke-width:0.6936;stroke-linecap:butt;stroke-linejoin:round;stroke-miterlimit:10;stroke-dasharray:none;stroke-opacity:1"
       id="path4634"
       inkscape:connector-curvature="0" /></g></svg>