<?xml version="1.0" encoding="UTF-8" standalone="no"?>
<!-- Created with Inkscape (http://www.inkscape.org/) -->

<svg
   xmlns:dc="http://purl.org/dc/elements/1.1/"
   xmlns:cc="http://creativecommons.org/ns#"
   xmlns:rdf="http://www.w3.org/1999/02/22-rdf-syntax-ns#"
   xmlns:svg="http://www.w3.org/2000/svg"
   xmlns="http://www.w3.org/2000/svg"
   xmlns:sodipodi="http://sodipodi.sourceforge.net/DTD/sodipodi-0.dtd"
   xmlns:inkscape="http://www.inkscape.org/namespaces/inkscape"
   version="1.1"
   id="svg4485"
   xml:space="preserve"
   width="986.70667"
   height="434.93332"
   viewBox="0 0 986.70664 434.93332"
   sodipodi:docname="knn_vs_vibe_edit.svg"
   inkscape:version="0.92.1 r15371"><metadata
     id="metadata4491"><rdf:RDF><cc:Work
         rdf:about=""><dc:format>image/svg+xml</dc:format><dc:type
           rdf:resource="http://purl.org/dc/dcmitype/StillImage" /><dc:title></dc:title></cc:Work></rdf:RDF></metadata><defs
     id="defs4489"><clipPath
       clipPathUnits="userSpaceOnUse"
       id="clipPath4507"><path
         d="M 109.44,186.56 H 705.3 v 229.1 H 109.44 Z"
         id="path4505"
         inkscape:connector-curvature="0"
         style="clip-rule:evenodd" /></clipPath><clipPath
       clipPathUnits="userSpaceOnUse"
       id="clipPath4517"><path
         d="M 109.44,186.56 H 705.3 v 229.1 H 109.44 Z"
         id="path4515"
         inkscape:connector-curvature="0"
         style="clip-rule:evenodd" /></clipPath><clipPath
       clipPathUnits="userSpaceOnUse"
       id="clipPath4527"><path
         d="M 50.88,134.52 H 790.92 V 460.68 H 50.88 Z"
         id="path4525"
         inkscape:connector-curvature="0"
         style="clip-rule:evenodd" /></clipPath><clipPath
       clipPathUnits="userSpaceOnUse"
       id="clipPath4539"><path
         d="M 50.88,134.52 H 790.92 V 460.68 H 50.88 Z"
         id="path4537"
         inkscape:connector-curvature="0"
         style="clip-rule:evenodd" /></clipPath><clipPath
       clipPathUnits="userSpaceOnUse"
       id="clipPath4551"><path
         d="M 50.88,134.52 H 790.92 V 460.68 H 50.88 Z"
         id="path4549"
         inkscape:connector-curvature="0"
         style="clip-rule:evenodd" /></clipPath><clipPath
       clipPathUnits="userSpaceOnUse"
       id="clipPath4563"><path
         d="M 50.88,134.52 H 790.92 V 460.68 H 50.88 Z"
         id="path4561"
         inkscape:connector-curvature="0"
         style="clip-rule:evenodd" /></clipPath><clipPath
       clipPathUnits="userSpaceOnUse"
       id="clipPath4575"><path
         d="M 50.88,134.52 H 790.92 V 460.68 H 50.88 Z"
         id="path4573"
         inkscape:connector-curvature="0"
         style="clip-rule:evenodd" /></clipPath><clipPath
       clipPathUnits="userSpaceOnUse"
       id="clipPath4587"><path
         d="M 50.88,134.52 H 790.92 V 460.68 H 50.88 Z"
         id="path4585"
         inkscape:connector-curvature="0"
         style="clip-rule:evenodd" /></clipPath><clipPath
       clipPathUnits="userSpaceOnUse"
       id="clipPath4599"><path
         d="M 50.88,134.52 H 790.92 V 460.68 H 50.88 Z"
         id="path4597"
         inkscape:connector-curvature="0"
         style="clip-rule:evenodd" /></clipPath><clipPath
       clipPathUnits="userSpaceOnUse"
       id="clipPath4611"><path
         d="M 50.88,134.52 H 790.92 V 460.68 H 50.88 Z"
         id="path4609"
         inkscape:connector-curvature="0"
         style="clip-rule:evenodd" /></clipPath><clipPath
       clipPathUnits="userSpaceOnUse"
       id="clipPath4623"><path
         d="M 50.88,134.52 H 790.92 V 460.68 H 50.88 Z"
         id="path4621"
         inkscape:connector-curvature="0"
         style="clip-rule:evenodd" /></clipPath><clipPath
       clipPathUnits="userSpaceOnUse"
       id="clipPath4635"><path
         d="M 50.88,134.52 H 790.92 V 460.68 H 50.88 Z"
         id="path4633"
         inkscape:connector-curvature="0"
         style="clip-rule:evenodd" /></clipPath><clipPath
       clipPathUnits="userSpaceOnUse"
       id="clipPath4647"><path
         d="M 50.88,134.52 H 790.92 V 460.68 H 50.88 Z"
         id="path4645"
         inkscape:connector-curvature="0"
         style="clip-rule:evenodd" /></clipPath><clipPath
       clipPathUnits="userSpaceOnUse"
       id="clipPath4659"><path
         d="M 50.88,134.52 H 790.92 V 460.68 H 50.88 Z"
         id="path4657"
         inkscape:connector-curvature="0"
         style="clip-rule:evenodd" /></clipPath><clipPath
       clipPathUnits="userSpaceOnUse"
       id="clipPath4671"><path
         d="M 50.88,134.52 H 790.92 V 460.68 H 50.88 Z"
         id="path4669"
         inkscape:connector-curvature="0"
         style="clip-rule:evenodd" /></clipPath><clipPath
       clipPathUnits="userSpaceOnUse"
       id="clipPath4683"><path
         d="M 50.88,134.52 H 790.92 V 460.68 H 50.88 Z"
         id="path4681"
         inkscape:connector-curvature="0"
         style="clip-rule:evenodd" /></clipPath><clipPath
       clipPathUnits="userSpaceOnUse"
       id="clipPath4695"><path
         d="M 50.88,134.52 H 790.92 V 460.68 H 50.88 Z"
         id="path4693"
         inkscape:connector-curvature="0"
         style="clip-rule:evenodd" /></clipPath><clipPath
       clipPathUnits="userSpaceOnUse"
       id="clipPath4707"><path
         d="M 50.88,134.52 H 790.92 V 460.68 H 50.88 Z"
         id="path4705"
         inkscape:connector-curvature="0"
         style="clip-rule:evenodd" /></clipPath><clipPath
       clipPathUnits="userSpaceOnUse"
       id="clipPath4721"><path
         d="M 50.88,134.52 H 790.92 V 460.68 H 50.88 Z"
         id="path4719"
         inkscape:connector-curvature="0"
         style="clip-rule:evenodd" /></clipPath><clipPath
       clipPathUnits="userSpaceOnUse"
       id="clipPath4735"><path
         d="M 50.88,134.52 H 790.92 V 460.68 H 50.88 Z"
         id="path4733"
         inkscape:connector-curvature="0"
         style="clip-rule:evenodd" /></clipPath></defs><sodipodi:namedview
     pagecolor="#ffffff"
     bordercolor="#666666"
     borderopacity="1"
     objecttolerance="10"
     gridtolerance="10"
     guidetolerance="10"
     inkscape:pageopacity="0"
     inkscape:pageshadow="2"
     inkscape:window-width="1920"
     inkscape:window-height="1017"
     id="namedview4487"
     showgrid="false"
     fit-margin-top="0"
     fit-margin-left="0"
     fit-margin-right="0"
     fit-margin-bottom="0"
     inkscape:zoom="1.09249"
     inkscape:cx="493.29868"
     inkscape:cy="363.97445"
     inkscape:window-x="-8"
     inkscape:window-y="-8"
     inkscape:window-maximized="1"
     inkscape:current-layer="g4493" /><g
     id="g4493"
     inkscape:groupmode="layer"
     inkscape:label="knn_vs_vibe_edit"
     transform="matrix(1.3333333,0,0,-1.3333333,-67.901332,614.21332)"><path
       d="m 50.926,134.46 h 740.03 v 326.2 H 50.926 Z"
       style="fill:#ffffff;fill-opacity:1;fill-rule:evenodd;stroke:none"
       id="path4495"
       inkscape:connector-curvature="0" /><path
       d="m 109.54,225.45 h 595.08 m -595.08,38 h 595.08 m -595.08,37.99 h 595.08 m -595.08,38.11 h 595.08 m -595.08,37.99 h 595.08 m -595.08,38.07 h 595.08"
       style="fill:none;stroke:#d9d9d9;stroke-width:0.80487001;stroke-linecap:butt;stroke-linejoin:round;stroke-miterlimit:10;stroke-dasharray:none;stroke-opacity:1"
       id="path4497"
       inkscape:connector-curvature="0" /><path
       d="M 109.54,187.35 H 704.62"
       style="fill:none;stroke:#d9d9d9;stroke-width:0.80487001;stroke-linecap:butt;stroke-linejoin:round;stroke-miterlimit:10;stroke-dasharray:none;stroke-opacity:1"
       id="path4499"
       inkscape:connector-curvature="0" /><g
       id="g4501"><g
         id="g4503"
         clip-path="url(#clipPath4507)"><path
           d="m 110.65,272.59 2.27,7.59 2.19,-0.12 2.19,-40.05 2.19,-19.06 2.19,1.8 2.19,-2.7 2.32,5.53 2.18,-4.63 2.19,-2.96 2.19,1.28 2.19,0.13 2.19,-2.83 2.32,0.64 2.19,2.06 2.19,0.39 2.19,-0.26 2.19,-0.13 2.31,-4.38 2.19,6.83 2.19,-4.51 2.19,2.19 2.19,-2.32 2.19,5.03 2.32,-7.34 2.19,5.15 2.19,-0.52 2.19,-0.13 h 2.19 l 2.31,-2.57 2.19,0.13 2.19,2.31 2.19,0.26 2.19,-2.32 2.19,1.94 2.32,3.22 2.19,-7.47 2.19,4.63 2.19,-2.57 2.19,5.02 2.18,-5.8 2.32,3.35 2.19,-5.02 2.19,7.86 2.19,-3.22 2.19,-2.19 2.32,2.57 2.19,0.39 2.19,-2.58 h 2.19 l 2.18,5.28 2.19,-1.54 h 2.32 l 2.19,1.67 2.19,-5.79 2.19,6.95 2.19,-4.76 2.19,2.44 2.32,-2.96 2.19,4.64 2.18,-7.6 2.19,3.86 2.19,0.65 2.32,-0.13 2.19,0.77 2.19,-2.58 2.19,0.39 2.19,1.93 h 2.19 l 2.32,-2.06 2.18,2.19 2.19,2.71 2.19,-7.86 2.19,3.86 2.32,-2.06 2.19,3.61 2.19,-3.61 2.19,2.06 2.19,-4.5 2.19,6.95 2.32,-1.55 2.18,-3.6 2.19,2.57 h 2.19 l 2.19,-2.31 2.19,-0.39 2.32,2.83 2.19,0.13 2.19,-0.51 2.19,0.38 2.19,-4.12 2.31,5.93 2.19,-4.25 2.19,2.57 2.19,-2.57 2.19,5.02 2.19,-7.73 2.32,4.77 2.19,0.38 2.19,-0.13 2.19,0.65 2.19,-2.96 2.31,0.9 2.19,2.7 2.19,1.16 2.19,-3.22 2.19,2.96 2.19,2.97 2.32,-7.99 2.19,4.77 2.19,-2.32 2.19,4.51 2.19,-5.28 2.18,2.96 2.32,-4.64 2.19,7.6 2.19,-3.74 2.19,-1.93 2.19,1.81 2.32,-0.26 2.19,-2.32 2.19,-0.77 2.19,2.19 2.18,1.8 2.19,-0.64 h 2.32 l 2.19,-4.38 2.19,9.01 2.19,-4.89 2.19,1.29 2.19,-1.29 2.32,5.41 2.19,-7.86 2.18,5.41 2.19,-0.51 2.19,0.9 2.32,-1.03 2.19,-1.16 2.19,-0.52 2.19,2.32 h 2.19 l 2.19,-1.93 2.32,1.93 2.19,2.7 2.18,-9.4 2.19,4.9 2.19,-3.61 2.32,4.9 2.19,-4.64 2.19,4.12 2.19,-5.28 2.19,7.86 2.19,-2.19 2.32,-2.32 2.18,2.7 2.19,-1.03 2.19,-2.19 2.19,-0.51 2.19,2.06 h 2.32 l 2.19,-0.26 2.19,-0.51 2.19,-5.41 2.19,6.95 2.31,-6.05 2.19,3.35 2.19,-1.42 2.19,3.86 2.19,-8.37 2.19,5.93 2.32,0.13 2.19,-0.52 2.19,0.52 2.19,-2.19 2.19,-0.9 2.31,2.06 h 2.19 l 2.19,-1.94 2.19,1.94 2.19,3.34 2.19,-7.98 2.32,6.44 2.19,-2.32 2.19,4.64 2.19,-4.77 2.19,1.8 2.18,-4.76 2.32,7.86 2.19,-1.16 2.19,-3.87 2.19,1.81 2.19,1.8 2.32,-3.99 2.19,-0.13 2.19,2.06 2.19,0.13 2.18,1.8 2.19,-1.8 2.32,-4.12 2.19,6.56 2.19,-3.86 2.19,3.61 2.19,-4 2.19,4.25 2.32,-5.66 2.19,3.09 2.18,0.9 2.19,-0.52 2.19,-1.03 2.32,-2.06 2.19,-0.12 2.19,4.5 2.19,-0.64 2.19,-3.48 2.19,2.19 2.32,3.35 2.19,-4.25 2.18,2.57 2.19,-3.6 2.19,4.76 2.32,-4.89 2.19,2.06 2.19,-3.61 2.19,6.57 2.19,-3.86 2.19,-1.93 2.32,1.8 2.18,0.77 2.19,-2.57 2.19,-0.13 2.19,3.22 2.19,-1.03 2.32,-0.13 2.19,1.16 2.19,-5.02 2.19,6.82 2.19,-5.41 2.31,2.58 2.19,-1.16 2.19,4.12 2.19,-8.11 2.19,5.53 2.19,0.65 h 2.32 l 2.19,0.13 2.19,-1.81 2.19,-1.54 2.19,2.7 2.19,-0.64 2.31,-1.55 2.19,1.55 2.19,3.86 2.19,-8.5 2.19,5.28 2.32,-2.57 2.19,5.79 2.19,-5.15 2.19,2.06 2.19,-5.79 2.18,8.75 2.32,-3.22 2.19,-3.09 2.19,3.35 2.19,0.52 2.19,-4 2.32,1.04 2.19,2.06 2.19,0.38 2.19,-18.54"
           style="fill:none;stroke:#5b9bd5;stroke-width:2.4145999;stroke-linecap:round;stroke-linejoin:round;stroke-miterlimit:10;stroke-dasharray:none;stroke-opacity:1"
           id="path4509"
           inkscape:connector-curvature="0" /></g></g><g
       id="g4511"><g
         id="g4513"
         clip-path="url(#clipPath4517)"><path
           d="m 110.65,342.77 2.27,-18.67 2.19,10.05 2.19,-5.93 2.19,0.39 2.19,-26.92 2.19,0.52 2.32,22.28 2.18,-0.9 2.19,0.51 2.19,-23.44 2.19,28.08 2.19,-76.5 2.32,72.5 2.19,-24.46 2.19,3.47 2.19,-3.22 2.19,24.21 2.31,1.29 2.19,-50.87 2.19,25.76 2.19,1.8 2.19,-27.17 2.19,-24.73 2.32,-1.28 2.19,51.12 2.19,25.37 2.19,-0.26 2.19,-22.27 2.31,-1.81 2.19,-26.4 2.19,-24.34 2.19,73.79 2.19,-23.56 2.19,-50.61 2.32,74.17 2.19,-24.34 2.19,-24.21 2.19,24.09 2.19,-2.97 2.18,27.18 2.32,-48.3 2.19,-23.05 2.19,23.57 h 2.19 l 2.19,-1.8 2.32,-21.51 2.19,23.18 2.19,25.5 2.19,26.14 2.18,6.96 2.19,4.63 2.32,-23.31 2.19,5.28 2.19,-2.96 2.19,25.24 2.19,3.99 2.19,7.6 2.32,-5.41 2.19,-29.87 2.18,30.52 2.19,-0.39 2.19,-58.72 2.32,-1.42 2.19,56.53 2.19,-29.61 2.19,-1.04 2.19,25.63 2.19,0.13 2.32,1.03 2.18,3.22 2.19,-0.51 2.19,-9.53 2.19,-28.85 2.32,-0.26 2.19,-25.11 2.19,25.37 2.19,-26.53 h 2.19 l 2.19,0.9 2.32,52.16 2.18,-4.77 2.19,-102.76 2.19,75.59 2.19,-25.88 2.19,-25.12 2.32,53.06 2.19,-3.99 2.19,-24.6 2.19,25.5 2.19,-49.84 2.31,23.83 2.19,26.4 2.19,-49.58 2.19,24.21 2.19,49.45 2.19,-24.47 2.32,24.73 2.19,-74.57 2.19,50.74 2.19,-28.2 2.19,53.83 2.31,5.79 2.19,12.11 2.19,-26.53 2.19,1.03 2.19,-26.53 2.19,33.48 2.32,36.32 2.19,-3.86 2.19,-2.71 2.19,1.29 2.19,-30.78 2.18,24.47 2.32,-29.1 2.19,37.47 2.19,-0.39 2.19,0.26 2.19,-32.71 2.32,31.94 2.19,-32.58 2.19,-30.26 2.19,59.49 2.18,-27.04 2.19,34.9 2.32,-5.28 2.19,-31.68 2.19,6.18 2.19,27.3 2.19,-5.8 2.19,-55.76 2.32,64.52 2.19,5.93 2.18,0.25 2.19,-31.16 2.19,35.93 2.32,0.43 2.19,-44.99 2.19,1.16 2.19,2.19 2.19,34.64 2.19,-34.13 2.32,-1.41 2.19,-31.17 2.18,35.67 2.19,-5.15 2.19,30.65 2.32,1.55 2.19,-30.65 2.19,9.53 2.19,31.29 2.19,-7.72 2.19,-2.45 2.32,5.92 2.18,-31.55 2.19,-5.67 2.19,28.08 2.19,-9.27 2.19,-35.8 2.32,-4.64 2.19,29.36 2.19,-27.94 2.19,-7.99 2.19,20.99 2.31,-24.34 2.19,-1.93 2.19,-24.34 2.19,1.81 2.19,49.06 2.19,-0.51 2.32,-48.68 2.19,24.34 2.19,25.75 2.19,-25.88 2.19,25.88 2.31,1.03 2.19,-26.14 2.19,-22.28 2.19,-2.32 2.19,24.86 2.19,0.77 2.32,-23.18 2.19,23.18 2.19,-50.1 2.19,74.57 2.19,-51 2.18,60.4 2.32,-51.13 2.19,6.7 2.19,51.38 2.19,-3.09 2.19,6.96 2.32,1.41 2.19,-29.36 2.19,22.8 2.19,-25.76 2.18,28.07 2.19,0.39 2.32,-28.72 2.19,27.43 2.19,-0.64 2.19,-0.13 2.19,1.42 2.19,-1.94 2.32,-30.26 2.19,32.32 2.18,-33.35 2.19,1.42 2.19,0.13 2.32,31.29 2.19,2.06 2.19,-4.38 2.19,-33.87 2.19,29.36 2.19,5.67 2.32,3.74 2.19,2.06 2.18,-0.91 2.19,-1.03 2.19,-36.31 2.32,25.88 2.19,-54.6 2.19,0.77 h 2.19 l 2.19,25.76 2.19,-1.29 2.32,26.92 2.18,3.22 2.19,-4.9 2.19,-55.12 2.19,-0.25 2.19,50.22 2.32,-99.67 2.19,24.21 2.19,50.99 2.19,-26.27 2.19,26.66 2.31,23.57 2.19,-49.84 2.19,25.11 2.19,-25.37 2.19,24.85 2.19,-48.67 2.32,73.01 2.19,-48.8 2.19,27.43 2.19,-27.56 2.19,0.51 2.19,23.44 2.31,-0.13 2.19,-23.56 2.19,-25.12 2.19,49.07 2.19,26.01 2.32,-49.96 2.19,-0.26 2.19,-24.99 2.19,50.1 2.19,-74.56 2.18,24.34 2.32,26.4 2.19,-0.91 2.19,-0.12 2.19,50.35 2.19,-50.35 2.32,-0.26 2.19,51.25 2.19,-1.03 2.19,-108.39"
           style="fill:none;stroke:#ed7d31;stroke-width:2.4145999;stroke-linecap:round;stroke-linejoin:round;stroke-miterlimit:10;stroke-dasharray:none;stroke-opacity:1"
           id="path4519"
           inkscape:connector-curvature="0" /></g></g><g
       id="g4521"><g
         id="g4523"
         clip-path="url(#clipPath4527)"><text
           transform="matrix(1,0,0,-1,95.712,184.56)"
           style="font-variant:normal;font-weight:normal;font-size:9.67199993px;font-family:Calibri;-inkscape-font-specification:Calibri;writing-mode:lr-tb;fill:#595959;fill-opacity:1;fill-rule:nonzero;stroke:none"
           id="text4531"><tspan
             x="0"
             y="0"
             id="tspan4529">0</tspan></text>
</g></g><g
       id="g4533"><g
         id="g4535"
         clip-path="url(#clipPath4539)"><text
           transform="matrix(1,0,0,-1,90.816,222.6)"
           style="font-variant:normal;font-weight:normal;font-size:9.64799976px;font-family:Calibri;-inkscape-font-specification:Calibri;writing-mode:lr-tb;fill:#595959;fill-opacity:1;fill-rule:nonzero;stroke:none"
           id="text4543"><tspan
             x="0 4.8959961"
             y="0"
             sodipodi:role="line"
             id="tspan4541">50</tspan></text>
</g></g><g
       id="g4545"><g
         id="g4547"
         clip-path="url(#clipPath4551)"><text
           transform="matrix(1,0,0,-1,85.92,260.66)"
           style="font-variant:normal;font-weight:normal;font-size:9.67199993px;font-family:Calibri;-inkscape-font-specification:Calibri;writing-mode:lr-tb;fill:#595959;fill-opacity:1;fill-rule:nonzero;stroke:none"
           id="text4555"><tspan
             x="0 4.8960042 9.7920084"
             y="0"
             sodipodi:role="line"
             id="tspan4553">100</tspan></text>
</g></g><g
       id="g4557"><g
         id="g4559"
         clip-path="url(#clipPath4563)"><text
           transform="matrix(1,0,0,-1,85.92,298.7)"
           style="font-variant:normal;font-weight:normal;font-size:9.64799976px;font-family:Calibri;-inkscape-font-specification:Calibri;writing-mode:lr-tb;fill:#595959;fill-opacity:1;fill-rule:nonzero;stroke:none"
           id="text4567"><tspan
             x="0 4.8959961 9.7919922"
             y="0"
             sodipodi:role="line"
             id="tspan4565">150</tspan></text>
</g></g><g
       id="g4569"><g
         id="g4571"
         clip-path="url(#clipPath4575)"><text
           transform="matrix(1,0,0,-1,85.92,336.77)"
           style="font-variant:normal;font-weight:normal;font-size:9.67199993px;font-family:Calibri;-inkscape-font-specification:Calibri;writing-mode:lr-tb;fill:#595959;fill-opacity:1;fill-rule:nonzero;stroke:none"
           id="text4579"><tspan
             x="0 4.8960042 9.7920084"
             y="0"
             sodipodi:role="line"
             id="tspan4577">200</tspan></text>
</g></g><g
       id="g4581"><g
         id="g4583"
         clip-path="url(#clipPath4587)"><text
           transform="matrix(1,0,0,-1,85.92,374.81)"
           style="font-variant:normal;font-weight:normal;font-size:9.64799976px;font-family:Calibri;-inkscape-font-specification:Calibri;writing-mode:lr-tb;fill:#595959;fill-opacity:1;fill-rule:nonzero;stroke:none"
           id="text4591"><tspan
             x="0 4.8959961 9.7919922"
             y="0"
             sodipodi:role="line"
             id="tspan4589">250</tspan></text>
</g></g><g
       id="g4593"><g
         id="g4595"
         clip-path="url(#clipPath4599)"><text
           transform="matrix(1,0,0,-1,85.92,412.87)"
           style="font-variant:normal;font-weight:normal;font-size:9.67199993px;font-family:Calibri;-inkscape-font-specification:Calibri;writing-mode:lr-tb;fill:#595959;fill-opacity:1;fill-rule:nonzero;stroke:none"
           id="text4603"><tspan
             x="0 4.8960042 9.7920084"
             y="0"
             sodipodi:role="line"
             id="tspan4601">300</tspan></text>
</g></g><g
       id="g4605"><g
         id="g4607"
         clip-path="url(#clipPath4611)"><text
           transform="matrix(1,0,0,-1,108.22,171.98)"
           style="font-variant:normal;font-weight:normal;font-size:9.64799976px;font-family:Calibri;-inkscape-font-specification:Calibri;writing-mode:lr-tb;fill:#595959;fill-opacity:1;fill-rule:nonzero;stroke:none"
           id="text4615"><tspan
             x="0"
             y="0"
             id="tspan4613">1</tspan></text>
</g></g><g
       id="g4617"><g
         id="g4619"
         clip-path="url(#clipPath4623)"><text
           transform="matrix(1,0,0,-1,213.96,171.98)"
           style="font-variant:normal;font-weight:normal;font-size:9.64799976px;font-family:Calibri;-inkscape-font-specification:Calibri;writing-mode:lr-tb;fill:#595959;fill-opacity:1;fill-rule:nonzero;stroke:none"
           id="text4627"><tspan
             x="0 4.8959961 9.7919922"
             y="0"
             sodipodi:role="line"
             id="tspan4625">251</tspan></text>
</g></g><g
       id="g4629"><g
         id="g4631"
         clip-path="url(#clipPath4635)"><text
           transform="matrix(1,0,0,-1,324.58,171.98)"
           style="font-variant:normal;font-weight:normal;font-size:9.64799976px;font-family:Calibri;-inkscape-font-specification:Calibri;writing-mode:lr-tb;fill:#595959;fill-opacity:1;fill-rule:nonzero;stroke:none"
           id="text4639"><tspan
             x="0 4.8959961 9.7919922"
             y="0"
             sodipodi:role="line"
             id="tspan4637">501</tspan></text>
</g></g><g
       id="g4641"><g
         id="g4643"
         clip-path="url(#clipPath4647)"><text
           transform="matrix(1,0,0,-1,435.22,171.98)"
           style="font-variant:normal;font-weight:normal;font-size:9.64799976px;font-family:Calibri;-inkscape-font-specification:Calibri;writing-mode:lr-tb;fill:#595959;fill-opacity:1;fill-rule:nonzero;stroke:none"
           id="text4651"><tspan
             x="0 4.872036 9.744072"
             y="0"
             sodipodi:role="line"
             id="tspan4649">751</tspan></text>
</g></g><g
       id="g4653"><g
         id="g4655"
         clip-path="url(#clipPath4659)"><text
           transform="matrix(1,0,0,-1,543.38,171.98)"
           style="font-variant:normal;font-weight:normal;font-size:9.64799976px;font-family:Calibri;-inkscape-font-specification:Calibri;writing-mode:lr-tb;fill:#595959;fill-opacity:1;fill-rule:nonzero;stroke:none"
           id="text4663"><tspan
             x="0 4.8959961 9.7919922 14.687988"
             y="0"
             sodipodi:role="line"
             id="tspan4661">1001</tspan></text>
</g></g><g
       id="g4665"><g
         id="g4667"
         clip-path="url(#clipPath4671)"><text
           transform="matrix(1,0,0,-1,654,171.98)"
           style="font-variant:normal;font-weight:normal;font-size:9.64799976px;font-family:Calibri;-inkscape-font-specification:Calibri;writing-mode:lr-tb;fill:#595959;fill-opacity:1;fill-rule:nonzero;stroke:none"
           id="text4675"><tspan
             x="0 4.8959961 9.7919922 14.687988"
             y="0"
             sodipodi:role="line"
             id="tspan4673">1251</tspan></text>
</g></g><g
       id="g4677"><g
         id="g4679"
         clip-path="url(#clipPath4683)"><text
           transform="matrix(-4.4e-8,1,1,4.4e-8,70.392,257.21)"
           style="font-variant:normal;font-weight:normal;font-size:15.07199955px;font-family:Calibri;-inkscape-font-specification:Calibri;writing-mode:lr-tb;fill:#595959;fill-opacity:1;fill-rule:nonzero;stroke:none"
           id="text4687"><tspan
             x="0 12.88656 16.353121 19.819679 23.28624 26.7528 32.69117 40.197025 46.843777 54.696289 62.548801 70.401314 77.907166"
             y="0"
             sodipodi:role="line"
             id="tspan4685">Millisekunden</tspan></text>
</g></g><g
       id="g4689"><g
         id="g4691"
         clip-path="url(#clipPath4695)"><text
           transform="matrix(1,0,0,-1,361.61,151.82)"
           style="font-variant:normal;font-weight:normal;font-size:15.07199955px;font-family:Calibri;-inkscape-font-specification:Calibri;writing-mode:lr-tb;fill:#595959;fill-opacity:1;fill-rule:nonzero;stroke:none"
           id="text4699"><tspan
             x="0 6.9180479 11.98224 19.201729 31.153824 38.659679 46.466976 54.319489 66.301727 78.283966 85.789825"
             y="0"
             sodipodi:role="line"
             id="tspan4697">Framenummer</tspan></text>
</g></g><g
       id="g4701"><g
         id="g4703"
         clip-path="url(#clipPath4707)"><text
           transform="matrix(1,0,0,-1,319.94,434.16)"
           style="font-variant:normal;font-weight:normal;font-size:19.31999969px;font-family:Calibri;-inkscape-font-specification:Calibri;writing-mode:lr-tb;fill:#595959;fill-opacity:1;fill-rule:nonzero;stroke:none"
           id="text4711"><tspan
             x="0 11.8818 22.024799 28.497 36.669361 46.812359 54.366482 62.538841 72.681839 82.882797 87.326401 93.470161 99.94236 104.30868 108.75228 116.82804 126.97104 136.65036 141.15192 149.26633 158.5206 168.74088 174.5562 181.78188 191.40324 195.84685"
             y="0"
             sodipodi:role="line"
             id="tspan4709">Durchschnittliche Laufzeit</tspan></text>
</g></g><path
       d="m 724.63,306.13 h 20.61"
       style="fill:none;stroke:#5b9bd5;stroke-width:2.4145999;stroke-linecap:round;stroke-linejoin:round;stroke-miterlimit:10;stroke-dasharray:none;stroke-opacity:1"
       id="path4713"
       inkscape:connector-curvature="0" /><g
       id="g4715"><g
         id="g4717"
         clip-path="url(#clipPath4721)"><text
           transform="matrix(1,0,0,-1,747.53,301.78)"
           style="font-variant:normal;font-weight:normal;font-size:15.07199955px;font-family:Calibri;-inkscape-font-specification:Calibri;writing-mode:lr-tb;fill:#595959;fill-opacity:1;fill-rule:nonzero;stroke:none"
           id="text4725"><tspan
             x="0 7.83744 17.513664"
             y="0"
             sodipodi:role="line"
             id="tspan4723">KNN</tspan></text>
</g></g><path
       d="m 724.63,278.56 h 20.61"
       style="fill:none;stroke:#ed7d31;stroke-width:2.4145999;stroke-linecap:round;stroke-linejoin:round;stroke-miterlimit:10;stroke-dasharray:none;stroke-opacity:1"
       id="path4727"
       inkscape:connector-curvature="0" /><g
       id="g4729"><g
         id="g4731"
         clip-path="url(#clipPath4735)"><text
           transform="matrix(1,0,0,-1,747.53,274.2)"
           style="font-variant:normal;font-weight:normal;font-size:15.07199955px;font-family:Calibri;-inkscape-font-specification:Calibri;writing-mode:lr-tb;fill:#595959;fill-opacity:1;fill-rule:nonzero;stroke:none"
           id="text4739"><tspan
             x="0 8.5006084 11.967168 19.834751"
             y="0"
             sodipodi:role="line"
             id="tspan4737">Vibe</tspan></text>
</g></g><path
       d="m 50.926,134.46 h 740.03 v 326.2 H 50.926 Z"
       style="fill:none;stroke:#d9d9d9;stroke-width:0.80487001;stroke-linecap:butt;stroke-linejoin:round;stroke-miterlimit:10;stroke-dasharray:none;stroke-opacity:1"
       id="path4741"
       inkscape:connector-curvature="0" /></g></svg>