<?xml version="1.0" encoding="UTF-8" standalone="no"?>
<!-- Created with Inkscape (http://www.inkscape.org/) -->

<svg
   xmlns:dc="http://purl.org/dc/elements/1.1/"
   xmlns:cc="http://creativecommons.org/ns#"
   xmlns:rdf="http://www.w3.org/1999/02/22-rdf-syntax-ns#"
   xmlns:svg="http://www.w3.org/2000/svg"
   xmlns="http://www.w3.org/2000/svg"
   xmlns:sodipodi="http://sodipodi.sourceforge.net/DTD/sodipodi-0.dtd"
   xmlns:inkscape="http://www.inkscape.org/namespaces/inkscape"
   id="svg4136"
   version="1.1"
   inkscape:version="0.91 r13725"
   xml:space="preserve"
   width="617.86102"
   height="243.196"
   viewBox="0 0 617.86102 243.196"
   sodipodi:docname="knn_vs_asb.svg"><metadata
     id="metadata4142"><rdf:RDF><cc:Work
         rdf:about=""><dc:format>image/svg+xml</dc:format><dc:type
           rdf:resource="http://purl.org/dc/dcmitype/StillImage" /><dc:title></dc:title></cc:Work></rdf:RDF></metadata><defs
     id="defs4140"><clipPath
       clipPathUnits="userSpaceOnUse"
       id="clipPath4156"><path
         d="m 99.039,346.45 332.26,0 0,112.53 -332.26,0 0,-112.53 z"
         id="path4158"
         inkscape:connector-curvature="0"
         style="clip-rule:evenodd" /></clipPath><clipPath
       clipPathUnits="userSpaceOnUse"
       id="clipPath4166"><path
         d="m 99.039,346.45 332.26,0 0,112.53 -332.26,0 0,-112.53 z"
         id="path4168"
         inkscape:connector-curvature="0"
         style="clip-rule:evenodd" /></clipPath><clipPath
       clipPathUnits="userSpaceOnUse"
       id="clipPath4176"><path
         d="m 50.76,303.84 493.68,0 0,193.92 -493.68,0 0,-193.92 z"
         id="path4178"
         inkscape:connector-curvature="0"
         style="clip-rule:evenodd" /></clipPath><clipPath
       clipPathUnits="userSpaceOnUse"
       id="clipPath4188"><path
         d="m 50.76,303.84 493.68,0 0,193.92 -493.68,0 0,-193.92 z"
         id="path4190"
         inkscape:connector-curvature="0"
         style="clip-rule:evenodd" /></clipPath><clipPath
       clipPathUnits="userSpaceOnUse"
       id="clipPath4200"><path
         d="m 50.76,303.84 493.68,0 0,193.92 -493.68,0 0,-193.92 z"
         id="path4202"
         inkscape:connector-curvature="0"
         style="clip-rule:evenodd" /></clipPath><clipPath
       clipPathUnits="userSpaceOnUse"
       id="clipPath4212"><path
         d="m 50.76,303.84 493.68,0 0,193.92 -493.68,0 0,-193.92 z"
         id="path4214"
         inkscape:connector-curvature="0"
         style="clip-rule:evenodd" /></clipPath><clipPath
       clipPathUnits="userSpaceOnUse"
       id="clipPath4224"><path
         d="m 50.76,303.84 493.68,0 0,193.92 -493.68,0 0,-193.92 z"
         id="path4226"
         inkscape:connector-curvature="0"
         style="clip-rule:evenodd" /></clipPath><clipPath
       clipPathUnits="userSpaceOnUse"
       id="clipPath4236"><path
         d="m 50.76,303.84 493.68,0 0,193.92 -493.68,0 0,-193.92 z"
         id="path4238"
         inkscape:connector-curvature="0"
         style="clip-rule:evenodd" /></clipPath><clipPath
       clipPathUnits="userSpaceOnUse"
       id="clipPath4248"><path
         d="m 50.76,303.84 493.68,0 0,193.92 -493.68,0 0,-193.92 z"
         id="path4250"
         inkscape:connector-curvature="0"
         style="clip-rule:evenodd" /></clipPath><clipPath
       clipPathUnits="userSpaceOnUse"
       id="clipPath4260"><path
         d="m 50.76,303.84 493.68,0 0,193.92 -493.68,0 0,-193.92 z"
         id="path4262"
         inkscape:connector-curvature="0"
         style="clip-rule:evenodd" /></clipPath><clipPath
       clipPathUnits="userSpaceOnUse"
       id="clipPath4272"><path
         d="m 50.76,303.84 493.68,0 0,193.92 -493.68,0 0,-193.92 z"
         id="path4274"
         inkscape:connector-curvature="0"
         style="clip-rule:evenodd" /></clipPath><clipPath
       clipPathUnits="userSpaceOnUse"
       id="clipPath4284"><path
         d="m 50.76,303.84 493.68,0 0,193.92 -493.68,0 0,-193.92 z"
         id="path4286"
         inkscape:connector-curvature="0"
         style="clip-rule:evenodd" /></clipPath><clipPath
       clipPathUnits="userSpaceOnUse"
       id="clipPath4296"><path
         d="m 50.76,303.84 493.68,0 0,193.92 -493.68,0 0,-193.92 z"
         id="path4298"
         inkscape:connector-curvature="0"
         style="clip-rule:evenodd" /></clipPath><clipPath
       clipPathUnits="userSpaceOnUse"
       id="clipPath4308"><path
         d="m 50.76,303.84 493.68,0 0,193.92 -493.68,0 0,-193.92 z"
         id="path4310"
         inkscape:connector-curvature="0"
         style="clip-rule:evenodd" /></clipPath><clipPath
       clipPathUnits="userSpaceOnUse"
       id="clipPath4320"><path
         d="m 50.76,303.84 493.68,0 0,193.92 -493.68,0 0,-193.92 z"
         id="path4322"
         inkscape:connector-curvature="0"
         style="clip-rule:evenodd" /></clipPath><clipPath
       clipPathUnits="userSpaceOnUse"
       id="clipPath4332"><path
         d="m 50.76,303.84 493.68,0 0,193.92 -493.68,0 0,-193.92 z"
         id="path4334"
         inkscape:connector-curvature="0"
         style="clip-rule:evenodd" /></clipPath><clipPath
       clipPathUnits="userSpaceOnUse"
       id="clipPath4344"><path
         d="m 50.76,303.84 493.68,0 0,193.92 -493.68,0 0,-193.92 z"
         id="path4346"
         inkscape:connector-curvature="0"
         style="clip-rule:evenodd" /></clipPath><clipPath
       clipPathUnits="userSpaceOnUse"
       id="clipPath4358"><path
         d="m 50.76,303.84 493.68,0 0,193.92 -493.68,0 0,-193.92 z"
         id="path4360"
         inkscape:connector-curvature="0"
         style="clip-rule:evenodd" /></clipPath><clipPath
       clipPathUnits="userSpaceOnUse"
       id="clipPath4372"><path
         d="m 50.76,303.84 493.68,0 0,193.92 -493.68,0 0,-193.92 z"
         id="path4374"
         inkscape:connector-curvature="0"
         style="clip-rule:evenodd" /></clipPath><clipPath
       clipPathUnits="userSpaceOnUse"
       id="clipPath4384"><path
         d="m 50.4,303.48 494.4,0 0,194.64 -494.4,0 0,-194.64 z"
         id="path4386"
         inkscape:connector-curvature="0"
         style="clip-rule:evenodd" /></clipPath></defs><sodipodi:namedview
     pagecolor="#ffffff"
     bordercolor="#666666"
     borderopacity="1"
     objecttolerance="10"
     gridtolerance="10"
     guidetolerance="10"
     inkscape:pageopacity="0"
     inkscape:pageshadow="2"
     inkscape:window-width="1920"
     inkscape:window-height="1019"
     id="namedview4138"
     showgrid="false"
     inkscape:zoom="1.1477675"
     inkscape:cx="262.21218"
     inkscape:cy="156.9588"
     inkscape:window-x="-8"
     inkscape:window-y="-8"
     inkscape:window-maximized="1"
     inkscape:current-layer="g4144"
     fit-margin-top="0"
     fit-margin-left="0"
     fit-margin-right="0"
     fit-margin-bottom="0" /><g
     id="g4144"
     inkscape:groupmode="layer"
     inkscape:label="knn_vs_asb"
     transform="matrix(1.25,0,0,-1.25,-63.139,622.546)"><path
       d="m 50.858,303.74 493.61,0 0,193.95 -493.61,0 0,-193.95 z"
       style="fill:#ffffff;fill-opacity:1;fill-rule:evenodd;stroke:none"
       id="path4146"
       inkscape:connector-curvature="0" /><path
       d="m 99.113,365.65 331.517,0 m -331.517,18.64 331.517,0 m -331.517,18.65 331.517,0 m -331.517,18.64 331.517,0 m -331.517,18.64 331.517,0 m -331.517,18.65 331.517,0"
       style="fill:none;stroke:#d9d9d9;stroke-width:0.6936;stroke-linecap:butt;stroke-linejoin:round;stroke-miterlimit:10;stroke-dasharray:none;stroke-opacity:1"
       id="path4148"
       inkscape:connector-curvature="0" /><path
       d="m 99.113,347.07 331.517,0"
       style="fill:none;stroke:#d9d9d9;stroke-width:0.6936;stroke-linecap:butt;stroke-linejoin:round;stroke-miterlimit:10;stroke-dasharray:none;stroke-opacity:1"
       id="path4150"
       inkscape:connector-curvature="0" /><g
       id="g4152"><g
         id="g4154"
         clip-path="url(#clipPath4156)"><path
           d="m 99.938,443.82 1.652,-45.21 1.67,-21.75 1.66,6.77 1.67,-0.67 1.55,-4.99 1.66,1.77 1.67,-9.1 1.66,-2.22 1.67,-2.99 1.66,0.77 1.67,-0.77 1.55,1.44 1.67,1.11 1.66,-1.78 1.66,-0.33 1.67,3.55 1.66,-2.88 1.67,-1.81 1.55,1.92 1.67,0.55 1.66,0 1.67,1 1.66,6.33 1.67,-7.22 1.66,0.78 1.66,-1.44 1.56,-0.45 1.66,2.67 1.67,-3.22 1.66,0.89 1.67,-1.11 1.66,3.44 1.67,-3.22 1.55,1.66 1.66,0.56 1.67,-2.44 1.66,1.11 1.67,-0.89 1.66,2.44 1.67,-0.78 1.55,-0.66 1.67,-1.45 1.66,1.45 1.67,1.55 1.66,-1.55 1.66,-0.11 1.67,-0.11 1.55,0.77 1.67,-1 1.66,1.56 1.67,0.88 1.66,0.67 1.67,0 1.66,-3.33 1.67,1.78 1.55,1.11 1.66,-0.45 1.67,-1.99 1.66,1.44 1.67,-1.22 1.66,0.66 1.67,1.11 1.55,-2.22 1.67,2 1.66,-1.77 1.66,-0.56 1.67,0 1.66,3 1.67,-2.89 1.55,1.22 1.67,0.78 1.66,-1.55 1.67,-0.12 1.66,0.12 1.67,1.55 1.66,-0.56 1.55,0.23 1.67,-2.33 1.66,2.33 1.67,0.33 1.66,-1.11 1.67,0.22 1.66,-1.22 1.67,2.77 1.55,-3.21 1.66,1.66 1.67,-0.89 1.66,2.11 1.67,-2 1.66,-0.11 1.67,0.23 1.55,0.88 1.67,-0.44 1.66,-0.56 1.67,1.56 1.66,-2.22 1.66,2.55 1.67,-1.55 1.55,-1.56 1.67,3.78 1.66,-3.89 1.67,1.56 1.66,-0.34 1.67,4 1.66,-2.78 1.55,1.22 1.67,-0.66 1.66,0 1.67,0.11 1.66,-1 1.67,0.56 1.66,0.11 1.67,0.11 1.55,-2.55 1.67,3.55 1.66,0.44 1.66,-2.22 1.67,0.56 1.66,-0.34 1.67,0.67 1.55,-0.89 1.67,0.67 1.66,0.22 1.67,0.89 1.66,-1.33 1.67,-1.34 1.66,1.67 1.55,1 1.67,-0.67 1.66,-0.55 1.67,1.55 1.66,-1.44 1.67,0.88 1.66,0.67 1.56,-1.22 1.66,3 1.66,-3.33 1.67,0.66 1.66,-0.66 1.67,1.77 1.66,-0.66 1.56,0.44 1.66,-0.78 1.67,-0.55 1.66,1.11 1.67,-1.44 1.66,1.88 1.66,-0.66 1.67,0 1.55,-0.67 1.67,0 1.66,1.22 1.67,-1.33 1.66,-0.11 1.67,-0.89 1.66,2 1.55,-2.22 1.67,1.11 1.66,-0.44 1.67,1.33 1.66,-2 1.67,-2.14 1.66,2.36 1.56,-0.22 1.66,0.22 1.67,-0.22 1.66,0.55 1.66,-1.22 1.67,1.34 1.66,-0.23 1.56,-2.11 1.66,3.22 1.67,-1.88 1.66,-0.34 1.67,-0.77 1.66,3.1 1.67,-2.22 1.66,0.56 1.55,0 1.67,-0.44 1.66,0.77 1.67,-1.11 1.66,0.56 1.67,0.22 1.66,0.55 1.56,-2.69 1.66,3.91 1.66,0.67 1.67,-3.11 1.66,1.11 1.67,-0.88 1.66,1.66 1.56,-1.22 1.66,1 1.67,-0.33 1.66,1.99 1.67,-1.77 1.66,-2.33 1.66,4.21 1.61,-1.88"
           style="fill:none;stroke:#70ad47;stroke-width:2.08080006;stroke-linecap:round;stroke-linejoin:round;stroke-miterlimit:10;stroke-dasharray:none;stroke-opacity:1"
           id="path4160"
           inkscape:connector-curvature="0" /></g></g><g
       id="g4162"><g
         id="g4164"
         clip-path="url(#clipPath4166)"><path
           d="m 99.938,352 1.652,-1.73 1.67,0.4 1.66,0 1.67,0.33 1.55,-0.11 1.66,1.11 1.67,0.44 1.66,-1.33 1.67,-0.78 1.66,1.56 1.67,-1.22 1.55,-0.4 1.67,0.29 1.66,2.44 1.66,-1.67 1.67,0.56 1.66,-1.22 1.67,-0.11 1.55,0.44 1.67,0.11 1.66,-0.44 1.67,0.88 1.66,2.56 1.67,-3.44 1.66,0.44 1.66,4.44 1.56,-4.88 1.66,0.33 1.67,-0.11 1.66,0.22 1.67,-0.67 1.66,1.78 1.67,-0.55 1.55,-0.89 1.66,3.77 1.67,-3.66 1.66,0 1.67,0 1.66,0.33 1.67,-0.55 1.55,0.22 1.67,-0.45 1.66,3.45 1.67,-1.78 1.66,1.44 1.66,-1.44 1.67,1.44 1.55,-1.66 1.67,-0.34 1.66,3.33 1.67,-1.44 1.66,0.22 1.67,-2.44 1.66,2.22 1.67,-1.77 1.55,-0.23 1.66,0.23 1.67,3.44 1.66,-3.67 1.67,-0.22 1.66,0.22 1.67,-0.11 1.55,0.22 1.67,0 1.66,1.89 1.66,-2.22 1.67,1.44 1.66,-1.88 1.67,0.66 1.55,0 1.67,-0.11 1.66,0.34 1.67,-1 1.66,2.99 1.67,-2.99 1.66,2.44 1.55,-2.55 1.67,0 1.66,0.11 1.67,0 1.66,-0.23 1.67,0.23 1.66,-0.11 1.67,1.77 1.55,-2 1.66,1.78 1.67,-1.55 1.66,0.11 1.67,-0.23 1.66,0 1.67,-0.11 1.55,-0.06 1.67,2.06 1.66,-2 1.67,1.67 1.66,-1.56 1.66,0.45 1.67,0.44 1.55,0 1.67,-0.33 1.66,-0.11 1.67,3.44 1.66,-3 1.67,0.11 1.66,2.45 1.55,-2.67 1.67,0.22 1.66,0.11 1.67,0 1.66,0 1.67,0.34 1.66,2.11 1.67,-1.78 1.55,4.02 1.67,-4.02 1.66,0 1.66,0.11 1.67,0.22 1.66,1 1.67,-0.22 1.55,1.44 1.67,-2.66 1.66,0.33 1.67,-0.11 1.66,0.11 1.67,0.11 1.66,2 1.55,-2 1.67,0.34 1.66,0.11 1.67,0 1.66,-0.34 1.67,3 1.66,-2.11 1.56,-0.33 1.66,0.44 1.66,-0.11 1.67,-0.55 1.66,0.89 1.67,0.44 1.66,-1.33 1.56,-0.45 1.66,0.11 1.67,-0.11 1.66,0.45 1.67,-1.22 1.66,0.66 1.66,-1.22 1.67,1.11 1.55,-1.33 1.67,0.22 1.66,0.11 1.67,-0.33 1.66,-0.11 1.67,0 1.66,3.33 1.55,-3.33 1.67,0 1.66,0.78 1.67,-0.34 1.66,-0.11 1.67,0.33 1.66,0.12 1.56,0.11 1.66,0.55 1.67,2.66 1.66,-1.88 1.66,2.99 1.67,-2.88 1.66,0.22 1.56,-0.22 1.66,0 1.67,-0.11 1.66,0.11 1.67,0.89 1.66,-1.11 1.67,0.22 1.66,0.44 1.55,-0.33 1.67,-0.11 1.66,0.44 1.67,1.22 1.66,-1.66 1.67,0 1.66,0.33 1.56,0.34 1.66,-0.67 1.66,-1.55 1.67,0.33 1.66,-0.78 1.67,0.45 1.66,-0.23 1.56,1.78 1.66,-2 1.67,0.11 1.66,-0.11 1.67,-0.11 1.66,0.11 1.66,0.33 1.61,0.34"
           style="fill:none;stroke:#4472c4;stroke-width:2.08080006;stroke-linecap:round;stroke-linejoin:round;stroke-miterlimit:10;stroke-dasharray:none;stroke-opacity:1"
           id="path4170"
           inkscape:connector-curvature="0" /></g></g><g
       id="g4172"><g
         id="g4174"
         clip-path="url(#clipPath4176)"><text
           transform="matrix(1,0,0,-1,87.192,344.66)"
           style="font-variant:normal;font-weight:normal;font-size:8.32800007px;font-family:Calibri;-inkscape-font-specification:Calibri;writing-mode:lr-tb;fill:#595959;fill-opacity:1;fill-rule:nonzero;stroke:none"
           id="text4180"><tspan
             x="0"
             y="0"
             id="tspan4182">0</tspan></text>
</g></g><g
       id="g4184"><g
         id="g4186"
         clip-path="url(#clipPath4188)"><text
           transform="matrix(1,0,0,-1,82.968,363.29)"
           style="font-variant:normal;font-weight:normal;font-size:8.32800007px;font-family:Calibri;-inkscape-font-specification:Calibri;writing-mode:lr-tb;fill:#595959;fill-opacity:1;fill-rule:nonzero;stroke:none"
           id="text4192"><tspan
             x="0 4.2239962"
             y="0"
             sodipodi:role="line"
             id="tspan4194">50</tspan></text>
</g></g><g
       id="g4196"><g
         id="g4198"
         clip-path="url(#clipPath4200)"><text
           transform="matrix(1,0,0,-1,78.744,381.94)"
           style="font-variant:normal;font-weight:normal;font-size:8.32800007px;font-family:Calibri;-inkscape-font-specification:Calibri;writing-mode:lr-tb;fill:#595959;fill-opacity:1;fill-rule:nonzero;stroke:none"
           id="text4204"><tspan
             x="0 4.2239962 8.4479923"
             y="0"
             sodipodi:role="line"
             id="tspan4206">100</tspan></text>
</g></g><g
       id="g4208"><g
         id="g4210"
         clip-path="url(#clipPath4212)"><text
           transform="matrix(1,0,0,-1,78.744,400.56)"
           style="font-variant:normal;font-weight:normal;font-size:8.32800007px;font-family:Calibri;-inkscape-font-specification:Calibri;writing-mode:lr-tb;fill:#595959;fill-opacity:1;fill-rule:nonzero;stroke:none"
           id="text4216"><tspan
             x="0 4.2239962 8.4479923"
             y="0"
             sodipodi:role="line"
             id="tspan4218">150</tspan></text>
</g></g><g
       id="g4220"><g
         id="g4222"
         clip-path="url(#clipPath4224)"><text
           transform="matrix(1,0,0,-1,78.744,419.21)"
           style="font-variant:normal;font-weight:normal;font-size:8.32800007px;font-family:Calibri;-inkscape-font-specification:Calibri;writing-mode:lr-tb;fill:#595959;fill-opacity:1;fill-rule:nonzero;stroke:none"
           id="text4228"><tspan
             x="0 4.2239962 8.4479923"
             y="0"
             sodipodi:role="line"
             id="tspan4230">200</tspan></text>
</g></g><g
       id="g4232"><g
         id="g4234"
         clip-path="url(#clipPath4236)"><text
           transform="matrix(1,0,0,-1,78.744,437.83)"
           style="font-variant:normal;font-weight:normal;font-size:8.3039999px;font-family:Calibri;-inkscape-font-specification:Calibri;writing-mode:lr-tb;fill:#595959;fill-opacity:1;fill-rule:nonzero;stroke:none"
           id="text4240"><tspan
             x="0 4.2240281 8.4480562"
             y="0"
             sodipodi:role="line"
             id="tspan4242">250</tspan></text>
</g></g><g
       id="g4244"><g
         id="g4246"
         clip-path="url(#clipPath4248)"><text
           transform="matrix(1,0,0,-1,78.744,456.48)"
           style="font-variant:normal;font-weight:normal;font-size:8.32800007px;font-family:Calibri;-inkscape-font-specification:Calibri;writing-mode:lr-tb;fill:#595959;fill-opacity:1;fill-rule:nonzero;stroke:none"
           id="text4252"><tspan
             x="0 4.2239962 8.4479923"
             y="0"
             sodipodi:role="line"
             id="tspan4254">300</tspan></text>
</g></g><g
       id="g4256"><g
         id="g4258"
         clip-path="url(#clipPath4260)"><text
           transform="matrix(1,0,0,-1,97.848,333.84)"
           style="font-variant:normal;font-weight:normal;font-size:8.32800007px;font-family:Calibri;-inkscape-font-specification:Calibri;writing-mode:lr-tb;fill:#595959;fill-opacity:1;fill-rule:nonzero;stroke:none"
           id="text4264"><tspan
             x="0"
             y="0"
             id="tspan4266">1</tspan></text>
</g></g><g
       id="g4268"><g
         id="g4270"
         clip-path="url(#clipPath4272)"><text
           transform="matrix(1,0,0,-1,176.11,333.84)"
           style="font-variant:normal;font-weight:normal;font-size:8.32800007px;font-family:Calibri;-inkscape-font-specification:Calibri;writing-mode:lr-tb;fill:#595959;fill-opacity:1;fill-rule:nonzero;stroke:none"
           id="text4276"><tspan
             x="0 4.2239962 8.4479923"
             y="0"
             sodipodi:role="line"
             id="tspan4278">251</tspan></text>
</g></g><g
       id="g4280"><g
         id="g4282"
         clip-path="url(#clipPath4284)"><text
           transform="matrix(1,0,0,-1,258.6,333.84)"
           style="font-variant:normal;font-weight:normal;font-size:8.32800007px;font-family:Calibri;-inkscape-font-specification:Calibri;writing-mode:lr-tb;fill:#595959;fill-opacity:1;fill-rule:nonzero;stroke:none"
           id="text4288"><tspan
             x="0 4.199996 8.399992"
             y="0"
             sodipodi:role="line"
             id="tspan4290">501</tspan></text>
</g></g><g
       id="g4292"><g
         id="g4294"
         clip-path="url(#clipPath4296)"><text
           transform="matrix(1,0,0,-1,341.09,333.84)"
           style="font-variant:normal;font-weight:normal;font-size:8.32800007px;font-family:Calibri;-inkscape-font-specification:Calibri;writing-mode:lr-tb;fill:#595959;fill-opacity:1;fill-rule:nonzero;stroke:none"
           id="text4300"><tspan
             x="0 4.199996 8.399992"
             y="0"
             sodipodi:role="line"
             id="tspan4302">751</tspan></text>
</g></g><g
       id="g4304"><g
         id="g4306"
         clip-path="url(#clipPath4308)"><text
           transform="matrix(1,0,0,-1,421.46,333.84)"
           style="font-variant:normal;font-weight:normal;font-size:8.32800007px;font-family:Calibri;-inkscape-font-specification:Calibri;writing-mode:lr-tb;fill:#595959;fill-opacity:1;fill-rule:nonzero;stroke:none"
           id="text4312"><tspan
             x="0 4.199996 8.399992 12.599988"
             y="0"
             sodipodi:role="line"
             id="tspan4314">1001</tspan></text>
</g></g><g
       id="g4316"><g
         id="g4318"
         clip-path="url(#clipPath4320)"><text
           transform="matrix(-4.4e-8,1,1,4.4e-8,72.96,371.04)"
           style="font-variant:normal;font-weight:normal;font-size:11.11200047px;font-family:Calibri;-inkscape-font-specification:Calibri;writing-mode:lr-tb;fill:#595959;fill-opacity:1;fill-rule:nonzero;stroke:none"
           id="text4324"><tspan
             x="0 9.545208 12.100968 14.656728 17.179152 19.734913 24.046368 29.580145 34.49165 40.358784 46.225922 52.093056 57.626831"
             y="0"
             sodipodi:role="line"
             id="tspan4326">Millisekunden</tspan></text>
</g></g><g
       id="g4328"><g
         id="g4330"
         clip-path="url(#clipPath4332)"><text
           transform="matrix(1,0,0,-1,231.17,318.24)"
           style="font-variant:normal;font-weight:normal;font-size:11.11200047px;font-family:Calibri;-inkscape-font-specification:Calibri;writing-mode:lr-tb;fill:#595959;fill-opacity:1;fill-rule:nonzero;stroke:none"
           id="text4336"><tspan
             x="0 5.1004081 8.7340317 14.05668 22.935167 28.468945 34.358303 40.225441 49.103928 57.982414 63.516193"
             y="0"
             sodipodi:role="line"
             id="tspan4338">Framenummer</tspan></text>
</g></g><g
       id="g4340"><g
         id="g4342"
         clip-path="url(#clipPath4344)"><text
           transform="matrix(1,0,0,-1,210.58,474.84)"
           style="font-variant:normal;font-weight:normal;font-size:16.65600014px;font-family:Calibri;-inkscape-font-specification:Calibri;writing-mode:lr-tb;fill:#595959;fill-opacity:1;fill-rule:nonzero;stroke:none"
           id="text4348"><tspan
             x="0 10.24344 18.987841 24.500977 31.479839 40.224239 46.770046 53.748913 62.493313 71.237709 75.068588 80.365196 85.944962 89.675903 93.440163 100.41902 109.16342 117.45811 121.37227 128.3678 136.34602 145.09042 150.10387 156.31656 164.61125 168.44212"
             y="0"
             sodipodi:role="line"
             id="tspan4350">Durchschnittliche Laufzeit</tspan></text>
</g></g><path
       d="m 452.57,395.88 17.76,0"
       style="fill:none;stroke:#70ad47;stroke-width:2.08080006;stroke-linecap:round;stroke-linejoin:round;stroke-miterlimit:10;stroke-dasharray:none;stroke-opacity:1"
       id="path4352"
       inkscape:connector-curvature="0" /><g
       id="g4354"><g
         id="g4356"
         clip-path="url(#clipPath4358)"><text
           transform="matrix(1,0,0,-1,472.3,392.66)"
           style="font-variant:normal;font-weight:normal;font-size:11.11200047px;font-family:Calibri;-inkscape-font-specification:Calibri;writing-mode:lr-tb;fill:#595959;fill-opacity:1;fill-rule:nonzero;stroke:none"
           id="text4362"><tspan
             x="0 5.7782402 12.956592 20.090496 23.490768 29.191223 31.746984 37.603008 41.9478 45.348072 51.693024 56.79343"
             y="0"
             sodipodi:role="line"
             id="tspan4364">KNN-Plus-ASB</tspan></text>
</g></g><path
       d="m 452.57,376.91 17.76,0"
       style="fill:none;stroke:#4472c4;stroke-width:2.08080006;stroke-linecap:round;stroke-linejoin:round;stroke-miterlimit:10;stroke-dasharray:none;stroke-opacity:1"
       id="path4366"
       inkscape:connector-curvature="0" /><g
       id="g4368"><g
         id="g4370"
         clip-path="url(#clipPath4372)"><text
           transform="matrix(1,0,0,-1,472.3,373.68)"
           style="font-variant:normal;font-weight:normal;font-size:11.0880003px;font-family:Calibri;-inkscape-font-specification:Calibri;writing-mode:lr-tb;fill:#595959;fill-opacity:1;fill-rule:nonzero;stroke:none"
           id="text4376"><tspan
             x="0 6.4199519 11.53152"
             y="0"
             sodipodi:role="line"
             id="tspan4378">ASB</tspan></text>
</g></g><g
       id="g4380"><g
         id="g4382"
         clip-path="url(#clipPath4384)"><path
           d="m 50.858,303.74 493.61,0 0,193.95 -493.61,0 0,-193.95 z"
           style="fill:none;stroke:#d9d9d9;stroke-width:0.6936;stroke-linecap:butt;stroke-linejoin:round;stroke-miterlimit:10;stroke-dasharray:none;stroke-opacity:1"
           id="path4388"
           inkscape:connector-curvature="0" /></g></g></g></svg>