<?xml version="1.0" encoding="UTF-8" standalone="no"?>
<!-- Created with Inkscape (http://www.inkscape.org/) -->

<svg
   xmlns:dc="http://purl.org/dc/elements/1.1/"
   xmlns:cc="http://creativecommons.org/ns#"
   xmlns:rdf="http://www.w3.org/1999/02/22-rdf-syntax-ns#"
   xmlns:svg="http://www.w3.org/2000/svg"
   xmlns="http://www.w3.org/2000/svg"
   xmlns:sodipodi="http://sodipodi.sourceforge.net/DTD/sodipodi-0.dtd"
   xmlns:inkscape="http://www.inkscape.org/namespaces/inkscape"
   id="svg11379"
   version="1.1"
   inkscape:version="0.91 r13725"
   xml:space="preserve"
   width="544.8255"
   height="256.2926"
   viewBox="0 0 544.82549 256.29259"
   sodipodi:docname="laufzeit.svg"><metadata
     id="metadata11385"><rdf:RDF><cc:Work
         rdf:about=""><dc:format>image/svg+xml</dc:format><dc:type
           rdf:resource="http://purl.org/dc/dcmitype/StillImage" /><dc:title></dc:title></cc:Work></rdf:RDF></metadata><defs
     id="defs11383"><clipPath
       clipPathUnits="userSpaceOnUse"
       id="clipPath11401"><path
         d="m 72,538.2 451.2,0 0,231.72 -451.2,0 0,-231.72 z"
         id="path11403"
         inkscape:connector-curvature="0"
         style="clip-rule:evenodd" /></clipPath><clipPath
       clipPathUnits="userSpaceOnUse"
       id="clipPath11413"><path
         d="m 72,538.2 451.2,0 0,231.72 -451.2,0 0,-231.72 z"
         id="path11415"
         inkscape:connector-curvature="0"
         style="clip-rule:evenodd" /></clipPath><clipPath
       clipPathUnits="userSpaceOnUse"
       id="clipPath11425"><path
         d="m 72,538.2 451.2,0 0,231.72 -451.2,0 0,-231.72 z"
         id="path11427"
         inkscape:connector-curvature="0"
         style="clip-rule:evenodd" /></clipPath><clipPath
       clipPathUnits="userSpaceOnUse"
       id="clipPath11437"><path
         d="m 72,538.2 451.2,0 0,231.72 -451.2,0 0,-231.72 z"
         id="path11439"
         inkscape:connector-curvature="0"
         style="clip-rule:evenodd" /></clipPath><clipPath
       clipPathUnits="userSpaceOnUse"
       id="clipPath11449"><path
         d="m 72,538.2 451.2,0 0,231.72 -451.2,0 0,-231.72 z"
         id="path11451"
         inkscape:connector-curvature="0"
         style="clip-rule:evenodd" /></clipPath><clipPath
       clipPathUnits="userSpaceOnUse"
       id="clipPath11461"><path
         d="m 72,538.2 451.2,0 0,231.72 -451.2,0 0,-231.72 z"
         id="path11463"
         inkscape:connector-curvature="0"
         style="clip-rule:evenodd" /></clipPath><clipPath
       clipPathUnits="userSpaceOnUse"
       id="clipPath11473"><path
         d="m 72,538.2 451.2,0 0,231.72 -451.2,0 0,-231.72 z"
         id="path11475"
         inkscape:connector-curvature="0"
         style="clip-rule:evenodd" /></clipPath><clipPath
       clipPathUnits="userSpaceOnUse"
       id="clipPath11485"><path
         d="m 72,538.2 451.2,0 0,231.72 -451.2,0 0,-231.72 z"
         id="path11487"
         inkscape:connector-curvature="0"
         style="clip-rule:evenodd" /></clipPath><clipPath
       clipPathUnits="userSpaceOnUse"
       id="clipPath11497"><path
         d="m 72,538.2 451.2,0 0,231.72 -451.2,0 0,-231.72 z"
         id="path11499"
         inkscape:connector-curvature="0"
         style="clip-rule:evenodd" /></clipPath><clipPath
       clipPathUnits="userSpaceOnUse"
       id="clipPath11509"><path
         d="m 72,538.2 451.2,0 0,231.72 -451.2,0 0,-231.72 z"
         id="path11511"
         inkscape:connector-curvature="0"
         style="clip-rule:evenodd" /></clipPath><clipPath
       clipPathUnits="userSpaceOnUse"
       id="clipPath11521"><path
         d="m 72,538.2 451.2,0 0,231.72 -451.2,0 0,-231.72 z"
         id="path11523"
         inkscape:connector-curvature="0"
         style="clip-rule:evenodd" /></clipPath><clipPath
       clipPathUnits="userSpaceOnUse"
       id="clipPath11533"><path
         d="m 72,538.2 451.2,0 0,231.72 -451.2,0 0,-231.72 z"
         id="path11535"
         inkscape:connector-curvature="0"
         style="clip-rule:evenodd" /></clipPath><clipPath
       clipPathUnits="userSpaceOnUse"
       id="clipPath11545"><path
         d="m 72,538.2 451.2,0 0,231.72 -451.2,0 0,-231.72 z"
         id="path11547"
         inkscape:connector-curvature="0"
         style="clip-rule:evenodd" /></clipPath><clipPath
       clipPathUnits="userSpaceOnUse"
       id="clipPath11557"><path
         d="m 72,538.2 451.2,0 0,231.72 -451.2,0 0,-231.72 z"
         id="path11559"
         inkscape:connector-curvature="0"
         style="clip-rule:evenodd" /></clipPath><clipPath
       clipPathUnits="userSpaceOnUse"
       id="clipPath11569"><path
         d="m 72,538.2 451.2,0 0,231.72 -451.2,0 0,-231.72 z"
         id="path11571"
         inkscape:connector-curvature="0"
         style="clip-rule:evenodd" /></clipPath><clipPath
       clipPathUnits="userSpaceOnUse"
       id="clipPath11581"><path
         d="m 72,538.2 451.2,0 0,231.72 -451.2,0 0,-231.72 z"
         id="path11583"
         inkscape:connector-curvature="0"
         style="clip-rule:evenodd" /></clipPath><clipPath
       clipPathUnits="userSpaceOnUse"
       id="clipPath11593"><path
         d="m 72,538.2 451.2,0 0,231.72 -451.2,0 0,-231.72 z"
         id="path11595"
         inkscape:connector-curvature="0"
         style="clip-rule:evenodd" /></clipPath><clipPath
       clipPathUnits="userSpaceOnUse"
       id="clipPath11605"><path
         d="m 72,538.2 451.2,0 0,231.72 -451.2,0 0,-231.72 z"
         id="path11607"
         inkscape:connector-curvature="0"
         style="clip-rule:evenodd" /></clipPath><clipPath
       clipPathUnits="userSpaceOnUse"
       id="clipPath11617"><path
         d="m 72,538.2 451.2,0 0,231.72 -451.2,0 0,-231.72 z"
         id="path11619"
         inkscape:connector-curvature="0"
         style="clip-rule:evenodd" /></clipPath><clipPath
       clipPathUnits="userSpaceOnUse"
       id="clipPath11629"><path
         d="m 72,538.2 451.2,0 0,231.72 -451.2,0 0,-231.72 z"
         id="path11631"
         inkscape:connector-curvature="0"
         style="clip-rule:evenodd" /></clipPath><clipPath
       clipPathUnits="userSpaceOnUse"
       id="clipPath11641"><path
         d="m 72,538.2 451.2,0 0,231.72 -451.2,0 0,-231.72 z"
         id="path11643"
         inkscape:connector-curvature="0"
         style="clip-rule:evenodd" /></clipPath><clipPath
       clipPathUnits="userSpaceOnUse"
       id="clipPath11653"><path
         d="m 72,538.2 451.2,0 0,231.72 -451.2,0 0,-231.72 z"
         id="path11655"
         inkscape:connector-curvature="0"
         style="clip-rule:evenodd" /></clipPath><clipPath
       clipPathUnits="userSpaceOnUse"
       id="clipPath11665"><path
         d="m 72,538.2 451.2,0 0,231.72 -451.2,0 0,-231.72 z"
         id="path11667"
         inkscape:connector-curvature="0"
         style="clip-rule:evenodd" /></clipPath><clipPath
       clipPathUnits="userSpaceOnUse"
       id="clipPath11677"><path
         d="m 72,538.2 451.2,0 0,231.72 -451.2,0 0,-231.72 z"
         id="path11679"
         inkscape:connector-curvature="0"
         style="clip-rule:evenodd" /></clipPath><clipPath
       clipPathUnits="userSpaceOnUse"
       id="clipPath11689"><path
         d="m 72,538.2 451.2,0 0,231.72 -451.2,0 0,-231.72 z"
         id="path11691"
         inkscape:connector-curvature="0"
         style="clip-rule:evenodd" /></clipPath><clipPath
       clipPathUnits="userSpaceOnUse"
       id="clipPath11701"><path
         d="m 72,538.2 451.2,0 0,231.72 -451.2,0 0,-231.72 z"
         id="path11703"
         inkscape:connector-curvature="0"
         style="clip-rule:evenodd" /></clipPath><clipPath
       clipPathUnits="userSpaceOnUse"
       id="clipPath11713"><path
         d="m 72,538.2 451.2,0 0,231.72 -451.2,0 0,-231.72 z"
         id="path11715"
         inkscape:connector-curvature="0"
         style="clip-rule:evenodd" /></clipPath><clipPath
       clipPathUnits="userSpaceOnUse"
       id="clipPath11725"><path
         d="m 72,538.2 451.2,0 0,231.72 -451.2,0 0,-231.72 z"
         id="path11727"
         inkscape:connector-curvature="0"
         style="clip-rule:evenodd" /></clipPath><clipPath
       clipPathUnits="userSpaceOnUse"
       id="clipPath11737"><path
         d="m 72,538.2 451.2,0 0,231.72 -451.2,0 0,-231.72 z"
         id="path11739"
         inkscape:connector-curvature="0"
         style="clip-rule:evenodd" /></clipPath><clipPath
       clipPathUnits="userSpaceOnUse"
       id="clipPath11749"><path
         d="m 72,538.2 451.2,0 0,231.72 -451.2,0 0,-231.72 z"
         id="path11751"
         inkscape:connector-curvature="0"
         style="clip-rule:evenodd" /></clipPath><clipPath
       clipPathUnits="userSpaceOnUse"
       id="clipPath11761"><path
         d="m 72,538.2 451.2,0 0,231.72 -451.2,0 0,-231.72 z"
         id="path11763"
         inkscape:connector-curvature="0"
         style="clip-rule:evenodd" /></clipPath><clipPath
       clipPathUnits="userSpaceOnUse"
       id="clipPath11773"><path
         d="m 72,538.2 451.2,0 0,231.72 -451.2,0 0,-231.72 z"
         id="path11775"
         inkscape:connector-curvature="0"
         style="clip-rule:evenodd" /></clipPath><clipPath
       clipPathUnits="userSpaceOnUse"
       id="clipPath11785"><path
         d="m 72,538.2 451.2,0 0,231.72 -451.2,0 0,-231.72 z"
         id="path11787"
         inkscape:connector-curvature="0"
         style="clip-rule:evenodd" /></clipPath><clipPath
       clipPathUnits="userSpaceOnUse"
       id="clipPath11797"><path
         d="m 72,538.2 451.2,0 0,231.72 -451.2,0 0,-231.72 z"
         id="path11799"
         inkscape:connector-curvature="0"
         style="clip-rule:evenodd" /></clipPath><clipPath
       clipPathUnits="userSpaceOnUse"
       id="clipPath11809"><path
         d="m 72,538.2 451.2,0 0,231.72 -451.2,0 0,-231.72 z"
         id="path11811"
         inkscape:connector-curvature="0"
         style="clip-rule:evenodd" /></clipPath><clipPath
       clipPathUnits="userSpaceOnUse"
       id="clipPath11821"><path
         d="m 72,538.2 451.2,0 0,231.72 -451.2,0 0,-231.72 z"
         id="path11823"
         inkscape:connector-curvature="0"
         style="clip-rule:evenodd" /></clipPath><clipPath
       clipPathUnits="userSpaceOnUse"
       id="clipPath11833"><path
         d="m 72,538.2 451.2,0 0,231.72 -451.2,0 0,-231.72 z"
         id="path11835"
         inkscape:connector-curvature="0"
         style="clip-rule:evenodd" /></clipPath><clipPath
       clipPathUnits="userSpaceOnUse"
       id="clipPath11845"><path
         d="m 72,538.2 451.2,0 0,231.72 -451.2,0 0,-231.72 z"
         id="path11847"
         inkscape:connector-curvature="0"
         style="clip-rule:evenodd" /></clipPath><clipPath
       clipPathUnits="userSpaceOnUse"
       id="clipPath11857"><path
         d="m 72,538.2 451.2,0 0,231.72 -451.2,0 0,-231.72 z"
         id="path11859"
         inkscape:connector-curvature="0"
         style="clip-rule:evenodd" /></clipPath><clipPath
       clipPathUnits="userSpaceOnUse"
       id="clipPath11869"><path
         d="m 72,538.2 451.2,0 0,231.72 -451.2,0 0,-231.72 z"
         id="path11871"
         inkscape:connector-curvature="0"
         style="clip-rule:evenodd" /></clipPath><clipPath
       clipPathUnits="userSpaceOnUse"
       id="clipPath11881"><path
         d="m 72,538.2 451.2,0 0,231.72 -451.2,0 0,-231.72 z"
         id="path11883"
         inkscape:connector-curvature="0"
         style="clip-rule:evenodd" /></clipPath><clipPath
       clipPathUnits="userSpaceOnUse"
       id="clipPath11893"><path
         d="m 72,538.2 451.2,0 0,231.72 -451.2,0 0,-231.72 z"
         id="path11895"
         inkscape:connector-curvature="0"
         style="clip-rule:evenodd" /></clipPath><clipPath
       clipPathUnits="userSpaceOnUse"
       id="clipPath11905"><path
         d="m 72,538.2 451.2,0 0,231.72 -451.2,0 0,-231.72 z"
         id="path11907"
         inkscape:connector-curvature="0"
         style="clip-rule:evenodd" /></clipPath><clipPath
       clipPathUnits="userSpaceOnUse"
       id="clipPath11917"><path
         d="m 72,538.2 451.2,0 0,231.72 -451.2,0 0,-231.72 z"
         id="path11919"
         inkscape:connector-curvature="0"
         style="clip-rule:evenodd" /></clipPath><clipPath
       clipPathUnits="userSpaceOnUse"
       id="clipPath11929"><path
         d="m 72,538.2 451.2,0 0,231.72 -451.2,0 0,-231.72 z"
         id="path11931"
         inkscape:connector-curvature="0"
         style="clip-rule:evenodd" /></clipPath><clipPath
       clipPathUnits="userSpaceOnUse"
       id="clipPath11941"><path
         d="m 72,538.2 451.2,0 0,231.72 -451.2,0 0,-231.72 z"
         id="path11943"
         inkscape:connector-curvature="0"
         style="clip-rule:evenodd" /></clipPath><clipPath
       clipPathUnits="userSpaceOnUse"
       id="clipPath11953"><path
         d="m 72,538.2 451.2,0 0,231.72 -451.2,0 0,-231.72 z"
         id="path11955"
         inkscape:connector-curvature="0"
         style="clip-rule:evenodd" /></clipPath><clipPath
       clipPathUnits="userSpaceOnUse"
       id="clipPath11965"><path
         d="m 72,538.2 451.2,0 0,231.72 -451.2,0 0,-231.72 z"
         id="path11967"
         inkscape:connector-curvature="0"
         style="clip-rule:evenodd" /></clipPath><clipPath
       clipPathUnits="userSpaceOnUse"
       id="clipPath11977"><path
         d="m -2.039e-6,528.36 595.320002039,0 0,241.56 -595.320002039,0 0,-241.56 z"
         id="path11979"
         inkscape:connector-curvature="0"
         style="clip-rule:evenodd" /></clipPath></defs><sodipodi:namedview
     pagecolor="#ffffff"
     bordercolor="#666666"
     borderopacity="1"
     objecttolerance="10"
     gridtolerance="10"
     guidetolerance="10"
     inkscape:pageopacity="0"
     inkscape:pageshadow="2"
     inkscape:window-width="1920"
     inkscape:window-height="1059"
     id="namedview11381"
     showgrid="false"
     inkscape:zoom="1.2685458"
     inkscape:cx="368.54843"
     inkscape:cy="218.16221"
     inkscape:window-x="1912"
     inkscape:window-y="-8"
     inkscape:window-maximized="1"
     inkscape:current-layer="g11387"
     fit-margin-top="0"
     fit-margin-left="0"
     fit-margin-right="0"
     fit-margin-bottom="0" /><g
     id="g11387"
     inkscape:groupmode="layer"
     inkscape:label="laufzeit"
     transform="matrix(1.25,0,0,-1.25,-102.75573,948.91696)"><path
       d="m 121.73,601.56 390.57,0 M 121.73,618 512.3,618 m -390.57,16.44 390.57,0 m -390.57,16.44 390.57,0 m -390.57,16.32 390.57,0 m -390.57,16.44 390.57,0 m -390.57,16.44 390.57,0 m -390.57,16.32 390.57,0 m -390.57,16.43 390.57,0"
       style="fill:none;stroke:#d9d9d9;stroke-width:0.75;stroke-linecap:butt;stroke-linejoin:round;stroke-miterlimit:10;stroke-dasharray:none;stroke-opacity:1"
       id="path11391"
       inkscape:connector-curvature="0" /><path
       d="m 121.92,715.56 0.12,0 0,-130.34 -0.12,0 0,130.34 z m 0.36,-9.84 0.12,0 0,-120.5 -0.12,0 0,120.5 z m 0.36,-36 0.12,0 0,-84.5 -0.12,0 0,84.5 z m 0.36,-1.68 0.12,0 0,-82.82 -0.12,0 0,82.82 z m 0.48,9.84 0.12,0 0,-92.66 -0.12,0 0,92.66 z m 0.36,-1.68 0.12,0 0,-90.98 -0.12,0 0,90.98 z m 0.36,0 0.12,0 0,-90.98 -0.12,0 0,90.98 z m 0.36,-4.92 0.12,0 0,-86.06 -0.12,0 0,86.06 z m 0.48,-14.76 0.12,0 0,-71.3 -0.12,0 0,71.3 z m 0.36,13.2 0.12,0 0,-84.5 -0.12,0 0,84.5 z m 0.36,11.4 0.12,0 0,-95.9 -0.12,0 0,95.9 z m 0.36,-10.56 0.12,0 0,-85.34 -0.12,0 0,85.34 z m 0.48,-18.96 0.12,0 0,-66.38 -0.12,0 0,66.38 z m 0.36,12.36 0.12,0 0,-78.74 -0.12,0 0,78.74 z m 0.36,-0.84 0.12,0 0,-77.9 -0.12,0 0,77.9 z m 0.36,-13.92 0.12,0 0,-63.98 -0.12,0 0,63.98 z m 0.48,16.44 0.12,0 0,-80.42 -0.12,0 0,80.42 z m 0.36,-16.44 0.12,0 0,-63.98 -0.12,0 0,63.98 z m 0.36,0 0.12,0 0,-63.98 -0.12,0 0,63.98 z m 0.36,15.6 0.12,0 0,-79.58 -0.12,0 0,79.58 z m 0.48,-40.2 0.12,0 0,-39.38 -0.12,0 0,39.38 z m 0.36,0 0.12,0 0,-39.38 -0.12,0 0,39.38 z m 0.36,0 0.12,0 0,-39.38 -0.12,0 0,39.38 z m 0.36,0 0.12,0 0,-39.38 -0.12,0 0,39.38 z m 0.48,0 0.12,0 0,-39.38 -0.12,0 0,39.38 z m 0.36,11.52 0.12,0 0,-50.9 -0.12,0 0,50.9 z m 0.36,-11.52 0.12,0 0,-39.38 -0.12,0 0,39.38 z m 0.36,2.4 0.12,0 0,-41.78 -0.12,0 0,41.78 z m 0.48,13.2 0.12,0 0,-54.98 -0.12,0 0,54.98 z m 0.36,22.92 0.12,0 0,-77.9 -0.12,0 0,77.9 z m 0.36,-38.52 0.12,0 0,-39.38 -0.12,0 0,39.38 z m 0.36,12.24 0.12,0 0,-51.62 -0.12,0 0,51.62 z m 0.48,-11.4 0.12,0 0,-40.22 -0.12,0 0,40.22 z m 0.36,-0.84 0.12,0 0,-39.38 -0.12,0 0,39.38 z m 0.36,27 0.12,0 0,-66.38 -0.12,0 0,66.38 z m 0.36,-23.76 0.12,0 0,-42.62 -0.12,0 0,42.62 z m 0.48,-3.24 0.12,0 0,-39.38 -0.12,0 0,39.38 z m 0.36,28.68 0.12,0 0,-68.06 -0.12,0 0,68.06 z m 0.36,-28.68 0.12,0 0,-39.38 -0.12,0 0,39.38 z m 0.36,16.44 0.12,0 0,-55.82 -0.12,0 0,55.82 z m 0.48,-16.44 0.12,0 0,-39.38 -0.12,0 0,39.38 z m 0.36,0 0.12,0 0,-39.38 -0.12,0 0,39.38 z m 0.36,2.4 0.12,0 0,-41.78 -0.12,0 0,41.78 z m 0.36,11.52 0.12,0 0,-53.3 -0.12,0 0,53.3 z m 0.48,-13.92 0.12,0 0,-39.38 -0.12,0 0,39.38 z m 0.36,0 0.12,0 0,-39.38 -0.12,0 0,39.38 z m 0.36,12.24 0.12,0 0,-51.62 -0.12,0 0,51.62 z m 0.36,-9 0.12,0 0,-42.62 -0.12,0 0,42.62 z m 0.48,-2.4 0.12,0 0,-40.22 -0.12,0 0,40.22 z m 0.36,11.4 0.12,0 0,-51.62 -0.12,0 0,51.62 z m 0.36,-11.4 0.12,0 0,-40.22 -0.12,0 0,40.22 z m 0.36,-0.84 0.12,0 0,-39.38 -0.12,0 0,39.38 z m 0.48,36.84 0.12,0 0,-76.22 -0.12,0 0,76.22 z m 0.36,-36 0.12,0 0,-40.22 -0.12,0 0,40.22 z m 0.36,0 0.12,0 0,-40.22 -0.12,0 0,40.22 z m 0.36,27 0.12,0 0,-67.22 -0.12,0 0,67.22 z m 0.48,-23.76 0.12,0 0,-43.46 -0.12,0 0,43.46 z m 0.36,13.92 0.12,0 0,-57.38 -0.12,0 0,57.38 z m 0.36,-18 0.12,0 0,-39.38 -0.12,0 0,39.38 z m 0.36,13.92 0.12,0 0,-53.3 -0.12,0 0,53.3 z m 0.48,-10.68 0.12,0 0,-42.62 -0.12,0 0,42.62 z m 0.36,9.84 0.12,0 0,-52.46 -0.12,0 0,52.46 z m 0.36,-12.24 0.12,0 0,-40.22 -0.12,0 0,40.22 z m 0.36,-0.84 0.12,0 0,-39.38 -0.12,0 0,39.38 z m 0.48,13.92 0.12,0 0,-53.3 -0.12,0 0,53.3 z m 0.36,-13.92 0.12,0 0,-39.38 -0.12,0 0,39.38 z m 0.36,0 0.12,0 0,-39.38 -0.12,0 0,39.38 z m 0.36,13.92 0.12,0 0,-53.3 -0.12,0 0,53.3 z m 0.48,-13.08 0.12,0 0,-40.22 -0.12,0 0,40.22 z m 0.36,0 0.12,0 0,-40.22 -0.12,0 0,40.22 z m 0.36,-0.84 0.12,0 0,-39.38 -0.12,0 0,39.38 z m 0.36,1.68 0.12,0 0,-41.06 -0.12,0 0,41.06 z m 0.48,0 0.12,0 0,-41.06 -0.12,0 0,41.06 z m 0.36,25.32 0.12,0 0,-66.38 -0.12,0 0,66.38 z m 0.36,-25.32 0.12,0 0,-41.06 -0.12,0 0,41.06 z m 0.36,33.6 0.12,0 0,-74.66 -0.12,0 0,74.66 z m 0.48,-35.28 0.12,0 0,-39.38 -0.12,0 0,39.38 z m 0.36,0.84 0.12,0 0,-40.22 -0.12,0 0,40.22 z m 0.36,0 0.12,0 0,-40.22 -0.12,0 0,40.22 z m 0.36,24.6 0.12,0 0,-64.82 -0.12,0 0,64.82 z m 0.48,0.84 0.12,0 0,-65.66 -0.12,0 0,65.66 z m 0.36,-23.04 0.12,0 0,-42.62 -0.12,0 0,42.62 z m 0.36,14.76 0.12,0 0,-57.38 -0.12,0 0,57.38 z m 0.36,-17.16 0.12,0 0,-40.22 -0.12,0 0,40.22 z m 0.48,0 0.12,0 0,-40.22 -0.12,0 0,40.22 z m 0.36,13.08 0.12,0 0,-53.3 -0.12,0 0,53.3 z m 0.36,-13.08 0.12,0 0,-40.22 -0.12,0 0,40.22 z m 0.36,0 0.12,0 0,-40.22 -0.12,0 0,40.22 z m 0.48,3.24 0.12,0 0,-43.46 -0.12,0 0,43.46 z m 0.36,-0.84 0.12,0 0,-42.62 -0.12,0 0,42.62 z m 0.36,-1.56 0.12,0 0,-41.06 -0.12,0 0,41.06 z m 0.36,26.16 0.12,0 0,-67.22 -0.12,0 0,67.22 z m 0.48,-27.84 0.12,0 0,-39.38 -0.12,0 0,39.38 z m 0.36,0 0.12,0 0,-39.38 -0.12,0 0,39.38 z m 0.36,-0.84 0.12,0 0,-38.54 -0.12,0 0,38.54 z m 0.36,2.52 0.12,0 0,-41.06 -0.12,0 0,41.06 z m 0.48,-0.84 0.12,0 0,-40.22 -0.12,0 0,40.22 z m 0.36,12.24 0.12,0 0,-52.46 -0.12,0 0,52.46 z m 0.36,31.2 0.12,0 0,-83.66 -0.12,0 0,83.66 z m 0.36,-30.36 0.12,0 0,-53.3 -0.12,0 0,53.3 z m 0.48,-1.68 0.12,0 0,-51.62 -0.12,0 0,51.62 z m 0.36,-13.08 0.12,0 0,-38.54 -0.12,0 0,38.54 z m 0.36,0 0.12,0 0,-38.54 -0.12,0 0,38.54 z m 0.36,40.2 0.12,0 0,-78.74 -0.12,0 0,78.74 z m 0.48,-37.68 0.12,0 0,-41.06 -0.12,0 0,41.06 z m 0.36,-0.84 0.12,0 0,-40.22 -0.12,0 0,40.22 z m 0.36,0 0.12,0 0,-40.22 -0.12,0 0,40.22 z m 0.36,0 0.12,0 0,-40.22 -0.12,0 0,40.22 z m 0.48,0 0.12,0 0,-40.22 -0.12,0 0,40.22 z m 0.36,25.44 0.12,0 0,-65.66 -0.12,0 0,65.66 z m 0.36,-25.44 0.12,0 0,-40.22 -0.12,0 0,40.22 z m 0.36,0 0.12,0 0,-40.22 -0.12,0 0,40.22 z m 0.48,0 0.12,0 0,-40.22 -0.12,0 0,40.22 z m 0.36,0 0.12,0 0,-40.22 -0.12,0 0,40.22 z m 0.36,-0.84 0.12,0 0,-39.38 -0.12,0 0,39.38 z m 0.36,13.08 0.24,0 0,-52.46 -0.24,0 0,52.46 z m 0.48,-13.08 0.12,0 0,-39.38 -0.12,0 0,39.38 z m 0.36,0 0.12,0 0,-39.38 -0.12,0 0,39.38 z m 0.36,13.92 0.12,0 0,-53.3 -0.12,0 0,53.3 z m 0.36,0 0.24,0 0,-53.3 -0.24,0 0,53.3 z m 0.48,-13.08 0.12,0 0,-40.22 -0.12,0 0,40.22 z m 0.36,36.84 0.12,0 0,-77.06 -0.12,0 0,77.06 z m 0.36,-38.52 0.12,0 0,-38.54 -0.12,0 0,38.54 z m 0.36,0.84 0.24,0 0,-39.38 -0.24,0 0,39.38 z m 0.48,2.4 0.12,0 0,-41.78 -0.12,0 0,41.78 z m 0.36,-3.24 0.12,0 0,-38.54 -0.12,0 0,38.54 z m 0.36,18.84 0.12,0 0,-57.38 -0.12,0 0,57.38 z m 0.48,9.84 0.12,0 0,-67.22 -0.12,0 0,67.22 z m 0.36,-28.68 0.12,0 0,-38.54 -0.12,0 0,38.54 z m 0.36,0 0.12,0 0,-38.54 -0.12,0 0,38.54 z m 0.36,0.84 0.12,0 0,-39.38 -0.12,0 0,39.38 z m 0.48,0.84 0.12,0 0,-40.22 -0.12,0 0,40.22 z m 0.36,-0.84 0.12,0 0,-39.38 -0.12,0 0,39.38 z m 0.36,13.08 0.12,0 0,-52.46 -0.12,0 0,52.46 z m 0.36,-13.08 0.12,0 0,-39.38 -0.12,0 0,39.38 z m 0.48,0.84 0.12,0 0,-40.22 -0.12,0 0,40.22 z m 0.36,11.4 0.12,0 0,-51.62 -0.12,0 0,51.62 z m 0.36,-13.08 0.12,0 0,-38.54 -0.12,0 0,38.54 z m 0.36,0.84 0.12,0 0,-39.38 -0.12,0 0,39.38 z m 0.48,26.28 0.12,0 0,-65.66 -0.12,0 0,65.66 z m 0.36,-26.28 0.12,0 0,-39.38 -0.12,0 0,39.38 z m 0.36,0 0.12,0 0,-39.38 -0.12,0 0,39.38 z m 0.36,4.08 0.12,0 0,-43.46 -0.12,0 0,43.46 z m 0.48,-3.24 0.12,0 0,-40.22 -0.12,0 0,40.22 z m 0.36,39.36 0.12,0 0,-79.58 -0.12,0 0,79.58 z m 0.36,-10.68 0.12,0 0,-68.9 -0.12,0 0,68.9 z m 0.36,-29.52 0.12,0 0,-39.38 -0.12,0 0,39.38 z m 0.48,0 0.12,0 0,-39.38 -0.12,0 0,39.38 z m 0.36,3.24 0.12,0 0,-42.62 -0.12,0 0,42.62 z m 0.36,23.04 0.12,0 0,-65.66 -0.12,0 0,65.66 z m 0.36,-26.28 0.12,0 0,-39.38 -0.12,0 0,39.38 z m 0.48,13.92 0.12,0 0,-53.3 -0.12,0 0,53.3 z m 0.36,-13.08 0.12,0 0,-40.22 -0.12,0 0,40.22 z m 0.36,0 0.12,0 0,-40.22 -0.12,0 0,40.22 z m 0.36,17.16 0.12,0 0,-57.38 -0.12,0 0,57.38 z m 0.48,-17.16 0.12,0 0,-40.22 -0.12,0 0,40.22 z m 0.36,0 0.12,0 0,-40.22 -0.12,0 0,40.22 z m 0.36,12.24 0.12,0 0,-52.46 -0.12,0 0,52.46 z m 0.36,-12.24 0.12,0 0,-40.22 -0.12,0 0,40.22 z m 0.48,12.24 0.12,0 0,-52.46 -0.12,0 0,52.46 z m 0.36,-13.08 0.12,0 0,-39.38 -0.12,0 0,39.38 z m 0.36,0 0.12,0 0,-39.38 -0.12,0 0,39.38 z m 0.36,0.84 0.12,0 0,-40.22 -0.12,0 0,40.22 z m 0.48,25.44 0.12,0 0,-65.66 -0.12,0 0,65.66 z m 0.36,-25.44 0.12,0 0,-40.22 -0.12,0 0,40.22 z m 0.36,0 0.12,0 0,-40.22 -0.12,0 0,40.22 z m 0.36,0.84 0.12,0 0,-41.06 -0.12,0 0,41.06 z m 0.48,45.84 0.12,0 0,-86.9 -0.12,0 0,86.9 z m 0.36,-48.36 0.12,0 0,-38.54 -0.12,0 0,38.54 z m 0.36,13.08 0.12,0 0,-51.62 -0.12,0 0,51.62 z m 0.36,-12.24 0.12,0 0,-39.38 -0.12,0 0,39.38 z m 0.48,3.24 0.12,0 0,-42.62 -0.12,0 0,42.62 z m 0.36,33.6 0.12,0 0,-76.22 -0.12,0 0,76.22 z m 0.36,-36.84 0.12,0 0,-39.38 -0.12,0 0,39.38 z m 0.36,0 0.12,0 0,-39.38 -0.12,0 0,39.38 z m 0.48,12.24 0.12,0 0,-51.62 -0.12,0 0,51.62 z m 0.36,-9 0.12,0 0,-42.62 -0.12,0 0,42.62 z m 0.36,-2.4 0.12,0 0,-40.22 -0.12,0 0,40.22 z m 0.36,0 0.12,0 0,-40.22 -0.12,0 0,40.22 z m 0.48,13.08 0.12,0 0,-53.3 -0.12,0 0,53.3 z m 0.36,-13.08 0.12,0 0,-40.22 -0.12,0 0,40.22 z m 0.36,29.52 0.12,0 0,-69.74 -0.12,0 0,69.74 z m 0.36,-31.2 0.12,0 0,-38.54 -0.12,0 0,38.54 z m 0.48,0 0.12,0 0,-38.54 -0.12,0 0,38.54 z m 0.36,4.08 0.12,0 0,-42.62 -0.12,0 0,42.62 z m 0.36,-3.24 0.12,0 0,-39.38 -0.12,0 0,39.38 z m 0.36,-0.84 0.12,0 0,-38.54 -0.12,0 0,38.54 z m 0.48,13.08 0.12,0 0,-51.62 -0.12,0 0,51.62 z m 0.36,-11.4 0.12,0 0,-40.22 -0.12,0 0,40.22 z m 0.36,0 0.12,0 0,-40.22 -0.12,0 0,40.22 z m 0.36,48.36 0.12,0 0,-88.58 -0.12,0 0,88.58 z m 0.48,-50.04 0.12,0 0,-38.54 -0.12,0 0,38.54 z m 0.36,0 0.12,0 0,-38.54 -0.12,0 0,38.54 z m 0.36,13.08 0.12,0 0,-51.62 -0.12,0 0,51.62 z m 0.36,-13.08 0.12,0 0,-38.54 -0.12,0 0,38.54 z m 0.48,25.44 0.12,0 0,-63.98 -0.12,0 0,63.98 z m 0.36,-23.76 0.12,0 0,-40.22 -0.12,0 0,40.22 z m 0.36,0 0.12,0 0,-40.22 -0.12,0 0,40.22 z m 0.36,3.24 0.12,0 0,-43.46 -0.12,0 0,43.46 z m 0.48,37.68 0.12,0 0,-81.14 -0.12,0 0,81.14 z m 0.36,-38.52 0.12,0 0,-42.62 -0.12,0 0,42.62 z m 0.36,-1.56 0.12,0 0,-41.06 -0.12,0 0,41.06 z m 0.36,0 0.12,0 0,-41.06 -0.12,0 0,41.06 z m 0.48,-0.84 0.12,0 0,-40.22 -0.12,0 0,40.22 z m 0.36,-0.84 0.12,0 0,-39.38 -0.12,0 0,39.38 z m 0.36,13.08 0.12,0 0,-52.46 -0.12,0 0,52.46 z m 0.36,-13.08 0.12,0 0,-39.38 -0.12,0 0,39.38 z m 0.48,-0.84 0.12,0 0,-38.54 -0.12,0 0,38.54 z m 0.36,14.76 0.12,0 0,-53.3 -0.12,0 0,53.3 z m 0.36,-13.08 0.12,0 0,-40.22 -0.12,0 0,40.22 z m 0.36,0.84 0.12,0 0,-41.06 -0.12,0 0,41.06 z m 0.48,11.4 0.12,0 0,-52.46 -0.12,0 0,52.46 z m 0.36,-13.08 0.12,0 0,-39.38 -0.12,0 0,39.38 z m 0.36,33.6 0.12,0 0,-72.98 -0.12,0 0,72.98 z m 0.36,-33.6 0.12,0 0,-39.38 -0.12,0 0,39.38 z m 0.48,0 0.12,0 0,-39.38 -0.12,0 0,39.38 z m 0.36,0 0.12,0 0,-39.38 -0.12,0 0,39.38 z m 0.36,26.28 0.12,0 0,-65.66 -0.12,0 0,65.66 z m 0.36,-15.6 0.12,0 0,-50.06 -0.12,0 0,50.06 z m 0.48,2.4 0.12,0 0,-52.46 -0.12,0 0,52.46 z m 0.36,-13.92 0.12,0 0,-38.54 -0.12,0 0,38.54 z m 0.36,0.84 0.12,0 0,-39.38 -0.12,0 0,39.38 z m 0.36,0 0.12,0 0,-39.38 -0.12,0 0,39.38 z m 0.48,13.08 0.12,0 0,-52.46 -0.12,0 0,52.46 z m 0.36,-13.08 0.12,0 0,-39.38 -0.12,0 0,39.38 z m 0.36,0 0.12,0 0,-39.38 -0.12,0 0,39.38 z m 0.36,12.24 0.12,0 0,-51.62 -0.12,0 0,51.62 z m 0.48,-9.84 0.12,0 0,-41.78 -0.12,0 0,41.78 z m 0.36,-2.4 0.12,0 0,-39.38 -0.12,0 0,39.38 z m 0.36,11.52 0.12,0 0,-50.9 -0.12,0 0,50.9 z m 0.36,-11.52 0.12,0 0,-39.38 -0.12,0 0,39.38 z m 0.48,-0.84 0.12,0 0,-38.54 -0.12,0 0,38.54 z m 0.36,4.92 0.12,0 0,-43.46 -0.12,0 0,43.46 z m 0.36,-4.08 0.12,0 0,-39.38 -0.12,0 0,39.38 z m 0.36,0.84 0.12,0 0,-40.22 -0.12,0 0,40.22 z m 0.48,25.44 0.12,0 0,-65.66 -0.12,0 0,65.66 z m 0.36,10.56 0.12,0 0,-76.22 -0.12,0 0,76.22 z m 0.36,-34.44 0.12,0 0,-41.78 -0.12,0 0,41.78 z m 0.36,-1.56 0.12,0 0,-40.22 -0.12,0 0,40.22 z m 0.48,15.6 0.12,0 0,-55.82 -0.12,0 0,55.82 z m 0.36,-16.44 0.12,0 0,-39.38 -0.12,0 0,39.38 z m 0.36,37.68 0.12,0 0,-77.06 -0.12,0 0,77.06 z m 0.36,-36.84 0.12,0 0,-40.22 -0.12,0 0,40.22 z m 0.48,0 0.12,0 0,-40.22 -0.12,0 0,40.22 z m 0.36,11.4 0.12,0 0,-51.62 -0.12,0 0,51.62 z m 0.36,-12.24 0.12,0 0,-39.38 -0.12,0 0,39.38 z m 0.36,0 0.12,0 0,-39.38 -0.12,0 0,39.38 z m 0.48,12.24 0.12,0 0,-51.62 -0.12,0 0,51.62 z m 0.36,-12.24 0.12,0 0,-39.38 -0.12,0 0,39.38 z m 0.36,0 0.12,0 0,-39.38 -0.12,0 0,39.38 z m 0.36,0 0.12,0 0,-39.38 -0.12,0 0,39.38 z m 0.48,0 0.12,0 0,-39.38 -0.12,0 0,39.38 z m 0.36,0 0.12,0 0,-39.38 -0.12,0 0,39.38 z m 0.36,25.44 0.12,0 0,-64.82 -0.12,0 0,64.82 z m 0.36,-25.44 0.12,0 0,-39.38 -0.12,0 0,39.38 z m 0.48,0 0.12,0 0,-39.38 -0.12,0 0,39.38 z m 0.36,0 0.12,0 0,-39.38 -0.12,0 0,39.38 z m 0.36,0 0.12,0 0,-39.38 -0.12,0 0,39.38 z m 0.36,0 0.12,0 0,-39.38 -0.12,0 0,39.38 z m 0.48,49.2 0.12,0 0,-88.58 -0.12,0 0,88.58 z m 0.36,-50.04 0.12,0 0,-38.54 -0.12,0 0,38.54 z m 0.36,3.24 0.12,0 0,-41.78 -0.12,0 0,41.78 z m 0.36,10.68 0.12,0 0,-52.46 -0.12,0 0,52.46 z m 0.48,-13.08 0.12,0 0,-39.38 -0.12,0 0,39.38 z m 0.36,23.76 0.12,0 0,-63.14 -0.12,0 0,63.14 z m 0.36,-11.52 0.12,0 0,-51.62 -0.12,0 0,51.62 z m 0.36,-11.4 0.12,0 0,-40.22 -0.12,0 0,40.22 z m 0.48,-0.84 0.12,0 0,-39.38 -0.12,0 0,39.38 z m 0.36,3.24 0.12,0 0,-42.62 -0.12,0 0,42.62 z m 0.36,-3.24 0.12,0 0,-39.38 -0.12,0 0,39.38 z m 0.36,4.08 0.12,0 0,-43.46 -0.12,0 0,43.46 z m 0.48,22.2 0.12,0 0,-65.66 -0.12,0 0,65.66 z m 0.36,-24.6 0.12,0 0,-41.06 -0.12,0 0,41.06 z m 0.36,-0.84 0.12,0 0,-40.22 -0.12,0 0,40.22 z m 0.36,-0.84 0.12,0 0,-39.38 -0.12,0 0,39.38 z m 0.48,0 0.12,0 0,-39.38 -0.12,0 0,39.38 z m 0.36,0 0.12,0 0,-39.38 -0.12,0 0,39.38 z m 0.36,12.24 0.12,0 0,-51.62 -0.12,0 0,51.62 z m 0.36,-11.4 0.12,0 0,-40.22 -0.12,0 0,40.22 z m 0.48,13.08 0.12,0 0,-53.3 -0.12,0 0,53.3 z m 0.36,-0.84 0.12,0 0,-52.46 -0.12,0 0,52.46 z m 0.36,-13.08 0.12,0 0,-39.38 -0.12,0 0,39.38 z m 0.36,32.76 0.12,0 0,-72.14 -0.12,0 0,72.14 z m 0.48,-18 0.12,0 0,-54.14 -0.12,0 0,54.14 z m 0.36,-14.76 0.12,0 0,-39.38 -0.12,0 0,39.38 z m 0.36,0 0.12,0 0,-39.38 -0.12,0 0,39.38 z m 0.36,0 0.24,0 0,-39.38 -0.24,0 0,39.38 z m 0.48,27 0.12,0 0,-66.38 -0.12,0 0,66.38 z m 0.36,-26.16 0.12,0 0,-40.22 -0.12,0 0,40.22 z m 0.36,28.68 0.12,0 0,-68.9 -0.12,0 0,68.9 z m 0.36,-27.84 0.24,0 0,-41.06 -0.24,0 0,41.06 z m 0.48,0 0.12,0 0,-41.06 -0.12,0 0,41.06 z m 0.36,-0.84 0.12,0 0,-40.22 -0.12,0 0,40.22 z m 0.36,0 0.12,0 0,-40.22 -0.12,0 0,40.22 z m 0.36,0 0.24,0 0,-40.22 -0.24,0 0,40.22 z m 0.48,13.08 0.12,0 0,-53.3 -0.12,0 0,53.3 z m 0.36,-13.08 0.12,0 0,-40.22 -0.12,0 0,40.22 z m 0.36,0 0.12,0 0,-40.22 -0.12,0 0,40.22 z m 0.48,13.08 0.12,0 0,-53.3 -0.12,0 0,53.3 z m 0.36,3.24 0.12,0 0,-56.54 -0.12,0 0,56.54 z m 0.36,-9.84 0.12,0 0,-46.7 -0.12,0 0,46.7 z m 0.36,14.76 0.12,0 0,-61.46 -0.12,0 0,61.46 z m 0.48,-9 0.12,0 0,-52.46 -0.12,0 0,52.46 z m 0.36,-1.56 0.12,0 0,-50.9 -0.12,0 0,50.9 z m 0.36,0 0.12,0 0,-50.9 -0.12,0 0,50.9 z m 0.36,22.08 0.12,0 0,-72.98 -0.12,0 0,72.98 z m 0.48,-23.76 0.12,0 0,-49.22 -0.12,0 0,49.22 z m 0.36,21.36 0.12,0 0,-70.58 -0.12,0 0,70.58 z m 0.36,-22.2 0.12,0 0,-48.38 -0.12,0 0,48.38 z m 0.36,0 0.12,0 0,-48.38 -0.12,0 0,48.38 z m 0.48,3.24 0.12,0 0,-51.62 -0.12,0 0,51.62 z m 0.36,-4.08 0.12,0 0,-47.54 -0.12,0 0,47.54 z m 0.36,-0.84 0.12,0 0,-46.7 -0.12,0 0,46.7 z m 0.36,12.36 0.12,0 0,-59.06 -0.12,0 0,59.06 z m 0.48,-12.36 0.12,0 0,-46.7 -0.12,0 0,46.7 z m 0.36,0 0.12,0 0,-46.7 -0.12,0 0,46.7 z m 0.36,11.52 0.12,0 0,-58.22 -0.12,0 0,58.22 z m 0.36,-13.08 0.12,0 0,-45.14 -0.12,0 0,45.14 z m 0.48,0.84 0.12,0 0,-45.98 -0.12,0 0,45.98 z m 0.36,24.6 0.12,0 0,-70.58 -0.12,0 0,70.58 z m 0.36,-25.44 0.12,0 0,-45.14 -0.12,0 0,45.14 z m 0.36,-0.84 0.12,0 0,-44.3 -0.12,0 0,44.3 z m 0.48,1.68 0.12,0 0,-45.98 -0.12,0 0,45.98 z m 0.36,0 0.12,0 0,-45.98 -0.12,0 0,45.98 z m 0.36,-0.84 0.12,0 0,-45.14 -0.12,0 0,45.14 z m 0.36,26.16 0.12,0 0,-71.3 -0.12,0 0,71.3 z m 0.48,-24.6 0.12,0 0,-46.7 -0.12,0 0,46.7 z m 0.36,0 0.12,0 0,-46.7 -0.12,0 0,46.7 z m 0.36,32.04 0.12,0 0,-78.74 -0.12,0 0,78.74 z m 0.36,-32.04 0.12,0 0,-46.7 -0.12,0 0,46.7 z m 0.48,-0.72 0.12,0 0,-45.98 -0.12,0 0,45.98 z m 0.36,13.92 0.12,0 0,-59.9 -0.12,0 0,59.9 z m 0.36,-13.2 0.12,0 0,-46.7 -0.12,0 0,46.7 z m 0.36,18.12 0.12,0 0,-64.82 -0.12,0 0,64.82 z m 0.48,-4.08 0.12,0 0,-60.74 -0.12,0 0,60.74 z m 0.36,-14.76 0.12,0 0,-45.98 -0.12,0 0,45.98 z m 0.36,-0.84 0.12,0 0,-45.14 -0.12,0 0,45.14 z m 0.36,13.92 0.12,0 0,-59.06 -0.12,0 0,59.06 z m 0.48,-13.92 0.12,0 0,-45.14 -0.12,0 0,45.14 z m 0.36,13.08 0.12,0 0,-58.22 -0.12,0 0,58.22 z m 0.36,-11.52 0.12,0 0,-46.7 -0.12,0 0,46.7 z m 0.36,0.84 0.12,0 0,-47.54 -0.12,0 0,47.54 z m 0.48,0 0.12,0 0,-47.54 -0.12,0 0,47.54 z m 0.36,23.04 0.12,0 0,-70.58 -0.12,0 0,70.58 z m 0.36,-22.2 0.12,0 0,-48.38 -0.12,0 0,48.38 z m 0.36,1.68 0.12,0 0,-50.06 -0.12,0 0,50.06 z m 0.48,1.56 0.12,0 0,-51.62 -0.12,0 0,51.62 z m 0.36,-0.72 0.12,0 0,-50.9 -0.12,0 0,50.9 z m 0.36,-0.84 0.12,0 0,-50.06 -0.12,0 0,50.06 z m 0.36,12.24 0.12,0 0,-62.3 -0.12,0 0,62.3 z m 0.48,-12.24 0.12,0 0,-50.06 -0.12,0 0,50.06 z m 0.36,14.76 0.12,0 0,-64.82 -0.12,0 0,64.82 z m 0.36,-9.84 0.12,0 0,-54.98 -0.12,0 0,54.98 z m 0.36,-14.76 0.12,0 0,-40.22 -0.12,0 0,40.22 z m 0.48,-0.84 0.12,0 0,-39.38 -0.12,0 0,39.38 z m 0.36,13.08 0.12,0 0,-52.46 -0.12,0 0,52.46 z m 0.36,8.28 0.12,0 0,-60.74 -0.12,0 0,60.74 z m 0.36,-20.52 0.12,0 0,-40.22 -0.12,0 0,40.22 z m 0.48,0.84 0.12,0 0,-41.06 -0.12,0 0,41.06 z m 0.36,11.4 0.12,0 0,-52.46 -0.12,0 0,52.46 z m 0.36,-12.24 0.12,0 0,-40.22 -0.12,0 0,40.22 z m 0.36,24.6 0.12,0 0,-64.82 -0.12,0 0,64.82 z m 0.48,-24.6 0.12,0 0,-40.22 -0.12,0 0,40.22 z m 0.36,-0.84 0.12,0 0,-39.38 -0.12,0 0,39.38 z m 0.36,0 0.12,0 0,-39.38 -0.12,0 0,39.38 z m 0.36,0.84 0.12,0 0,-40.22 -0.12,0 0,40.22 z m 0.48,0 0.12,0 0,-40.22 -0.12,0 0,40.22 z m 0.36,11.4 0.12,0 0,-51.62 -0.12,0 0,51.62 z m 0.36,-12.24 0.12,0 0,-39.38 -0.12,0 0,39.38 z m 0.36,0 0.12,0 0,-39.38 -0.12,0 0,39.38 z m 0.48,13.08 0.12,0 0,-52.46 -0.12,0 0,52.46 z m 0.36,-13.08 0.12,0 0,-39.38 -0.12,0 0,39.38 z m 0.36,1.68 0.12,0 0,-41.06 -0.12,0 0,41.06 z m 0.36,11.4 0.12,0 0,-52.46 -0.12,0 0,52.46 z m 0.48,7.44 0.12,0 0,-59.9 -0.12,0 0,59.9 z m 0.36,-12.36 0.12,0 0,-47.54 -0.12,0 0,47.54 z m 0.36,-8.16 0.12,0 0,-39.38 -0.12,0 0,39.38 z m 0.36,1.68 0.12,0 0,-41.06 -0.12,0 0,41.06 z m 0.48,0.72 0.12,0 0,-41.78 -0.12,0 0,41.78 z m 0.36,62.4 0.12,0 0,-104.18 -0.12,0 0,104.18 z m 0.36,-63.96 0.12,0 0,-40.22 -0.12,0 0,40.22 z m 0.36,4.08 0.12,0 0,-44.3 -0.12,0 0,44.3 z m 0.48,0 0.12,0 0,-44.3 -0.12,0 0,44.3 z m 0.36,-3.24 0.12,0 0,-41.06 -0.12,0 0,41.06 z m 0.36,0.72 0.12,0 0,-41.78 -0.12,0 0,41.78 z m 0.36,14.76 0.12,0 0,-56.54 -0.12,0 0,56.54 z m 0.48,-16.32 0.12,0 0,-40.22 -0.12,0 0,40.22 z m 0.36,-0.84 0.12,0 0,-39.38 -0.12,0 0,39.38 z m 0.36,18.84 0.12,0 0,-58.22 -0.12,0 0,58.22 z m 0.36,-18 0.12,0 0,-40.22 -0.12,0 0,40.22 z m 0.48,4.08 0.12,0 0,-44.3 -0.12,0 0,44.3 z m 0.36,12.24 0.12,0 0,-56.54 -0.12,0 0,56.54 z m 0.36,-14.76 0.12,0 0,-41.78 -0.12,0 0,41.78 z m 0.36,-1.56 0.12,0 0,-40.22 -0.12,0 0,40.22 z m 0.48,-0.84 0.12,0 0,-39.38 -0.12,0 0,39.38 z m 0.36,0 0.12,0 0,-39.38 -0.12,0 0,39.38 z m 0.36,0.84 0.12,0 0,-40.22 -0.12,0 0,40.22 z m 0.36,55.68 0.12,0 0,-95.9 -0.12,0 0,95.9 z m 0.48,-57.36 0.12,0 0,-38.54 -0.12,0 0,38.54 z m 0.36,13.92 0.12,0 0,-52.46 -0.12,0 0,52.46 z m 0.36,-13.08 0.12,0 0,-39.38 -0.12,0 0,39.38 z m 0.36,0 0.12,0 0,-39.38 -0.12,0 0,39.38 z m 0.48,19.68 0.12,0 0,-59.06 -0.12,0 0,59.06 z m 0.36,-5.76 0.12,0 0,-53.3 -0.12,0 0,53.3 z m 0.36,-14.76 0.12,0 0,-38.54 -0.12,0 0,38.54 z m 0.36,0.84 0.12,0 0,-39.38 -0.12,0 0,39.38 z m 0.48,12.24 0.12,0 0,-51.62 -0.12,0 0,51.62 z m 0.36,-13.08 0.12,0 0,-38.54 -0.12,0 0,38.54 z m 0.36,1.68 0.12,0 0,-40.22 -0.12,0 0,40.22 z m 0.36,12.24 0.12,0 0,-52.46 -0.12,0 0,52.46 z m 0.48,-13.92 0.12,0 0,-38.54 -0.12,0 0,38.54 z m 0.36,3.24 0.12,0 0,-41.78 -0.12,0 0,41.78 z m 0.36,0 0.12,0 0,-41.78 -0.12,0 0,41.78 z m 0.36,-2.4 0.12,0 0,-39.38 -0.12,0 0,39.38 z m 0.48,1.68 0.12,0 0,-41.06 -0.12,0 0,41.06 z m 0.36,22.92 0.12,0 0,-63.98 -0.12,0 0,63.98 z m 0.36,-25.44 0.12,0 0,-38.54 -0.12,0 0,38.54 z m 0.36,0 0.12,0 0,-38.54 -0.12,0 0,38.54 z m 0.48,0 0.12,0 0,-38.54 -0.12,0 0,38.54 z m 0.36,12.36 0.12,0 0,-50.9 -0.12,0 0,50.9 z m 0.36,22.92 0.12,0 0,-73.82 -0.12,0 0,73.82 z m 0.36,-22.92 0.12,0 0,-50.9 -0.12,0 0,50.9 z m 0.48,-11.52 0.12,0 0,-39.38 -0.12,0 0,39.38 z m 0.36,0 0.12,0 0,-39.38 -0.12,0 0,39.38 z m 0.36,15.6 0.12,0 0,-54.98 -0.12,0 0,54.98 z m 0.36,8.16 0.12,0 0,-63.14 -0.12,0 0,63.14 z m 0.48,-24.6 0.12,0 0,-38.54 -0.12,0 0,38.54 z m 0.36,13.08 0.12,0 0,-51.62 -0.12,0 0,51.62 z m 0.36,-12.24 0.12,0 0,-39.38 -0.12,0 0,39.38 z m 0.36,0 0.12,0 0,-39.38 -0.12,0 0,39.38 z m 0.48,1.68 0.12,0 0,-41.06 -0.12,0 0,41.06 z m 0.36,-1.68 0.12,0 0,-39.38 -0.12,0 0,39.38 z m 0.36,0 0.12,0 0,-39.38 -0.12,0 0,39.38 z m 0.36,25.44 0.12,0 0,-64.82 -0.12,0 0,64.82 z m 0.48,-26.28 0.12,0 0,-38.54 -0.12,0 0,38.54 z m 0.36,0 0.12,0 0,-38.54 -0.12,0 0,38.54 z m 0.36,1.68 0.12,0 0,-40.22 -0.12,0 0,40.22 z m 0.36,-0.84 0.12,0 0,-39.38 -0.12,0 0,39.38 z m 0.48,0 0.12,0 0,-39.38 -0.12,0 0,39.38 z m 0.36,24.6 0.12,0 0,-63.98 -0.12,0 0,63.98 z m 0.36,-24.6 0.12,0 0,-39.38 -0.12,0 0,39.38 z m 0.36,-0.84 0.12,0 0,-38.54 -0.12,0 0,38.54 z m 0.48,15.6 0.12,0 0,-54.14 -0.12,0 0,54.14 z m 0.36,17.16 0.12,0 0,-71.3 -0.12,0 0,71.3 z m 0.36,-32.76 0.12,0 0,-38.54 -0.12,0 0,38.54 z m 0.36,15.6 0.12,0 0,-54.14 -0.12,0 0,54.14 z m 0.48,-9.84 0.12,0 0,-44.3 -0.12,0 0,44.3 z m 0.36,-3.24 0.12,0 0,-41.06 -0.12,0 0,41.06 z m 0.36,24.6 0.12,0 0,-65.66 -0.12,0 0,65.66 z M 297,627 l 0.12,0 0,-41.78 -0.12,0 0,41.78 z m 0.48,0 0.12,0 0,-41.78 -0.12,0 0,41.78 z m 0.36,26.28 0.12,0 0,-68.06 -0.12,0 0,68.06 z m 0.36,-26.28 0.12,0 0,-41.78 -0.12,0 0,41.78 z m 0.36,0.84 0.24,0 0,-42.62 -0.24,0 0,42.62 z m 0.48,1.68 0.12,0 0,-44.3 -0.12,0 0,44.3 z m 0.36,1.68 0.12,0 0,-45.98 -0.12,0 0,45.98 z m 0.36,0.72 0.12,0 0,-46.7 -0.12,0 0,46.7 z m 0.36,14.04 0.24,0 0,-60.74 -0.24,0 0,60.74 z m 0.48,-11.52 0.12,0 0,-49.22 -0.12,0 0,49.22 z m 0.36,11.52 0.12,0 0,-60.74 -0.12,0 0,60.74 z m 0.36,-0.84 0.12,0 0,-59.9 -0.12,0 0,59.9 z m 0.36,-13.2 0.24,0 0,-46.7 -0.24,0 0,46.7 z m 0.48,1.68 0.12,0 0,-48.38 -0.12,0 0,48.38 z m 0.36,11.52 0.12,0 0,-59.9 -0.12,0 0,59.9 z m 0.36,-13.92 0.12,0 0,-45.98 -0.12,0 0,45.98 z m 0.36,0 0.24,0 0,-45.98 -0.24,0 0,45.98 z m 0.48,31.92 0.12,0 0,-77.9 -0.12,0 0,77.9 z m 0.36,-31.92 0.12,0 0,-45.98 -0.12,0 0,45.98 z m 0.36,0 0.12,0 0,-45.98 -0.12,0 0,45.98 z m 0.48,22.92 0.12,0 0,-68.9 -0.12,0 0,68.9 z m 0.36,-24.6 0.12,0 0,-44.3 -0.12,0 0,44.3 z m 0.36,9 0.12,0 0,-53.3 -0.12,0 0,53.3 z m 0.36,-7.32 0.12,0 0,-45.98 -0.12,0 0,45.98 z m 0.48,-1.68 0.12,0 0,-44.3 -0.12,0 0,44.3 z m 0.36,0 0.12,0 0,-44.3 -0.12,0 0,44.3 z m 0.36,11.52 0.12,0 0,-55.82 -0.12,0 0,55.82 z m 0.36,-11.52 0.12,0 0,-44.3 -0.12,0 0,44.3 z m 0.48,0.84 0.12,0 0,-45.14 -0.12,0 0,45.14 z m 0.36,14.76 0.12,0 0,-59.9 -0.12,0 0,59.9 z m 0.36,-0.84 0.12,0 0,-59.06 -0.12,0 0,59.06 z m 0.36,-13.92 0.12,0 0,-45.14 -0.12,0 0,45.14 z m 0.48,13.08 0.12,0 0,-58.22 -0.12,0 0,58.22 z m 0.36,-12.24 0.12,0 0,-45.98 -0.12,0 0,45.98 z m 0.36,0 0.12,0 0,-45.98 -0.12,0 0,45.98 z m 0.36,0 0.12,0 0,-45.98 -0.12,0 0,45.98 z m 0.48,-0.84 0.12,0 0,-45.14 -0.12,0 0,45.14 z m 0.36,2.4 0.12,0 0,-47.54 -0.12,0 0,47.54 z m 0.36,26.28 0.12,0 0,-73.82 -0.12,0 0,73.82 z m 0.36,-27.12 0.12,0 0,-46.7 -0.12,0 0,46.7 z m 0.48,22.2 0.12,0 0,-68.9 -0.12,0 0,68.9 z m 0.36,-21.36 0.12,0 0,-47.54 -0.12,0 0,47.54 z m 0.36,0 0.12,0 0,-47.54 -0.12,0 0,47.54 z m 0.36,0 0.12,0 0,-47.54 -0.12,0 0,47.54 z m 0.48,14.76 0.12,0 0,-62.3 -0.12,0 0,62.3 z m 0.36,-9.84 0.12,0 0,-52.46 -0.12,0 0,52.46 z m 0.36,-4.92 0.12,0 0,-47.54 -0.12,0 0,47.54 z m 0.36,12.36 0.12,0 0,-59.9 -0.12,0 0,59.9 z m 0.48,-11.52 0.12,0 0,-48.38 -0.12,0 0,48.38 z m 0.36,0 0.12,0 0,-48.38 -0.12,0 0,48.38 z m 0.36,24.6 0.12,0 0,-72.98 -0.12,0 0,72.98 z m 0.36,-24.6 0.12,0 0,-48.38 -0.12,0 0,48.38 z m 0.48,-0.84 0.12,0 0,-47.54 -0.12,0 0,47.54 z m 0.36,0 0.12,0 0,-47.54 -0.12,0 0,47.54 z m 0.36,-0.84 0.12,0 0,-46.7 -0.12,0 0,46.7 z m 0.36,0.84 0.12,0 0,-47.54 -0.12,0 0,47.54 z m 0.48,25.44 0.12,0 0,-72.98 -0.12,0 0,72.98 z m 0.36,-26.28 0.12,0 0,-46.7 -0.12,0 0,46.7 z m 0.36,-0.72 0.12,0 0,-45.98 -0.12,0 0,45.98 z m 0.36,0.72 0.12,0 0,-46.7 -0.12,0 0,46.7 z m 0.48,0 0.12,0 0,-46.7 -0.12,0 0,46.7 z m 0.36,0 0.12,0 0,-46.7 -0.12,0 0,46.7 z m 0.36,11.52 0.12,0 0,-58.22 -0.12,0 0,58.22 z m 0.36,7.44 0.12,0 0,-65.66 -0.12,0 0,65.66 z m 0.48,-20.52 0.12,0 0,-45.14 -0.12,0 0,45.14 z m 0.36,12.24 0.12,0 0,-57.38 -0.12,0 0,57.38 z m 0.36,-13.08 0.12,0 0,-44.3 -0.12,0 0,44.3 z m 0.36,0 0.12,0 0,-44.3 -0.12,0 0,44.3 z m 0.48,27.84 0.12,0 0,-72.14 -0.12,0 0,72.14 z m 0.36,-27.84 0.12,0 0,-44.3 -0.12,0 0,44.3 z m 0.36,13.92 0.12,0 0,-58.22 -0.12,0 0,58.22 z m 0.36,-13.92 0.12,0 0,-44.3 -0.12,0 0,44.3 z m 0.48,0 0.12,0 0,-44.3 -0.12,0 0,44.3 z m 0.36,0.84 0.12,0 0,-45.14 -0.12,0 0,45.14 z m 0.36,24.6 0.12,0 0,-69.74 -0.12,0 0,69.74 z m 0.36,-26.28 0.12,0 0,-43.46 -0.12,0 0,43.46 z m 0.48,-0.84 0.12,0 0,-42.62 -0.12,0 0,42.62 z m 0.36,0.84 0.12,0 0,-43.46 -0.12,0 0,43.46 z m 0.36,-1.68 0.12,0 0,-41.78 -0.12,0 0,41.78 z m 0.36,-1.56 0.12,0 0,-40.22 -0.12,0 0,40.22 z m 0.48,13.08 0.12,0 0,-53.3 -0.12,0 0,53.3 z m 0.36,-10.68 0.12,0 0,-42.62 -0.12,0 0,42.62 z m 0.36,-0.84 0.12,0 0,-41.78 -0.12,0 0,41.78 z m 0.36,14.04 0.12,0 0,-55.82 -0.12,0 0,55.82 z m 0.48,-12.36 0.12,0 0,-43.46 -0.12,0 0,43.46 z m 0.36,-1.68 0.12,0 0,-41.78 -0.12,0 0,41.78 z m 0.36,39.36 0.12,0 0,-81.14 -0.12,0 0,81.14 z m 0.36,-39.36 0.12,0 0,-41.78 -0.12,0 0,41.78 z m 0.48,0 0.12,0 0,-41.78 -0.12,0 0,41.78 z m 0.36,-0.72 0.12,0 0,-41.06 -0.12,0 0,41.06 z m 0.36,13.08 0.12,0 0,-54.14 -0.12,0 0,54.14 z m 0.36,4.92 0.12,0 0,-59.06 -0.12,0 0,59.06 z m 0.48,9 0.12,0 0,-68.06 -0.12,0 0,68.06 z m 0.36,-24.6 0.12,0 0,-43.46 -0.12,0 0,43.46 z m 0.36,-2.4 0.12,0 0,-41.06 -0.12,0 0,41.06 z m 0.36,1.56 0.12,0 0,-42.62 -0.12,0 0,42.62 z m 0.48,-0.84 0.12,0 0,-41.78 -0.12,0 0,41.78 z m 0.36,-0.72 0.12,0 0,-41.06 -0.12,0 0,41.06 z m 0.36,13.08 0.12,0 0,-54.14 -0.12,0 0,54.14 z m 0.36,-13.08 0.12,0 0,-41.06 -0.12,0 0,41.06 z m 0.48,0 0.12,0 0,-41.06 -0.12,0 0,41.06 z m 0.36,13.92 0.12,0 0,-54.98 -0.12,0 0,54.98 z m 0.36,-13.2 0.12,0 0,-41.78 -0.12,0 0,41.78 z m 0.36,-0.72 0.12,0 0,-41.06 -0.12,0 0,41.06 z m 0.48,10.56 0.12,0 0,-51.62 -0.12,0 0,51.62 z m 0.36,-12.24 0.12,0 0,-39.38 -0.12,0 0,39.38 z m 0.36,0 0.12,0 0,-39.38 -0.12,0 0,39.38 z m 0.36,0.84 0.12,0 0,-40.22 -0.12,0 0,40.22 z m 0.48,0 0.12,0 0,-40.22 -0.12,0 0,40.22 z m 0.36,46.68 0.12,0 0,-86.9 -0.12,0 0,86.9 z m 0.36,-6.48 0.12,0 0,-80.42 -0.12,0 0,80.42 z m 0.36,-41.04 0.12,0 0,-39.38 -0.12,0 0,39.38 z m 0.48,0 0.12,0 0,-39.38 -0.12,0 0,39.38 z m 0.36,0 0.12,0 0,-39.38 -0.12,0 0,39.38 z m 0.36,27 0.12,0 0,-66.38 -0.12,0 0,66.38 z m 0.36,-25.32 0.12,0 0,-41.06 -0.12,0 0,41.06 z m 0.48,9.84 0.12,0 0,-50.9 -0.12,0 0,50.9 z m 0.36,-11.52 0.12,0 0,-39.38 -0.12,0 0,39.38 z m 0.36,-0.84 0.12,0 0,-38.54 -0.12,0 0,38.54 z m 0.36,13.92 0.12,0 0,-52.46 -0.12,0 0,52.46 z m 0.48,-12.24 0.12,0 0,-40.22 -0.12,0 0,40.22 z m 0.36,0.84 0.12,0 0,-41.06 -0.12,0 0,41.06 z m 0.36,11.4 0.12,0 0,-52.46 -0.12,0 0,52.46 z m 0.36,-13.08 0.12,0 0,-39.38 -0.12,0 0,39.38 z m 0.48,-0.84 0.12,0 0,-38.54 -0.12,0 0,38.54 z m 0.36,0.84 0.12,0 0,-39.38 -0.12,0 0,39.38 z m 0.36,-0.84 0.12,0 0,-38.54 -0.12,0 0,38.54 z m 0.36,0 0.12,0 0,-38.54 -0.12,0 0,38.54 z m 0.48,26.28 0.12,0 0,-64.82 -0.12,0 0,64.82 z m 0.36,-26.28 0.12,0 0,-38.54 -0.12,0 0,38.54 z m 0.36,14.76 0.12,0 0,-53.3 -0.12,0 0,53.3 z m 0.36,-13.92 0.12,0 0,-39.38 -0.12,0 0,39.38 z m 0.48,49.2 0.12,0 0,-88.58 -0.12,0 0,88.58 z m 0.36,-45.96 0.12,0 0,-42.62 -0.12,0 0,42.62 z m 0.36,8.28 0.12,0 0,-50.9 -0.12,0 0,50.9 z m 0.36,-11.52 0.12,0 0,-39.38 -0.12,0 0,39.38 z m 0.48,3.24 0.12,0 0,-42.62 -0.12,0 0,42.62 z m 0.36,32.04 0.12,0 0,-74.66 -0.12,0 0,74.66 z m 0.36,-35.28 0.12,0 0,-39.38 -0.12,0 0,39.38 z m 0.36,2.4 0.12,0 0,-41.78 -0.12,0 0,41.78 z m 0.48,9.12 0.12,0 0,-50.9 -0.12,0 0,50.9 z m 0.36,2.4 0.12,0 0,-53.3 -0.12,0 0,53.3 z m 0.36,-13.08 0.12,0 0,-40.22 -0.12,0 0,40.22 z m 0.36,1.56 0.12,0 0,-41.78 -0.12,0 0,41.78 z m 0.48,-3.24 0.12,0 0,-38.54 -0.12,0 0,38.54 z m 0.36,2.52 0.12,0 0,-41.06 -0.12,0 0,41.06 z m 0.36,27.84 0.12,0 0,-68.9 -0.12,0 0,68.9 z m 0.36,-30.36 0.12,0 0,-38.54 -0.12,0 0,38.54 z m 0.48,0 0.12,0 0,-38.54 -0.12,0 0,38.54 z m 0.36,0.84 0.12,0 0,-39.38 -0.12,0 0,39.38 z m 0.36,12.24 0.12,0 0,-51.62 -0.12,0 0,51.62 z m 0.36,-12.24 0.12,0 0,-39.38 -0.12,0 0,39.38 z m 0.48,12.24 0.12,0 0,-51.62 -0.12,0 0,51.62 z m 0.36,-12.24 0.12,0 0,-39.38 -0.12,0 0,39.38 z m 0.36,0 0.12,0 0,-39.38 -0.12,0 0,39.38 z m 0.36,34.44 0.12,0 0,-73.82 -0.12,0 0,73.82 z m 0.48,-34.44 0.12,0 0,-39.38 -0.12,0 0,39.38 z m 0.36,1.68 0.12,0 0,-41.06 -0.12,0 0,41.06 z m 0.36,11.4 0.12,0 0,-52.46 -0.12,0 0,52.46 z m 0.36,-10.68 0.12,0 0,-41.78 -0.12,0 0,41.78 z m 0.48,30.36 0.12,0 0,-72.14 -0.12,0 0,72.14 z m 0.36,-32.76 0.12,0 0,-39.38 -0.12,0 0,39.38 z m 0.36,0 0.12,0 0,-39.38 -0.12,0 0,39.38 z m 0.36,2.4 0.12,0 0,-41.78 -0.12,0 0,41.78 z m 0.48,23.04 0.12,0 0,-64.82 -0.12,0 0,64.82 z m 0.36,-25.44 0.12,0 0,-39.38 -0.12,0 0,39.38 z m 0.36,0 0.12,0 0,-39.38 -0.12,0 0,39.38 z m 0.36,4.92 0.12,0 0,-44.3 -0.12,0 0,44.3 z m 0.48,-5.76 0.12,0 0,-38.54 -0.12,0 0,38.54 z m 0.36,4.08 0.12,0 0,-42.62 -0.12,0 0,42.62 z m 0.36,22.2 0.12,0 0,-64.82 -0.12,0 0,64.82 z m 0.36,-25.44 0.12,0 0,-39.38 -0.12,0 0,39.38 z m 0.48,0 0.12,0 0,-39.38 -0.12,0 0,39.38 z m 0.36,13.92 0.12,0 0,-53.3 -0.12,0 0,53.3 z m 0.36,-14.76 0.12,0 0,-38.54 -0.12,0 0,38.54 z m 0.36,0.84 0.24,0 0,-39.38 -0.24,0 0,39.38 z m 0.48,18.84 0.12,0 0,-58.22 -0.12,0 0,58.22 z m 0.36,-18.84 0.12,0 0,-39.38 -0.12,0 0,39.38 z m 0.36,25.44 0.12,0 0,-64.82 -0.12,0 0,64.82 z m 0.36,-25.44 0.24,0 0,-39.38 -0.24,0 0,39.38 z m 0.48,0 0.12,0 0,-39.38 -0.12,0 0,39.38 z m 0.36,0 0.12,0 0,-39.38 -0.12,0 0,39.38 z m 0.36,26.28 0.12,0 0,-65.66 -0.12,0 0,65.66 z m 0.36,11.4 0.24,0 0,-77.06 -0.24,0 0,77.06 z m 0.48,-37.68 0.12,0 0,-39.38 -0.12,0 0,39.38 z m 0.36,0 0.12,0 0,-39.38 -0.12,0 0,39.38 z m 0.36,2.4 0.12,0 0,-41.78 -0.12,0 0,41.78 z m 0.36,-2.4 0.24,0 0,-39.38 -0.24,0 0,39.38 z m 0.48,12.24 0.12,0 0,-51.62 -0.12,0 0,51.62 z m 0.36,-12.24 0.12,0 0,-39.38 -0.12,0 0,39.38 z m 0.36,13.08 0.12,0 0,-52.46 -0.12,0 0,52.46 z m 0.48,0.84 0.12,0 0,-53.3 -0.12,0 0,53.3 z m 0.36,-13.92 0.12,0 0,-39.38 -0.12,0 0,39.38 z m 0.36,0 0.12,0 0,-39.38 -0.12,0 0,39.38 z m 0.36,15.6 0.12,0 0,-54.98 -0.12,0 0,54.98 z m 0.48,-16.44 0.12,0 0,-38.54 -0.12,0 0,38.54 z m 0.36,0.84 0.12,0 0,-39.38 -0.12,0 0,39.38 z m 0.36,-0.84 0.12,0 0,-38.54 -0.12,0 0,38.54 z m 0.36,0.84 0.12,0 0,-39.38 -0.12,0 0,39.38 z m 0.48,3.24 0.12,0 0,-42.62 -0.12,0 0,42.62 z m 0.36,22.2 0.12,0 0,-64.82 -0.12,0 0,64.82 z m 0.36,-3.36 0.12,0 0,-61.46 -0.12,0 0,61.46 z m 0.36,-22.92 0.12,0 0,-38.54 -0.12,0 0,38.54 z m 0.48,0.84 0.12,0 0,-39.38 -0.12,0 0,39.38 z m 0.36,0 0.12,0 0,-39.38 -0.12,0 0,39.38 z m 0.36,0 0.12,0 0,-39.38 -0.12,0 0,39.38 z m 0.36,35.28 0.12,0 0,-74.66 -0.12,0 0,74.66 z m 0.48,-35.28 0.12,0 0,-39.38 -0.12,0 0,39.38 z m 0.36,2.4 0.12,0 0,-41.78 -0.12,0 0,41.78 z m 0.36,10.68 0.12,0 0,-52.46 -0.12,0 0,52.46 z m 0.36,0 0.12,0 0,-52.46 -0.12,0 0,52.46 z m 0.48,-13.92 0.12,0 0,-38.54 -0.12,0 0,38.54 z m 0.36,13.08 0.12,0 0,-51.62 -0.12,0 0,51.62 z m 0.36,-13.08 0.12,0 0,-38.54 -0.12,0 0,38.54 z m 0.36,4.92 0.12,0 0,-43.46 -0.12,0 0,43.46 z m 0.48,-4.92 0.12,0 0,-38.54 -0.12,0 0,38.54 z m 0.36,2.52 0.12,0 0,-41.06 -0.12,0 0,41.06 z m 0.36,-2.52 0.12,0 0,-38.54 -0.12,0 0,38.54 z m 0.36,27.12 0.12,0 0,-65.66 -0.12,0 0,65.66 z m 0.48,-23.88 0.12,0 0,-41.78 -0.12,0 0,41.78 z m 0.36,-3.24 0.12,0 0,-38.54 -0.12,0 0,38.54 z m 0.36,0 0.12,0 0,-38.54 -0.12,0 0,38.54 z m 0.36,0.84 0.12,0 0,-39.38 -0.12,0 0,39.38 z m 0.48,1.68 0.12,0 0,-41.06 -0.12,0 0,41.06 z m 0.36,31.08 0.12,0 0,-72.14 -0.12,0 0,72.14 z m 0.36,-17.16 0.12,0 0,-54.98 -0.12,0 0,54.98 z m 0.36,-15.6 0.12,0 0,-39.38 -0.12,0 0,39.38 z m 0.48,12.24 0.12,0 0,-51.62 -0.12,0 0,51.62 z m 0.36,-12.24 0.12,0 0,-39.38 -0.12,0 0,39.38 z m 0.36,20.52 0.12,0 0,-59.9 -0.12,0 0,59.9 z m 0.36,5.76 0.12,0 0,-65.66 -0.12,0 0,65.66 z m 0.48,-26.28 0.12,0 0,-39.38 -0.12,0 0,39.38 z m 0.36,0 0.12,0 0,-39.38 -0.12,0 0,39.38 z m 0.36,0 0.12,0 0,-39.38 -0.12,0 0,39.38 z m 0.36,0 0.12,0 0,-39.38 -0.12,0 0,39.38 z m 0.48,4.08 0.12,0 0,-43.46 -0.12,0 0,43.46 z m 0.36,21.36 0.12,0 0,-64.82 -0.12,0 0,64.82 z m 0.36,-25.44 0.12,0 0,-39.38 -0.12,0 0,39.38 z m 0.36,0 0.12,0 0,-39.38 -0.12,0 0,39.38 z m 0.48,0 0.12,0 0,-39.38 -0.12,0 0,39.38 z m 0.36,-0.84 0.12,0 0,-38.54 -0.12,0 0,38.54 z m 0.36,4.08 0.12,0 0,-42.62 -0.12,0 0,42.62 z m 0.36,13.2 0.12,0 0,-55.82 -0.12,0 0,55.82 z m 0.48,-16.44 0.12,0 0,-39.38 -0.12,0 0,39.38 z m 0.36,-0.84 0.12,0 0,-38.54 -0.12,0 0,38.54 z m 0.36,13.08 0.12,0 0,-51.62 -0.12,0 0,51.62 z m 0.36,-12.24 0.12,0 0,-39.38 -0.12,0 0,39.38 z m 0.48,30.36 0.12,0 0,-69.74 -0.12,0 0,69.74 z m 0.36,-18.12 0.12,0 0,-51.62 -0.12,0 0,51.62 z m 0.36,-9 0.12,0 0,-42.62 -0.12,0 0,42.62 z m 0.36,9 0.12,0 0,-51.62 -0.12,0 0,51.62 z m 0.48,-12.24 0.12,0 0,-39.38 -0.12,0 0,39.38 z m 0.36,21.36 0.12,0 0,-60.74 -0.12,0 0,60.74 z m 0.36,-20.52 0.12,0 0,-40.22 -0.12,0 0,40.22 z m 0.36,24.6 0.12,0 0,-64.82 -0.12,0 0,64.82 z m 0.48,-25.44 0.12,0 0,-39.38 -0.12,0 0,39.38 z m 0.36,-0.84 0.12,0 0,-38.54 -0.12,0 0,38.54 z m 0.36,1.68 0.12,0 0,-40.22 -0.12,0 0,40.22 z m 0.36,-1.68 0.12,0 0,-38.54 -0.12,0 0,38.54 z m 0.48,0 0.12,0 0,-38.54 -0.12,0 0,38.54 z m 0.36,13.08 0.12,0 0,-51.62 -0.12,0 0,51.62 z m 0.36,-13.08 0.12,0 0,-38.54 -0.12,0 0,38.54 z m 0.36,0.84 0.12,0 0,-39.38 -0.12,0 0,39.38 z m 0.48,12.24 0.12,0 0,-51.62 -0.12,0 0,51.62 z m 0.36,-12.24 0.12,0 0,-39.38 -0.12,0 0,39.38 z m 0.36,0 0.12,0 0,-39.38 -0.12,0 0,39.38 z m 0.36,12.24 0.12,0 0,-51.62 -0.12,0 0,51.62 z m 0.48,-12.24 0.12,0 0,-39.38 -0.12,0 0,39.38 z m 0.36,0.84 0.12,0 0,-40.22 -0.12,0 0,40.22 z m 0.36,-1.68 0.12,0 0,-38.54 -0.12,0 0,38.54 z m 0.36,34.44 0.12,0 0,-72.98 -0.12,0 0,72.98 z m 0.48,-34.44 0.12,0 0,-38.54 -0.12,0 0,38.54 z m 0.36,29.52 0.12,0 0,-68.06 -0.12,0 0,68.06 z m 0.36,-25.44 0.12,0 0,-42.62 -0.12,0 0,42.62 z m 0.36,-3.24 0.12,0 0,-39.38 -0.12,0 0,39.38 z m 0.48,19.68 0.12,0 0,-59.06 -0.12,0 0,59.06 z m 0.36,-19.68 0.12,0 0,-39.38 -0.12,0 0,39.38 z m 0.36,-0.84 0.12,0 0,-38.54 -0.12,0 0,38.54 z m 0.36,13.08 0.12,0 0,-51.62 -0.12,0 0,51.62 z m 0.48,-13.08 0.12,0 0,-38.54 -0.12,0 0,38.54 z m 0.36,0 0.12,0 0,-38.54 -0.12,0 0,38.54 z m 0.36,13.08 0.12,0 0,-51.62 -0.12,0 0,51.62 z m 0.36,-10.56 0.12,0 0,-41.06 -0.12,0 0,41.06 z m 0.48,-1.68 0.12,0 0,-39.38 -0.12,0 0,39.38 z m 0.36,14.76 0.12,0 0,-54.14 -0.12,0 0,54.14 z m 0.36,-13.92 0.12,0 0,-40.22 -0.12,0 0,40.22 z m 0.36,1.56 0.12,0 0,-41.78 -0.12,0 0,41.78 z m 0.48,0.84 0.12,0 0,-42.62 -0.12,0 0,42.62 z m 0.36,0 0.12,0 0,-42.62 -0.12,0 0,42.62 z m 0.36,1.68 0.12,0 0,-44.3 -0.12,0 0,44.3 z m 0.36,40.2 0.12,0 0,-84.5 -0.12,0 0,84.5 z m 0.48,-38.52 0.12,0 0,-45.98 -0.12,0 0,45.98 z m 0.36,0.72 0.12,0 0,-46.7 -0.12,0 0,46.7 z m 0.36,23.88 0.12,0 0,-70.58 -0.12,0 0,70.58 z m 0.36,-23.04 0.12,0 0,-47.54 -0.12,0 0,47.54 z m 0.48,0 0.12,0 0,-47.54 -0.12,0 0,47.54 z m 0.36,13.2 0.12,0 0,-60.74 -0.12,0 0,60.74 z m 0.36,-13.2 0.12,0 0,-47.54 -0.12,0 0,47.54 z m 0.36,11.52 0.12,0 0,-59.06 -0.12,0 0,59.06 z m 0.48,1.68 0.12,0 0,-60.74 -0.12,0 0,60.74 z m 0.36,-12.36 0.12,0 0,-48.38 -0.12,0 0,48.38 z m 0.36,-0.84 0.12,0 0,-47.54 -0.12,0 0,47.54 z m 0.36,12.36 0.12,0 0,-59.9 -0.12,0 0,59.9 z m 0.48,-12.36 0.12,0 0,-47.54 -0.12,0 0,47.54 z m 0.36,0 0.12,0 0,-47.54 -0.12,0 0,47.54 z m 0.36,0.84 0.12,0 0,-48.38 -0.12,0 0,48.38 z m 0.36,-0.84 0.12,0 0,-47.54 -0.12,0 0,47.54 z m 0.48,0 0.12,0 0,-47.54 -0.12,0 0,47.54 z m 0.36,24.6 0.12,0 0,-72.14 -0.12,0 0,72.14 z m 0.36,-24.6 0.12,0 0,-47.54 -0.12,0 0,47.54 z m 0.36,12.36 0.12,0 0,-59.9 -0.12,0 0,59.9 z m 0.48,-12.36 0.12,0 0,-47.54 -0.12,0 0,47.54 z m 0.36,-0.84 0.12,0 0,-46.7 -0.12,0 0,46.7 z m 0.36,0.84 0.12,0 0,-47.54 -0.12,0 0,47.54 z m 0.36,13.2 0.12,0 0,-60.74 -0.12,0 0,60.74 z m 0.48,-14.04 0.12,0 0,-46.7 -0.12,0 0,46.7 z m 0.36,22.2 0.12,0 0,-68.9 -0.12,0 0,68.9 z m 0.36,-9.84 0.12,0 0,-59.06 -0.12,0 0,59.06 z m 0.36,-12.36 0.12,0 0,-46.7 -0.12,0 0,46.7 z m 0.48,0 0.12,0 0,-46.7 -0.12,0 0,46.7 z m 0.36,12.36 0.12,0 0,-59.06 -0.12,0 0,59.06 z m 0.36,-9 0.12,0 0,-50.06 -0.12,0 0,50.06 z m 0.36,-3.36 0.12,0 0,-46.7 -0.12,0 0,46.7 z m 0.48,1.68 0.12,0 0,-48.38 -0.12,0 0,48.38 z m 0.36,-3.24 0.12,0 0,-45.14 -0.12,0 0,45.14 z m 0.36,1.56 0.12,0 0,-46.7 -0.12,0 0,46.7 z m 0.36,25.44 0.12,0 0,-72.14 -0.12,0 0,72.14 z m 0.48,-23.76 0.12,0 0,-48.38 -0.12,0 0,48.38 z m 0.36,0 0.12,0 0,-48.38 -0.12,0 0,48.38 z m 0.36,0 0.12,0 0,-48.38 -0.12,0 0,48.38 z m 0.36,13.92 0.12,0 0,-62.3 -0.12,0 0,62.3 z m 0.48,-9 0.12,0 0,-53.3 -0.12,0 0,53.3 z m 0.36,9.84 0.12,0 0,-63.14 -0.12,0 0,63.14 z m 0.36,-12.24 0.12,0 0,-50.9 -0.12,0 0,50.9 z m 0.36,-1.68 0.12,0 0,-49.22 -0.12,0 0,49.22 z m 0.48,13.92 0.12,0 0,-63.14 -0.12,0 0,63.14 z m 0.36,-10.68 0.12,0 0,-52.46 -0.12,0 0,52.46 z m 0.36,0 0.12,0 0,-52.46 -0.12,0 0,52.46 z m 0.36,9 0.12,0 0,-61.46 -0.12,0 0,61.46 z m 0.48,4.2 0.12,0 0,-65.66 -0.12,0 0,65.66 z m 0.36,-23.04 0.12,0 0,-42.62 -0.12,0 0,42.62 z m 0.36,1.68 0.12,0 0,-44.3 -0.12,0 0,44.3 z m 0.36,1.68 0.12,0 0,-45.98 -0.12,0 0,45.98 z m 0.48,-4.92 0.12,0 0,-41.06 -0.12,0 0,41.06 z m 0.36,39.36 0.12,0 0,-80.42 -0.12,0 0,80.42 z m 0.36,-40.2 0.12,0 0,-40.22 -0.12,0 0,40.22 z m 0.36,0 0.24,0 0,-40.22 -0.24,0 0,40.22 z m 0.48,2.4 0.12,0 0,-42.62 -0.12,0 0,42.62 z m 0.36,2.52 0.12,0 0,-45.14 -0.12,0 0,45.14 z m 0.36,-4.08 0.12,0 0,-41.06 -0.12,0 0,41.06 z m 0.36,26.16 0.24,0 0,-67.22 -0.24,0 0,67.22 z m 0.48,-27 0.12,0 0,-40.22 -0.12,0 0,40.22 z m 0.36,0.84 0.12,0 0,-41.06 -0.12,0 0,41.06 z m 0.36,13.08 0.12,0 0,-54.14 -0.12,0 0,54.14 z m 0.36,-9.84 0.24,0 0,-44.3 -0.24,0 0,44.3 z m 0.48,-4.08 0.12,0 0,-40.22 -0.12,0 0,40.22 z m 0.36,12.24 0.12,0 0,-52.46 -0.12,0 0,52.46 z m 0.36,-11.4 0.12,0 0,-41.06 -0.12,0 0,41.06 z m 0.36,-1.68 0.24,0 0,-39.38 -0.24,0 0,39.38 z m 0.48,0.84 0.12,0 0,-40.22 -0.12,0 0,40.22 z m 0.36,-0.84 0.12,0 0,-39.38 -0.12,0 0,39.38 z m 0.36,0.84 0.12,0 0,-40.22 -0.12,0 0,40.22 z m 0.48,45.12 0.12,0 0,-85.34 -0.12,0 0,85.34 z m 0.36,-45.12 0.12,0 0,-40.22 -0.12,0 0,40.22 z m 0.36,-0.84 0.12,0 0,-39.38 -0.12,0 0,39.38 z m 0.36,0 0.12,0 0,-39.38 -0.12,0 0,39.38 z m 0.48,0 0.12,0 0,-39.38 -0.12,0 0,39.38 z m 0.36,15.6 0.12,0 0,-54.98 -0.12,0 0,54.98 z m 0.36,-1.68 0.12,0 0,-53.3 -0.12,0 0,53.3 z m 0.36,-13.92 0.12,0 0,-39.38 -0.12,0 0,39.38 z m 0.48,12.24 0.12,0 0,-51.62 -0.12,0 0,51.62 z m 0.36,0 0.12,0 0,-51.62 -0.12,0 0,51.62 z m 0.36,-13.08 0.12,0 0,-38.54 -0.12,0 0,38.54 z m 0.36,0 0.12,0 0,-38.54 -0.12,0 0,38.54 z m 0.48,16.44 0.12,0 0,-54.98 -0.12,0 0,54.98 z m 0.36,-15.6 0.12,0 0,-39.38 -0.12,0 0,39.38 z m 0.36,-0.84 0.12,0 0,-38.54 -0.12,0 0,38.54 z m 0.36,0.84 0.12,0 0,-39.38 -0.12,0 0,39.38 z m 0.48,0 0.12,0 0,-39.38 -0.12,0 0,39.38 z m 0.36,-0.84 0.12,0 0,-38.54 -0.12,0 0,38.54 z m 0.36,27.84 0.12,0 0,-66.38 -0.12,0 0,66.38 z m 0.36,-27 0.12,0 0,-39.38 -0.12,0 0,39.38 z m 0.48,-1.68 0.12,0 0,-37.7 -0.12,0 0,37.7 z m 0.36,0.84 0.12,0 0,-38.54 -0.12,0 0,38.54 z m 0.36,0 0.12,0 0,-38.54 -0.12,0 0,38.54 z m 0.36,30.36 0.12,0 0,-68.9 -0.12,0 0,68.9 z m 0.48,-17.28 0.12,0 0,-51.62 -0.12,0 0,51.62 z m 0.36,-13.08 0.12,0 0,-38.54 -0.12,0 0,38.54 z m 0.36,0.84 0.12,0 0,-39.38 -0.12,0 0,39.38 z m 0.36,12.24 0.12,0 0,-51.62 -0.12,0 0,51.62 z m 0.48,29.52 0.12,0 0,-81.14 -0.12,0 0,81.14 z m 0.36,-39.36 0.12,0 0,-41.78 -0.12,0 0,41.78 z m 0.36,9.84 0.12,0 0,-51.62 -0.12,0 0,51.62 z m 0.36,-12.24 0.12,0 0,-39.38 -0.12,0 0,39.38 z m 0.48,-0.84 0.12,0 0,-38.54 -0.12,0 0,38.54 z m 0.36,0.84 0.12,0 0,-39.38 -0.12,0 0,39.38 z m 0.36,2.4 0.12,0 0,-41.78 -0.12,0 0,41.78 z m 0.36,-2.4 0.12,0 0,-39.38 -0.12,0 0,39.38 z m 0.48,24.6 0.12,0 0,-63.98 -0.12,0 0,63.98 z m 0.36,-25.44 0.12,0 0,-38.54 -0.12,0 0,38.54 z m 0.36,0 0.12,0 0,-38.54 -0.12,0 0,38.54 z m 0.36,0.84 0.12,0 0,-39.38 -0.12,0 0,39.38 z m 0.48,0 0.12,0 0,-39.38 -0.12,0 0,39.38 z m 0.36,-0.84 0.12,0 0,-38.54 -0.12,0 0,38.54 z m 0.36,12.36 0.12,0 0,-50.9 -0.12,0 0,50.9 z m 0.36,-11.52 0.12,0 0,-39.38 -0.12,0 0,39.38 z m 0.48,-0.84 0.12,0 0,-38.54 -0.12,0 0,38.54 z m 0.36,13.08 0.12,0 0,-51.62 -0.12,0 0,51.62 z m 0.36,10.68 0.12,0 0,-62.3 -0.12,0 0,62.3 z m 0.36,-22.92 0.12,0 0,-39.38 -0.12,0 0,39.38 z m 0.48,24.6 0.12,0 0,-63.98 -0.12,0 0,63.98 z m 0.36,-25.44 0.12,0 0,-38.54 -0.12,0 0,38.54 z m 0.36,1.68 0.12,0 0,-40.22 -0.12,0 0,40.22 z m 0.36,23.76 0.12,0 0,-63.98 -0.12,0 0,63.98 z m 0.48,-25.44 0.12,0 0,-38.54 -0.12,0 0,38.54 z m 0.36,0 0.12,0 0,-38.54 -0.12,0 0,38.54 z m 0.36,26.28 0.12,0 0,-64.82 -0.12,0 0,64.82 z m 0.36,-26.28 0.12,0 0,-38.54 -0.12,0 0,38.54 z m 0.48,0 0.12,0 0,-38.54 -0.12,0 0,38.54 z m 0.36,0.84 0.12,0 0,-39.38 -0.12,0 0,39.38 z m 0.36,0.84 0.12,0 0,-40.22 -0.12,0 0,40.22 z m 0.36,-0.84 0.12,0 0,-39.38 -0.12,0 0,39.38 z m 0.48,12.24 0.12,0 0,-51.62 -0.12,0 0,51.62 z m 0.36,-13.08 0.12,0 0,-38.54 -0.12,0 0,38.54 z m 0.36,2.52 0.12,0 0,-41.06 -0.12,0 0,41.06 z m 0.36,10.56 0.12,0 0,-51.62 -0.12,0 0,51.62 z m 0.48,-13.08 0.12,0 0,-38.54 -0.12,0 0,38.54 z m 0.36,1.68 0.12,0 0,-40.22 -0.12,0 0,40.22 z m 0.36,15.6 0.12,0 0,-55.82 -0.12,0 0,55.82 z m 0.36,-9.84 0.12,0 0,-45.98 -0.12,0 0,45.98 z m 0.48,4.92 0.12,0 0,-50.9 -0.12,0 0,50.9 z m 0.36,21.24 0.12,0 0,-72.14 -0.12,0 0,72.14 z m 0.36,-33.6 0.12,0 0,-38.54 -0.12,0 0,38.54 z m 0.36,13.92 0.12,0 0,-52.46 -0.12,0 0,52.46 z m 0.48,13.2 0.12,0 0,-65.66 -0.12,0 0,65.66 z m 0.36,-27.12 0.12,0 0,-38.54 -0.12,0 0,38.54 z m 0.36,21.36 0.12,0 0,-59.9 -0.12,0 0,59.9 z m 0.36,-17.28 0.12,0 0,-42.62 -0.12,0 0,42.62 z m 0.48,-2.4 0.12,0 0,-40.22 -0.12,0 0,40.22 z m 0.36,2.4 0.12,0 0,-42.62 -0.12,0 0,42.62 z m 0.36,8.28 0.12,0 0,-50.9 -0.12,0 0,50.9 z m 0.36,-12.36 0.12,0 0,-38.54 -0.12,0 0,38.54 z m 0.48,0 0.12,0 0,-38.54 -0.12,0 0,38.54 z m 0.36,13.08 0.12,0 0,-51.62 -0.12,0 0,51.62 z m 0.36,-12.24 0.12,0 0,-39.38 -0.12,0 0,39.38 z m 0.36,-0.84 0.12,0 0,-38.54 -0.12,0 0,38.54 z m 0.48,13.08 0.12,0 0,-51.62 -0.12,0 0,51.62 z m 0.36,-13.08 0.12,0 0,-38.54 -0.12,0 0,38.54 z m 0.36,0 0.12,0 0,-38.54 -0.12,0 0,38.54 z m 0.36,0.84 0.12,0 0,-39.38 -0.12,0 0,39.38 z m 0.48,12.24 0.12,0 0,-51.62 -0.12,0 0,51.62 z m 0.36,-13.08 0.12,0 0,-38.54 -0.12,0 0,38.54 z m 0.36,25.44 0.12,0 0,-63.98 -0.12,0 0,63.98 z m 0.36,-24.6 0.12,0 0,-39.38 -0.12,0 0,39.38 z m 0.48,39.36 0.12,0 0,-78.74 -0.12,0 0,78.74 z m 0.36,-38.52 0.12,0 0,-40.22 -0.12,0 0,40.22 z m 0.36,-0.84 0.12,0 0,-39.38 -0.12,0 0,39.38 z m 0.36,-0.84 0.12,0 0,-38.54 -0.12,0 0,38.54 z m 0.48,16.44 0.12,0 0,-54.98 -0.12,0 0,54.98 z m 0.36,7.32 0.12,0 0,-62.3 -0.12,0 0,62.3 z m 0.36,-23.76 0.12,0 0,-38.54 -0.12,0 0,38.54 z m 0.36,12.36 0.12,0 0,-50.9 -0.12,0 0,50.9 z m 0.48,-12.36 0.12,0 0,-38.54 -0.12,0 0,38.54 z m 0.36,0 0.12,0 0,-38.54 -0.12,0 0,38.54 z m 0.36,12.36 0.12,0 0,-50.9 -0.12,0 0,50.9 z m 0.36,-10.68 0.12,0 0,-40.22 -0.12,0 0,40.22 z m 0.48,-0.84 0.12,0 0,-39.38 -0.12,0 0,39.38 z m 0.36,3.24 0.12,0 0,-42.62 -0.12,0 0,42.62 z m 0.36,0 0.12,0 0,-42.62 -0.12,0 0,42.62 z m 0.36,-4.08 0.12,0 0,-38.54 -0.12,0 0,38.54 z m 0.48,41.88 0.12,0 0,-80.42 -0.12,0 0,80.42 z m 0.36,-40.2 0.12,0 0,-40.22 -0.12,0 0,40.22 z m 0.36,-1.68 0.12,0 0,-38.54 -0.12,0 0,38.54 z m 0.36,1.68 0.12,0 0,-40.22 -0.12,0 0,40.22 z m 0.48,-0.84 0.12,0 0,-39.38 -0.12,0 0,39.38 z m 0.36,-0.84 0.12,0 0,-38.54 -0.12,0 0,38.54 z m 0.36,17.28 0.12,0 0,-55.82 -0.12,0 0,55.82 z m 0.36,13.08 0.12,0 0,-68.9 -0.12,0 0,68.9 z m 0.48,-29.52 0.12,0 0,-39.38 -0.12,0 0,39.38 z m 0.36,11.52 0.12,0 0,-50.9 -0.12,0 0,50.9 z m 0.36,-10.68 0.12,0 0,-40.22 -0.12,0 0,40.22 z m 0.36,-1.68 0.12,0 0,-38.54 -0.12,0 0,38.54 z m 0.48,31.2 0.12,0 0,-69.74 -0.12,0 0,69.74 z m 0.36,-27.96 0.12,0 0,-41.78 -0.12,0 0,41.78 z m 0.36,-3.24 0.12,0 0,-38.54 -0.12,0 0,38.54 z m 0.36,0 0.12,0 0,-38.54 -0.12,0 0,38.54 z m 0.48,0.84 0.12,0 0,-39.38 -0.12,0 0,39.38 z m 0.36,0 0.12,0 0,-39.38 -0.12,0 0,39.38 z m 0.36,25.44 0.12,0 0,-64.82 -0.12,0 0,64.82 z m 0.36,-22.2 0.12,0 0,-42.62 -0.12,0 0,42.62 z m 0.48,9.84 0.12,0 0,-52.46 -0.12,0 0,52.46 z m 0.36,-13.92 0.12,0 0,-38.54 -0.12,0 0,38.54 z m 0.36,0.84 0.12,0 0,-39.38 -0.12,0 0,39.38 z m 0.36,-1.68 0.12,0 0,-37.7 -0.12,0 0,37.7 z m 0.48,13.92 0.12,0 0,-51.62 -0.12,0 0,51.62 z m 0.36,-13.08 0.12,0 0,-38.54 -0.12,0 0,38.54 z m 0.36,1.68 0.12,0 0,-40.22 -0.12,0 0,40.22 z m 0.36,12.24 0.12,0 0,-52.46 -0.12,0 0,52.46 z m 0.48,-12.24 0.12,0 0,-40.22 -0.12,0 0,40.22 z m 0.36,-0.84 0.12,0 0,-39.38 -0.12,0 0,39.38 z m 0.36,36.12 0.12,0 0,-75.5 -0.12,0 0,75.5 z m 0.36,-36.12 0.12,0 0,-39.38 -0.12,0 0,39.38 z m 0.48,0 0.12,0 0,-39.38 -0.12,0 0,39.38 z m 0.36,0.84 0.12,0 0,-40.22 -0.12,0 0,40.22 z m 0.36,-0.84 0.12,0 0,-39.38 -0.12,0 0,39.38 z m 0.36,27.84 0.12,0 0,-67.22 -0.12,0 0,67.22 z m 0.48,-2.4 0.12,0 0,-64.82 -0.12,0 0,64.82 z m 0.36,-25.44 0.12,0 0,-39.38 -0.12,0 0,39.38 z m 0.36,0 0.12,0 0,-39.38 -0.12,0 0,39.38 z m 0.36,2.4 0.12,0 0,-41.78 -0.12,0 0,41.78 z m 0.48,9.84 0.12,0 0,-51.62 -0.12,0 0,51.62 z m 0.36,-13.08 0.12,0 0,-38.54 -0.12,0 0,38.54 z m 0.36,13.08 0.12,0 0,-51.62 -0.12,0 0,51.62 z m 0.36,-12.24 0.12,0 0,-39.38 -0.12,0 0,39.38 z m 0.48,-0.84 0.12,0 0,-38.54 -0.12,0 0,38.54 z m 0.36,13.08 0.12,0 0,-51.62 -0.12,0 0,51.62 z m 0.36,-13.92 0.12,0 0,-37.7 -0.12,0 0,37.7 z m 0.36,0.84 0.24,0 0,-38.54 -0.24,0 0,38.54 z m 0.48,12.36 0.12,0 0,-50.9 -0.12,0 0,50.9 z m 0.36,-11.52 0.12,0 0,-39.38 -0.12,0 0,39.38 z m 0.36,-0.84 0.12,0 0,-38.54 -0.12,0 0,38.54 z m 0.36,0.84 0.24,0 0,-39.38 -0.24,0 0,39.38 z m 0.48,-0.84 0.12,0 0,-38.54 -0.12,0 0,38.54 z m 0.36,30.36 0.12,0 0,-68.9 -0.12,0 0,68.9 z m 0.36,-3.24 0.12,0 0,-65.66 -0.12,0 0,65.66 z m 0.36,-23.88 0.24,0 0,-41.78 -0.24,0 0,41.78 z m 0.48,-3.24 0.12,0 0,-38.54 -0.12,0 0,38.54 z m 0.36,2.52 0.12,0 0,-41.06 -0.12,0 0,41.06 z m 0.36,18 0.12,0 0,-59.06 -0.12,0 0,59.06 z m 0.36,-19.68 0.24,0 0,-39.38 -0.24,0 0,39.38 z m 0.48,25.44 0.12,0 0,-64.82 -0.12,0 0,64.82 z m 0.36,-25.44 0.12,0 0,-39.38 -0.12,0 0,39.38 z m 0.36,0 0.12,0 0,-39.38 -0.12,0 0,39.38 z m 0.48,13.08 0.12,0 0,-52.46 -0.12,0 0,52.46 z m 0.36,-12.24 0.12,0 0,-40.22 -0.12,0 0,40.22 z m 0.36,-0.84 0.12,0 0,-39.38 -0.12,0 0,39.38 z m 0.36,12.24 0.12,0 0,-51.62 -0.12,0 0,51.62 z m 0.48,-12.24 0.12,0 0,-39.38 -0.12,0 0,39.38 z m 0.36,-0.84 0.12,0 0,-38.54 -0.12,0 0,38.54 z m 0.36,0 0.12,0 0,-38.54 -0.12,0 0,38.54 z m 0.36,0.84 0.12,0 0,-39.38 -0.12,0 0,39.38 z m 0.48,-0.84 0.12,0 0,-38.54 -0.12,0 0,38.54 z m 0.36,26.28 0.12,0 0,-64.82 -0.12,0 0,64.82 z m 0.36,-26.28 0.12,0 0,-38.54 -0.12,0 0,38.54 z m 0.36,2.52 0.12,0 0,-41.06 -0.12,0 0,41.06 z m 0.48,-2.52 0.12,0 0,-38.54 -0.12,0 0,38.54 z m 0.36,31.2 0.12,0 0,-69.74 -0.12,0 0,69.74 z m 0.36,-27.96 0.12,0 0,-41.78 -0.12,0 0,41.78 z m 0.36,10.68 0.12,0 0,-52.46 -0.12,0 0,52.46 z m 0.48,-13.08 0.12,0 0,-39.38 -0.12,0 0,39.38 z m 0.36,12.24 0.12,0 0,-51.62 -0.12,0 0,51.62 z m 0.36,26.28 0.12,0 0,-77.9 -0.12,0 0,77.9 z"
       style="fill:#5b9bd5;fill-opacity:1;fill-rule:nonzero;stroke:none"
       id="path11393"
       inkscape:connector-curvature="0" /><path
       d="m 121.73,585.22 390.57,0"
       style="fill:none;stroke:#d9d9d9;stroke-width:0.75;stroke-linecap:butt;stroke-linejoin:round;stroke-miterlimit:10;stroke-dasharray:none;stroke-opacity:1"
       id="path11395"
       inkscape:connector-curvature="0" /><g
       id="g11397"><g
         id="g11399"
         clip-path="url(#clipPath11401)"><text
           transform="matrix(1,0,0,-1,108.84,582.65)"
           style="font-variant:normal;font-weight:normal;font-size:9px;font-family:Calibri;-inkscape-font-specification:Calibri;writing-mode:lr-tb;fill:#595959;fill-opacity:1;fill-rule:nonzero;stroke:none"
           id="text11405"><tspan
             x="0"
             y="0"
             id="tspan11407">0</tspan></text>
</g></g><g
       id="g11409"><g
         id="g11411"
         clip-path="url(#clipPath11413)"><text
           transform="matrix(1,0,0,-1,104.28,599.06)"
           style="font-variant:normal;font-weight:normal;font-size:9px;font-family:Calibri;-inkscape-font-specification:Calibri;writing-mode:lr-tb;fill:#595959;fill-opacity:1;fill-rule:nonzero;stroke:none"
           id="text11417"><tspan
             x="0 4.5599999"
             y="0"
             sodipodi:role="line"
             id="tspan11419">20</tspan></text>
</g></g><g
       id="g11421"><g
         id="g11423"
         clip-path="url(#clipPath11425)"><text
           transform="matrix(1,0,0,-1,104.28,615.46)"
           style="font-variant:normal;font-weight:normal;font-size:9px;font-family:Calibri;-inkscape-font-specification:Calibri;writing-mode:lr-tb;fill:#595959;fill-opacity:1;fill-rule:nonzero;stroke:none"
           id="text11429"><tspan
             x="0 4.5599999"
             y="0"
             sodipodi:role="line"
             id="tspan11431">40</tspan></text>
</g></g><g
       id="g11433"><g
         id="g11435"
         clip-path="url(#clipPath11437)"><text
           transform="matrix(1,0,0,-1,104.28,631.87)"
           style="font-variant:normal;font-weight:normal;font-size:9px;font-family:Calibri;-inkscape-font-specification:Calibri;writing-mode:lr-tb;fill:#595959;fill-opacity:1;fill-rule:nonzero;stroke:none"
           id="text11441"><tspan
             x="0 4.5599999"
             y="0"
             sodipodi:role="line"
             id="tspan11443">60</tspan></text>
</g></g><g
       id="g11445"><g
         id="g11447"
         clip-path="url(#clipPath11449)"><text
           transform="matrix(1,0,0,-1,104.28,648.26)"
           style="font-variant:normal;font-weight:normal;font-size:9px;font-family:Calibri;-inkscape-font-specification:Calibri;writing-mode:lr-tb;fill:#595959;fill-opacity:1;fill-rule:nonzero;stroke:none"
           id="text11453"><tspan
             x="0 4.5599999"
             y="0"
             sodipodi:role="line"
             id="tspan11455">80</tspan></text>
</g></g><g
       id="g11457"><g
         id="g11459"
         clip-path="url(#clipPath11461)"><text
           transform="matrix(1,0,0,-1,99.72,664.68)"
           style="font-variant:normal;font-weight:normal;font-size:9px;font-family:Calibri;-inkscape-font-specification:Calibri;writing-mode:lr-tb;fill:#595959;fill-opacity:1;fill-rule:nonzero;stroke:none"
           id="text11465"><tspan
             x="0 4.5599999 9.1199999"
             y="0"
             sodipodi:role="line"
             id="tspan11467">100</tspan></text>
</g></g><g
       id="g11469"><g
         id="g11471"
         clip-path="url(#clipPath11473)"><text
           transform="matrix(1,0,0,-1,99.72,681.07)"
           style="font-variant:normal;font-weight:normal;font-size:9px;font-family:Calibri;-inkscape-font-specification:Calibri;writing-mode:lr-tb;fill:#595959;fill-opacity:1;fill-rule:nonzero;stroke:none"
           id="text11477"><tspan
             x="0 4.5599999 9.1199999"
             y="0"
             sodipodi:role="line"
             id="tspan11479">120</tspan></text>
</g></g><g
       id="g11481"><g
         id="g11483"
         clip-path="url(#clipPath11485)"><text
           transform="matrix(1,0,0,-1,99.72,697.49)"
           style="font-variant:normal;font-weight:normal;font-size:9px;font-family:Calibri;-inkscape-font-specification:Calibri;writing-mode:lr-tb;fill:#595959;fill-opacity:1;fill-rule:nonzero;stroke:none"
           id="text11489"><tspan
             x="0 4.5599999 9.1199999"
             y="0"
             sodipodi:role="line"
             id="tspan11491">140</tspan></text>
</g></g><g
       id="g11493"><g
         id="g11495"
         clip-path="url(#clipPath11497)"><text
           transform="matrix(1,0,0,-1,99.72,713.88)"
           style="font-variant:normal;font-weight:normal;font-size:9px;font-family:Calibri;-inkscape-font-specification:Calibri;writing-mode:lr-tb;fill:#595959;fill-opacity:1;fill-rule:nonzero;stroke:none"
           id="text11501"><tspan
             x="0 4.5599999 9.1199999"
             y="0"
             sodipodi:role="line"
             id="tspan11503">160</tspan></text>
</g></g><g
       id="g11505"><g
         id="g11507"
         clip-path="url(#clipPath11509)"><text
           transform="matrix(1,0,0,-1,99.72,730.27)"
           style="font-variant:normal;font-weight:normal;font-size:9px;font-family:Calibri;-inkscape-font-specification:Calibri;writing-mode:lr-tb;fill:#595959;fill-opacity:1;fill-rule:nonzero;stroke:none"
           id="text11513"><tspan
             x="0 4.5599999 9.1199999"
             y="0"
             sodipodi:role="line"
             id="tspan11515">180</tspan></text>
</g></g><g
       id="g11517"
       transform="matrix(0,-1,1,0,-455.21223,699.46615)"><g
         id="g11519"
         clip-path="url(#clipPath11521)"><text
           transform="matrix(-4.4e-8,1,1,4.4e-8,124.99,574.92)"
           style="font-variant:normal;font-weight:normal;font-size:9px;font-family:Calibri;-inkscape-font-specification:Calibri;writing-mode:lr-tb;fill:#595959;fill-opacity:1;fill-rule:nonzero;stroke:none"
           id="text11525"><tspan
             x="0"
             y="0"
             id="tspan11527">0</tspan></text>
</g></g><g
       id="g11721"
       transform="matrix(0,-1,1,0,-258.07985,887.15333)"><g
         id="g11723"
         clip-path="url(#clipPath11725)"><text
           transform="matrix(-4.4e-8,1,1,4.4e-8,317.38,565.8)"
           style="font-variant:normal;font-weight:normal;font-size:9px;font-family:Calibri;-inkscape-font-specification:Calibri;writing-mode:lr-tb;fill:#595959;fill-opacity:1;fill-rule:nonzero;stroke:none"
           id="text11729"><tspan
             sodipodi:role="line"
             id="tspan11731"
             x="0"
             y="0">500</tspan></text>
</g></g><g
       id="g11925"
       transform="matrix(0,-1,1,0,-65.695459,1079.5289)"><g
         id="g11927"
         clip-path="url(#clipPath11929)"><text
           transform="matrix(-4.4e-8,1,1,4.4e-8,509.76,565.8)"
           style="font-variant:normal;font-weight:normal;font-size:9px;font-family:Calibri;-inkscape-font-specification:Calibri;writing-mode:lr-tb;fill:#595959;fill-opacity:1;fill-rule:nonzero;stroke:none"
           id="text11933"><tspan
             sodipodi:role="line"
             id="tspan11935"
             x="0"
             y="0">1000</tspan></text>
</g></g><g
       id="g11937"
       transform="matrix(1.4076339,0,0,1.4076339,-40.588175,-273.13223)"><g
         id="g11939"
         clip-path="url(#clipPath11941)"><text
           transform="matrix(-4.4e-8,1,1,4.4e-8,94.008,634.2)"
           style="font-variant:normal;font-weight:normal;font-size:9.96000004px;font-family:Calibri;-inkscape-font-specification:Calibri;writing-mode:lr-tb;fill:#595959;fill-opacity:1;fill-rule:nonzero;stroke:none"
           id="text11945"><tspan
             x="0 8.5158005 10.8066 13.0974 15.3882 19.202881 24.123119 28.654921 33.95364 39.222481 44.491322"
             y="0"
             sodipodi:role="line"
             id="tspan11947">Milisekunde</tspan></text>
</g></g><g
       id="g11949"
       transform="matrix(1.4051414,0,0,1.4051414,-129.46547,-223.23542)"><g
         id="g11951"
         clip-path="url(#clipPath11953)"><text
           transform="matrix(1,0,0,-1,286.8,553.3)"
           style="font-variant:normal;font-weight:normal;font-size:9.96000004px;font-family:Calibri;-inkscape-font-specification:Calibri;writing-mode:lr-tb;fill:#595959;fill-opacity:1;fill-rule:nonzero;stroke:none"
           id="text11957"><tspan
             x="0 4.57164 8.0476799 12.81852 20.77656 25.67688 30.945721 36.214561 44.132759 52.050961 56.971199"
             y="0"
             sodipodi:role="line"
             id="tspan11959">Framenummer</tspan></text>
</g></g><g
       id="g11961"
       transform="matrix(1.5500859,0,0,1.5500859,-154.03054,-416.89747)"><g
         id="g11963"
         clip-path="url(#clipPath11965)"><text
           transform="matrix(1,0,0,-1,275.59,749.09)"
           style="font-variant:normal;font-weight:normal;font-size:14.03999996px;font-family:Calibri;-inkscape-font-specification:Calibri;writing-mode:lr-tb;fill:#595959;fill-opacity:1;fill-rule:nonzero;stroke:none"
           id="text11969"><tspan
             x="0 5.8968 12.62196 19.92276 24.12072 29.287439 36.279362 39.50856"
             y="0"
             sodipodi:role="line"
             id="tspan11971">Laufzeit</tspan></text>
</g></g><path
       style="fill:none;fill-rule:evenodd;stroke:#fe0000;stroke-width:0.40000001;stroke-linecap:butt;stroke-linejoin:miter;stroke-miterlimit:4;stroke-dasharray:none;stroke-opacity:1"
       d="m 121.57273,632.7165 390.68358,0"
       id="path12523"
       inkscape:connector-curvature="0" /></g></svg>