<?xml version="1.0" encoding="UTF-8" standalone="no"?>
<!-- Created with Inkscape (http://www.inkscape.org/) -->

<svg
   xmlns:dc="http://purl.org/dc/elements/1.1/"
   xmlns:cc="http://creativecommons.org/ns#"
   xmlns:rdf="http://www.w3.org/1999/02/22-rdf-syntax-ns#"
   xmlns:svg="http://www.w3.org/2000/svg"
   xmlns="http://www.w3.org/2000/svg"
   xmlns:sodipodi="http://sodipodi.sourceforge.net/DTD/sodipodi-0.dtd"
   xmlns:inkscape="http://www.inkscape.org/namespaces/inkscape"
   id="svg4136"
   version="1.1"
   inkscape:version="0.91 r13725"
   xml:space="preserve"
   width="565.0625"
   height="239.40625"
   viewBox="0 0 565.0625 239.40624"
   sodipodi:docname="laufzeit.svg"><metadata
     id="metadata4142"><rdf:RDF><cc:Work
         rdf:about=""><dc:format>image/svg+xml</dc:format><dc:type
           rdf:resource="http://purl.org/dc/dcmitype/StillImage" /><dc:title></dc:title></cc:Work></rdf:RDF></metadata><defs
     id="defs4140"><clipPath
       clipPathUnits="userSpaceOnUse"
       id="clipPath4156"><path
         d="m 126.6,627.36 378.36,0 0,100.68 -378.36,0 0,-100.68 z"
         id="path4158"
         inkscape:connector-curvature="0"
         style="clip-rule:evenodd" /></clipPath><clipPath
       clipPathUnits="userSpaceOnUse"
       id="clipPath4166"><path
         d="m 72,578.88 451.2,0 0,191.04 -451.2,0 0,-191.04 z"
         id="path4168"
         inkscape:connector-curvature="0"
         style="clip-rule:evenodd" /></clipPath><clipPath
       clipPathUnits="userSpaceOnUse"
       id="clipPath4178"><path
         d="m 72,578.88 451.2,0 0,191.04 -451.2,0 0,-191.04 z"
         id="path4180"
         inkscape:connector-curvature="0"
         style="clip-rule:evenodd" /></clipPath><clipPath
       clipPathUnits="userSpaceOnUse"
       id="clipPath4190"><path
         d="m 72,578.88 451.2,0 0,191.04 -451.2,0 0,-191.04 z"
         id="path4192"
         inkscape:connector-curvature="0"
         style="clip-rule:evenodd" /></clipPath><clipPath
       clipPathUnits="userSpaceOnUse"
       id="clipPath4202"><path
         d="m 72,578.88 451.2,0 0,191.04 -451.2,0 0,-191.04 z"
         id="path4204"
         inkscape:connector-curvature="0"
         style="clip-rule:evenodd" /></clipPath><clipPath
       clipPathUnits="userSpaceOnUse"
       id="clipPath4214"><path
         d="m 72,578.88 451.2,0 0,191.04 -451.2,0 0,-191.04 z"
         id="path4216"
         inkscape:connector-curvature="0"
         style="clip-rule:evenodd" /></clipPath><clipPath
       clipPathUnits="userSpaceOnUse"
       id="clipPath4226"><path
         d="m 72,578.88 451.2,0 0,191.04 -451.2,0 0,-191.04 z"
         id="path4228"
         inkscape:connector-curvature="0"
         style="clip-rule:evenodd" /></clipPath><clipPath
       clipPathUnits="userSpaceOnUse"
       id="clipPath4238"><path
         d="m 72,578.88 451.2,0 0,191.04 -451.2,0 0,-191.04 z"
         id="path4240"
         inkscape:connector-curvature="0"
         style="clip-rule:evenodd" /></clipPath><clipPath
       clipPathUnits="userSpaceOnUse"
       id="clipPath4250"><path
         d="m 72,578.88 451.2,0 0,191.04 -451.2,0 0,-191.04 z"
         id="path4252"
         inkscape:connector-curvature="0"
         style="clip-rule:evenodd" /></clipPath><clipPath
       clipPathUnits="userSpaceOnUse"
       id="clipPath4262"><path
         d="m 72,578.88 451.2,0 0,191.04 -451.2,0 0,-191.04 z"
         id="path4264"
         inkscape:connector-curvature="0"
         style="clip-rule:evenodd" /></clipPath><clipPath
       clipPathUnits="userSpaceOnUse"
       id="clipPath4274"><path
         d="m 72,578.88 451.2,0 0,191.04 -451.2,0 0,-191.04 z"
         id="path4276"
         inkscape:connector-curvature="0"
         style="clip-rule:evenodd" /></clipPath><clipPath
       clipPathUnits="userSpaceOnUse"
       id="clipPath4286"><path
         d="m 72,578.88 451.2,0 0,191.04 -451.2,0 0,-191.04 z"
         id="path4288"
         inkscape:connector-curvature="0"
         style="clip-rule:evenodd" /></clipPath><clipPath
       clipPathUnits="userSpaceOnUse"
       id="clipPath4298"><path
         d="m 72,578.88 451.2,0 0,191.04 -451.2,0 0,-191.04 z"
         id="path4300"
         inkscape:connector-curvature="0"
         style="clip-rule:evenodd" /></clipPath><clipPath
       clipPathUnits="userSpaceOnUse"
       id="clipPath4310"><path
         d="m 72,578.88 451.2,0 0,191.04 -451.2,0 0,-191.04 z"
         id="path4312"
         inkscape:connector-curvature="0"
         style="clip-rule:evenodd" /></clipPath><clipPath
       clipPathUnits="userSpaceOnUse"
       id="clipPath4322"><path
         d="m 72,578.88 451.2,0 0,191.04 -451.2,0 0,-191.04 z"
         id="path4324"
         inkscape:connector-curvature="0"
         style="clip-rule:evenodd" /></clipPath><clipPath
       clipPathUnits="userSpaceOnUse"
       id="clipPath4334"><path
         d="m 72,578.88 451.2,0 0,191.04 -451.2,0 0,-191.04 z"
         id="path4336"
         inkscape:connector-curvature="0"
         style="clip-rule:evenodd" /></clipPath><clipPath
       clipPathUnits="userSpaceOnUse"
       id="clipPath4346"><path
         d="m 72,578.88 451.2,0 0,191.04 -451.2,0 0,-191.04 z"
         id="path4348"
         inkscape:connector-curvature="0"
         style="clip-rule:evenodd" /></clipPath><clipPath
       clipPathUnits="userSpaceOnUse"
       id="clipPath4358"><path
         d="m 72,578.88 451.2,0 0,191.04 -451.2,0 0,-191.04 z"
         id="path4360"
         inkscape:connector-curvature="0"
         style="clip-rule:evenodd" /></clipPath><clipPath
       clipPathUnits="userSpaceOnUse"
       id="clipPath4370"><path
         d="m 72,578.88 451.2,0 0,191.04 -451.2,0 0,-191.04 z"
         id="path4372"
         inkscape:connector-curvature="0"
         style="clip-rule:evenodd" /></clipPath><clipPath
       clipPathUnits="userSpaceOnUse"
       id="clipPath4382"><path
         d="m 72,578.88 451.2,0 0,191.04 -451.2,0 0,-191.04 z"
         id="path4384"
         inkscape:connector-curvature="0"
         style="clip-rule:evenodd" /></clipPath><clipPath
       clipPathUnits="userSpaceOnUse"
       id="clipPath4394"><path
         d="m 72,578.88 451.2,0 0,191.04 -451.2,0 0,-191.04 z"
         id="path4396"
         inkscape:connector-curvature="0"
         style="clip-rule:evenodd" /></clipPath><clipPath
       clipPathUnits="userSpaceOnUse"
       id="clipPath4406"><path
         d="m 72,578.88 451.2,0 0,191.04 -451.2,0 0,-191.04 z"
         id="path4408"
         inkscape:connector-curvature="0"
         style="clip-rule:evenodd" /></clipPath><clipPath
       clipPathUnits="userSpaceOnUse"
       id="clipPath4418"><path
         d="m 72,578.88 451.2,0 0,191.04 -451.2,0 0,-191.04 z"
         id="path4420"
         inkscape:connector-curvature="0"
         style="clip-rule:evenodd" /></clipPath><clipPath
       clipPathUnits="userSpaceOnUse"
       id="clipPath4430"><path
         d="M -2.039e-6,568.8 595.32,568.8 l 0,201.12 -595.3200020389997,0 0,-201.12 z"
         id="path4432"
         inkscape:connector-curvature="0"
         style="clip-rule:evenodd" /></clipPath></defs><sodipodi:namedview
     pagecolor="#ffffff"
     bordercolor="#666666"
     borderopacity="1"
     objecttolerance="10"
     gridtolerance="10"
     guidetolerance="10"
     inkscape:pageopacity="0"
     inkscape:pageshadow="2"
     inkscape:window-width="1920"
     inkscape:window-height="1059"
     id="namedview4138"
     showgrid="false"
     inkscape:zoom="1.622957"
     inkscape:cx="211.11206"
     inkscape:cy="91.783873"
     inkscape:window-x="1912"
     inkscape:window-y="-8"
     inkscape:window-maximized="1"
     inkscape:current-layer="g4144"
     fit-margin-top="0"
     fit-margin-left="0"
     fit-margin-right="0"
     fit-margin-bottom="0" /><g
     id="g4144"
     inkscape:groupmode="layer"
     inkscape:label="laufzeit"
     transform="matrix(1.25,0,0,-1.25,-89.53125,962.4)"><path
       d="m 72,578.77 451.3,0 0,191.15 -451.3,0 0,-191.15 z"
       style="fill:#ffffff;fill-opacity:1;fill-rule:evenodd;stroke:none"
       id="path4146"
       inkscape:connector-curvature="0" /><path
       d="m 126.62,642.36 377.66,0 m -377.66,14.28 377.66,0 m -377.66,14.28 377.66,0 m -377.66,14.16 377.66,0 m -377.66,14.28 377.66,0 m -377.66,14.28 377.66,0 m -377.66,14.3 377.66,0"
       style="fill:none;stroke:#d9d9d9;stroke-width:0.75;stroke-linecap:butt;stroke-linejoin:round;stroke-miterlimit:10;stroke-dasharray:none;stroke-opacity:1"
       id="path4148"
       inkscape:connector-curvature="0" /><path
       d="m 126.62,628.06 377.66,0"
       style="fill:none;stroke:#d9d9d9;stroke-width:0.75;stroke-linecap:butt;stroke-linejoin:round;stroke-miterlimit:10;stroke-dasharray:none;stroke-opacity:1"
       id="path4150"
       inkscape:connector-curvature="0" /><g
       id="g4152"><g
         id="g4154"
         clip-path="url(#clipPath4156)"><path
           d="m 127.56,716.96 1.92,-15.08 1.8,-3.48 1.92,-9.12 1.92,-26.97 1.8,11.85 1.92,-4.92 1.92,1.44 1.8,-5.52 1.92,2.16 1.92,1.8 1.8,4.32 1.92,-5.76 1.92,-2.64 1.8,2.88 1.92,5.28 1.92,-2.28 1.8,-4.56 1.92,0.96 1.8,7.8 1.92,-3.84 1.92,-3.84 1.8,-4.56 1.92,6.6 1.92,-0.24 1.8,0.6 1.92,-5.16 1.92,4.32 1.8,1.2 1.92,2.4 1.92,-4.44 1.8,-0.84 1.92,-0.12 1.92,5.76 1.8,-3.72 1.92,-1.56 1.92,0.36 1.8,-3.48 1.92,8.04 1.92,2.28 1.8,-11.28 1.92,3.36 1.92,3.72 1.8,0.36 1.92,-6.6 1.92,2.4 1.8,-3.84 1.92,13.68 1.92,-5.4 1.8,-6.84 1.92,2.28 1.92,4.2 1.8,-1.92 1.92,-3.84 1.8,2.88 1.92,-1.08 1.92,5.88 1.8,-0.6 1.92,-8.88 1.92,7.08 1.8,3.24 1.92,4.8 1.92,-6.6 1.8,2.52 1.92,-6.96 1.92,11.16 1.8,-2.16 1.92,-4.32 1.92,1.32 1.8,0.72 1.92,-2.76 1.92,-0.36 1.8,-4.08 1.92,-2.28 1.92,6 1.8,5.04 1.92,-10.8 1.92,3.96 1.8,-2.16 1.92,7.68 1.92,-6.36 1.8,-1.32 1.92,-3.36 1.92,4.8 1.8,4.8 1.92,-4.56 1.92,-1.56 1.8,-0.24 1.92,3.6 1.92,0.84 1.8,-1.44 1.92,4.32 1.8,-0.48 1.92,4.08 1.92,-9.12 1.8,5.64 1.92,-4.08 1.92,7.2 1.8,-4.32 1.92,3.48 1.92,-6.84 1.8,3.72 1.92,2.4 1.92,-1.68 1.8,-2.88 1.92,-4.44 1.92,0.72 1.8,6 1.92,-1.08 1.92,-6.12 1.8,1.8 1.92,10.08 1.92,-10.68 1.8,-0.72 1.92,-1.92 1.92,4.08 1.8,4.68 1.92,-2.04 1.92,-6 1.8,3.84 1.92,1.2 1.92,0.6 1.8,-3.84 1.92,0.84 1.92,-3.48 1.8,5.4 1.92,3.48 1.8,-6.24 1.92,0.12 1.92,-0.12 1.8,-1.2 1.92,7.44 1.92,-8.76 1.8,2.64 1.92,3.6 1.92,1.68 1.8,-9.6 1.92,3.6 1.92,1.08 1.8,4.8 1.92,-1.92 1.92,-6.36 1.8,0.12 1.92,6 1.92,0.84 1.8,-7.2 1.92,3.48 1.92,5.16 1.8,0.36 1.92,3.24 1.92,-4.44 1.8,4.08 1.92,-4.44 1.92,5.52 1.8,-7.68 1.92,7.44 1.92,0 1.8,-0.84 1.92,-3.96 1.92,-2.76 1.8,-2.76 1.92,-1.32 1.92,5.52 1.8,-0.96 1.92,-2.76 1.8,-0.12 1.92,0.12 1.92,6.84 1.8,-9 1.92,2.04 1.92,-2.52 1.8,8.4 1.92,-6.24 1.92,0.24 1.8,0.12 1.92,1.56 1.92,6.24 1.8,-5.4 1.92,-5.16 1.92,2.4 1.8,7.08 1.92,-4.68 1.92,-2.64 1.8,4.32 1.92,-8.13 1.92,10.17 1.8,-4.92 1.92,2.04 1.92,-5.76 1.8,7.32 1.92,-3.84 1.92,1.92 1.8,-2.88 1.92,-2.64 1.92,8.52 1.8,-1.92 1.92,-5.64 1.92,-0.48 1.8,2.4 1.92,5.88 1.86,23.4"
           style="fill:none;stroke:#5b9bd5;stroke-width:2.25;stroke-linecap:round;stroke-linejoin:round;stroke-miterlimit:10;stroke-dasharray:none;stroke-opacity:1"
           id="path4160"
           inkscape:connector-curvature="0" /></g></g><g
       id="g4162"><g
         id="g4164"
         clip-path="url(#clipPath4166)"><text
           transform="matrix(1,0,0,-1,113.74,625.49)"
           style="font-variant:normal;font-weight:normal;font-size:9px;font-family:Calibri;-inkscape-font-specification:Calibri;writing-mode:lr-tb;fill:#595959;fill-opacity:1;fill-rule:nonzero;stroke:none"
           id="text4170"><tspan
             x="0"
             y="0"
             id="tspan4172">0</tspan></text>
</g></g><g
       id="g4174"><g
         id="g4176"
         clip-path="url(#clipPath4178)"><text
           transform="matrix(1,0,0,-1,109.18,639.77)"
           style="font-variant:normal;font-weight:normal;font-size:9px;font-family:Calibri;-inkscape-font-specification:Calibri;writing-mode:lr-tb;fill:#595959;fill-opacity:1;fill-rule:nonzero;stroke:none"
           id="text4182"><tspan
             x="0 4.5599999"
             y="0"
             sodipodi:role="line"
             id="tspan4184">20</tspan></text>
</g></g><g
       id="g4186"><g
         id="g4188"
         clip-path="url(#clipPath4190)"><text
           transform="matrix(1,0,0,-1,109.18,654.05)"
           style="font-variant:normal;font-weight:normal;font-size:9px;font-family:Calibri;-inkscape-font-specification:Calibri;writing-mode:lr-tb;fill:#595959;fill-opacity:1;fill-rule:nonzero;stroke:none"
           id="text4194"><tspan
             x="0 4.5599999"
             y="0"
             sodipodi:role="line"
             id="tspan4196">40</tspan></text>
</g></g><g
       id="g4198"><g
         id="g4200"
         clip-path="url(#clipPath4202)"><text
           transform="matrix(1,0,0,-1,109.18,668.3)"
           style="font-variant:normal;font-weight:normal;font-size:9px;font-family:Calibri;-inkscape-font-specification:Calibri;writing-mode:lr-tb;fill:#595959;fill-opacity:1;fill-rule:nonzero;stroke:none"
           id="text4206"><tspan
             x="0 4.5599999"
             y="0"
             sodipodi:role="line"
             id="tspan4208">60</tspan></text>
</g></g><g
       id="g4210"><g
         id="g4212"
         clip-path="url(#clipPath4214)"><text
           transform="matrix(1,0,0,-1,109.18,682.58)"
           style="font-variant:normal;font-weight:normal;font-size:9px;font-family:Calibri;-inkscape-font-specification:Calibri;writing-mode:lr-tb;fill:#595959;fill-opacity:1;fill-rule:nonzero;stroke:none"
           id="text4218"><tspan
             x="0 4.5599999"
             y="0"
             sodipodi:role="line"
             id="tspan4220">80</tspan></text>
</g></g><g
       id="g4222"><g
         id="g4224"
         clip-path="url(#clipPath4226)"><text
           transform="matrix(1,0,0,-1,104.62,696.86)"
           style="font-variant:normal;font-weight:normal;font-size:9px;font-family:Calibri;-inkscape-font-specification:Calibri;writing-mode:lr-tb;fill:#595959;fill-opacity:1;fill-rule:nonzero;stroke:none"
           id="text4230"><tspan
             x="0 4.5599999 9.1199999"
             y="0"
             sodipodi:role="line"
             id="tspan4232">100</tspan></text>
</g></g><g
       id="g4234"><g
         id="g4236"
         clip-path="url(#clipPath4238)"><text
           transform="matrix(1,0,0,-1,104.62,711.12)"
           style="font-variant:normal;font-weight:normal;font-size:9px;font-family:Calibri;-inkscape-font-specification:Calibri;writing-mode:lr-tb;fill:#595959;fill-opacity:1;fill-rule:nonzero;stroke:none"
           id="text4242"><tspan
             x="0 4.5599999 9.1199999"
             y="0"
             sodipodi:role="line"
             id="tspan4244">120</tspan></text>
</g></g><g
       id="g4246"><g
         id="g4248"
         clip-path="url(#clipPath4250)"><text
           transform="matrix(1,0,0,-1,104.62,725.4)"
           style="font-variant:normal;font-weight:normal;font-size:9px;font-family:Calibri;-inkscape-font-specification:Calibri;writing-mode:lr-tb;fill:#595959;fill-opacity:1;fill-rule:nonzero;stroke:none"
           id="text4254"><tspan
             x="0 4.5599999 9.1199999"
             y="0"
             sodipodi:role="line"
             id="tspan4256">140</tspan></text>
</g></g><g
       id="g4258"><g
         id="g4260"
         clip-path="url(#clipPath4262)"><text
           transform="matrix(1,0,0,-1,125.3,613.8)"
           style="font-variant:normal;font-weight:normal;font-size:9px;font-family:Calibri;-inkscape-font-specification:Calibri;writing-mode:lr-tb;fill:#595959;fill-opacity:1;fill-rule:nonzero;stroke:none"
           id="text4266"><tspan
             x="0"
             y="0"
             id="tspan4268">0</tspan></text>
</g></g><g
       id="g4270"><g
         id="g4272"
         clip-path="url(#clipPath4274)"><text
           transform="matrix(1,0,0,-1,158.33,613.8)"
           style="font-variant:normal;font-weight:normal;font-size:9px;font-family:Calibri;-inkscape-font-specification:Calibri;writing-mode:lr-tb;fill:#595959;fill-opacity:1;fill-rule:nonzero;stroke:none"
           id="text4278"><tspan
             x="0 4.5599999 9.1199999"
             y="0"
             sodipodi:role="line"
             id="tspan4280">100</tspan></text>
</g></g><g
       id="g4282"><g
         id="g4284"
         clip-path="url(#clipPath4286)"><text
           transform="matrix(1,0,0,-1,195.91,613.8)"
           style="font-variant:normal;font-weight:normal;font-size:9px;font-family:Calibri;-inkscape-font-specification:Calibri;writing-mode:lr-tb;fill:#595959;fill-opacity:1;fill-rule:nonzero;stroke:none"
           id="text4290"><tspan
             x="0 4.5599999 9.1199999"
             y="0"
             sodipodi:role="line"
             id="tspan4292">200</tspan></text>
</g></g><g
       id="g4294"><g
         id="g4296"
         clip-path="url(#clipPath4298)"><text
           transform="matrix(1,0,0,-1,233.5,613.8)"
           style="font-variant:normal;font-weight:normal;font-size:9px;font-family:Calibri;-inkscape-font-specification:Calibri;writing-mode:lr-tb;fill:#595959;fill-opacity:1;fill-rule:nonzero;stroke:none"
           id="text4302"><tspan
             x="0 4.5599999 9.1199999"
             y="0"
             sodipodi:role="line"
             id="tspan4304">300</tspan></text>
</g></g><g
       id="g4306"><g
         id="g4308"
         clip-path="url(#clipPath4310)"><text
           transform="matrix(1,0,0,-1,271.08,613.8)"
           style="font-variant:normal;font-weight:normal;font-size:9px;font-family:Calibri;-inkscape-font-specification:Calibri;writing-mode:lr-tb;fill:#595959;fill-opacity:1;fill-rule:nonzero;stroke:none"
           id="text4314"><tspan
             x="0 4.5599999 9.1199999"
             y="0"
             sodipodi:role="line"
             id="tspan4316">400</tspan></text>
</g></g><g
       id="g4318"><g
         id="g4320"
         clip-path="url(#clipPath4322)"><text
           transform="matrix(1,0,0,-1,308.66,613.8)"
           style="font-variant:normal;font-weight:normal;font-size:9px;font-family:Calibri;-inkscape-font-specification:Calibri;writing-mode:lr-tb;fill:#595959;fill-opacity:1;fill-rule:nonzero;stroke:none"
           id="text4326"><tspan
             x="0 4.5599999 9.1199999"
             y="0"
             sodipodi:role="line"
             id="tspan4328">500</tspan></text>
</g></g><g
       id="g4330"><g
         id="g4332"
         clip-path="url(#clipPath4334)"><text
           transform="matrix(1,0,0,-1,346.25,613.8)"
           style="font-variant:normal;font-weight:normal;font-size:9px;font-family:Calibri;-inkscape-font-specification:Calibri;writing-mode:lr-tb;fill:#595959;fill-opacity:1;fill-rule:nonzero;stroke:none"
           id="text4338"><tspan
             x="0 4.5599999 9.1199999"
             y="0"
             sodipodi:role="line"
             id="tspan4340">600</tspan></text>
</g></g><g
       id="g4342"><g
         id="g4344"
         clip-path="url(#clipPath4346)"><text
           transform="matrix(1,0,0,-1,383.83,613.8)"
           style="font-variant:normal;font-weight:normal;font-size:9px;font-family:Calibri;-inkscape-font-specification:Calibri;writing-mode:lr-tb;fill:#595959;fill-opacity:1;fill-rule:nonzero;stroke:none"
           id="text4350"><tspan
             x="0 4.5599999 9.1199999"
             y="0"
             sodipodi:role="line"
             id="tspan4352">700</tspan></text>
</g></g><g
       id="g4354"><g
         id="g4356"
         clip-path="url(#clipPath4358)"><text
           transform="matrix(1,0,0,-1,421.42,613.8)"
           style="font-variant:normal;font-weight:normal;font-size:9px;font-family:Calibri;-inkscape-font-specification:Calibri;writing-mode:lr-tb;fill:#595959;fill-opacity:1;fill-rule:nonzero;stroke:none"
           id="text4362"><tspan
             x="0 4.5599999 9.1199999"
             y="0"
             sodipodi:role="line"
             id="tspan4364">800</tspan></text>
</g></g><g
       id="g4366"><g
         id="g4368"
         clip-path="url(#clipPath4370)"><text
           transform="matrix(1,0,0,-1,459,613.8)"
           style="font-variant:normal;font-weight:normal;font-size:9px;font-family:Calibri;-inkscape-font-specification:Calibri;writing-mode:lr-tb;fill:#595959;fill-opacity:1;fill-rule:nonzero;stroke:none"
           id="text4374"><tspan
             x="0 4.5599999 9.1199999"
             y="0"
             sodipodi:role="line"
             id="tspan4376">900</tspan></text>
</g></g><g
       id="g4378"><g
         id="g4380"
         clip-path="url(#clipPath4382)"><text
           transform="matrix(1,0,0,-1,494.3,613.8)"
           style="font-variant:normal;font-weight:normal;font-size:9px;font-family:Calibri;-inkscape-font-specification:Calibri;writing-mode:lr-tb;fill:#595959;fill-opacity:1;fill-rule:nonzero;stroke:none"
           id="text4386"><tspan
             x="0 4.5599999 9.1199999 13.68"
             y="0"
             sodipodi:role="line"
             id="tspan4388">1000</tspan></text>
</g></g><g
       id="g4390"><g
         id="g4392"
         clip-path="url(#clipPath4394)"><text
           transform="matrix(-4.4e-8,1,1,4.4e-8,88.416,630.34)"
           style="font-variant:normal;font-weight:normal;font-size:14.03999996px;font-family:Calibri;-inkscape-font-specification:Calibri;writing-mode:lr-tb;fill:#595959;fill-opacity:1;fill-rule:nonzero;stroke:none"
           id="text4398"><tspan
             sodipodi:role="line"
             id="tspan4400"
             x="0"
             y="0">Millisekunden</tspan></text>
</g></g><g
       id="g4402"><g
         id="g4404"
         clip-path="url(#clipPath4406)"><text
           transform="matrix(1,0,0,-1,279.12,584.02)"
           style="font-variant:normal;font-weight:normal;font-size:14.03999996px;font-family:Calibri;-inkscape-font-specification:Calibri;writing-mode:lr-tb;fill:#595959;fill-opacity:1;fill-rule:nonzero;stroke:none"
           id="text4410"><tspan
             x="0 6.4443598 11.1618 17.886959 29.048759 36.04068 43.327438 50.642281 61.804081 72.965881 79.957802"
             y="0"
             sodipodi:role="line"
             id="tspan4412">Framenummer</tspan></text>
</g></g><g
       id="g4414"><g
         id="g4416"
         clip-path="url(#clipPath4418)"><text
           transform="matrix(1,0,0,-1,203.57,745.25)"
           style="font-variant:normal;font-weight:normal;font-size:18px;font-family:Calibri;-inkscape-font-specification:Calibri;writing-mode:lr-tb;fill:#595959;fill-opacity:1;fill-rule:nonzero;stroke:none"
           id="text4422"><tspan
             x="0 11.07 20.52 26.514 34.074001 43.523998 50.616001 58.175999 67.625999 77.112 81.197998 86.958 92.987999 97.038002 101.124 108.684 118.134 127.152 131.328 138.888 147.50999 156.96001 162.45 169.12801 178.092 182.23199"
             y="0"
             sodipodi:role="line"
             id="tspan4424">Durchschnittliche Laufzeit</tspan></text>
</g></g><g
       id="g4426"><g
         id="g4428"
         clip-path="url(#clipPath4430)"><path
           d="m 72,578.77 451.3,0 0,191.15 -451.3,0 0,-191.15 z"
           style="fill:none;stroke:#d9d9d9;stroke-width:0.75;stroke-linecap:butt;stroke-linejoin:round;stroke-miterlimit:10;stroke-dasharray:none;stroke-opacity:1"
           id="path4434"
           inkscape:connector-curvature="0" /></g></g></g></svg>