<?xml version="1.0" encoding="UTF-8" standalone="no"?>
<!-- Created with Inkscape (http://www.inkscape.org/) -->

<svg
   xmlns:dc="http://purl.org/dc/elements/1.1/"
   xmlns:cc="http://creativecommons.org/ns#"
   xmlns:rdf="http://www.w3.org/1999/02/22-rdf-syntax-ns#"
   xmlns:svg="http://www.w3.org/2000/svg"
   xmlns="http://www.w3.org/2000/svg"
   xmlns:sodipodi="http://sodipodi.sourceforge.net/DTD/sodipodi-0.dtd"
   xmlns:inkscape="http://www.inkscape.org/namespaces/inkscape"
   id="svg4136"
   version="1.1"
   inkscape:version="0.91 r13725"
   xml:space="preserve"
   width="678.5174"
   height="483.85617"
   viewBox="0 0 678.5174 483.85617"
   sodipodi:docname="vibe.svg"><metadata
     id="metadata4142"><rdf:RDF><cc:Work
         rdf:about=""><dc:format>image/svg+xml</dc:format><dc:type
           rdf:resource="http://purl.org/dc/dcmitype/StillImage" /><dc:title></dc:title></cc:Work></rdf:RDF></metadata><defs
     id="defs4140"><clipPath
       clipPathUnits="userSpaceOnUse"
       id="clipPath4154"><path
         d="M 0,0 543,0 543,388 0,388 0,0 Z"
         id="path4156"
         inkscape:connector-curvature="0" /></clipPath><clipPath
       clipPathUnits="userSpaceOnUse"
       id="clipPath4208"><path
         d="m -1.227,390.453 0,-393.656 546.704,0 0,393.656 -546.704,0 z m 14.09,-30.098 0,29.168 -11.91,0 0,-29.168 5.953,24.391 5.957,-24.391 z"
         id="path4210"
         inkscape:connector-curvature="0" /></clipPath><clipPath
       clipPathUnits="userSpaceOnUse"
       id="clipPath4218"><path
         d="M 6,22 8,22 8,388 6,388 6,22 Z"
         id="path4220"
         inkscape:connector-curvature="0" /></clipPath><clipPath
       clipPathUnits="userSpaceOnUse"
       id="clipPath4240"><path
         d="m -1.227,390.453 0,-393.656 546.704,0 0,393.656 -546.704,0 z m 259.317,-66.984 -8.434,12.703 -4.965,-3.457 8.536,-12.703 -4.27,11.687 9.133,-8.23 z m 60.238,-99.492 8.434,-12.704 4.965,3.457 -8.536,12.704 4.368,-11.789 -9.231,8.332 z"
         id="path4242"
         inkscape:connector-curvature="0" /></clipPath><clipPath
       clipPathUnits="userSpaceOnUse"
       id="clipPath4250"><path
         d="m 247,214 82,0 0,120 -82,0 0,-120 z"
         id="path4252"
         inkscape:connector-curvature="0" /></clipPath><clipPath
       clipPathUnits="userSpaceOnUse"
       id="clipPath4274"><path
         d="m -1.227,390.453 0,-393.656 546.704,0 0,393.656 -546.704,0 z M 515.82,16.055 l 28.485,0 0,12.195 -28.485,0 23.817,-6.098 -23.817,-6.097 z"
         id="path4276"
         inkscape:connector-curvature="0" /></clipPath><clipPath
       clipPathUnits="userSpaceOnUse"
       id="clipPath4284"><path
         d="m 6,21 537,0 0,2 -537,0 0,-2 z"
         id="path4286"
         inkscape:connector-curvature="0" /></clipPath></defs><sodipodi:namedview
     pagecolor="#ffffff"
     bordercolor="#666666"
     borderopacity="1"
     objecttolerance="10"
     gridtolerance="10"
     guidetolerance="10"
     inkscape:pageopacity="0"
     inkscape:pageshadow="2"
     inkscape:window-width="1920"
     inkscape:window-height="1059"
     id="namedview4138"
     showgrid="false"
     inkscape:zoom="0.86802655"
     inkscape:cx="175.29326"
     inkscape:cy="449.586"
     inkscape:window-x="1912"
     inkscape:window-y="-8"
     inkscape:window-maximized="1"
     inkscape:current-layer="g4144" /><g
     id="g4144"
     inkscape:groupmode="layer"
     inkscape:label="vibe"
     transform="matrix(1.25,0,0,-1.25,0,483.85616)"><g
       transform="translate(0,-0.91507)"
       id="g4148"><g
         id="g4150"><g
           clip-path="url(#clipPath4154)"
           id="g4152"><g
             id="g4158"><path
               inkscape:connector-curvature="0"
               id="path4160"
               style="fill:#000000;fill-opacity:1;fill-rule:evenodd;stroke:none"
               d="m 91.758,118.188 c 0,-5.051 -3.996,-9.149 -8.93,-9.149 -4.933,0 -8.933,4.098 -8.933,9.149 0,5.05 4,9.144 8.933,9.144 4.934,0 8.93,-4.094 8.93,-9.144" /><g
               transform="matrix(0.976553,0,0,1,0,388)"
               id="g4162"><path
                 inkscape:connector-curvature="0"
                 id="path4164"
                 style="fill:none;stroke:#000000;stroke-width:1.524369;stroke-linecap:butt;stroke-linejoin:miter;stroke-miterlimit:10;stroke-dasharray:none;stroke-opacity:1"
                 d="m 93.961,-269.813 c 0,-5.05 -4.092,-9.148 -9.144,-9.148 -5.052,0 -9.148,4.098 -9.148,9.148 0,5.051 4.096,9.145 9.148,9.145 5.052,0 9.144,-4.094 9.144,-9.145 z" /></g><path
               inkscape:connector-curvature="0"
               id="path4166"
               style="fill:#000000;fill-opacity:1;fill-rule:evenodd;stroke:none"
               d="m 243.598,81.602 c 0,-5.051 -3.996,-9.145 -8.93,-9.145 -4.934,0 -8.93,4.094 -8.93,9.145 0,5.05 3.996,9.144 8.93,9.144 4.934,0 8.93,-4.094 8.93,-9.144" /><g
               transform="matrix(0.976553,0,0,1,0,388)"
               id="g4168"><path
                 inkscape:connector-curvature="0"
                 id="path4170"
                 style="fill:none;stroke:#000000;stroke-width:1.524369;stroke-linecap:butt;stroke-linejoin:miter;stroke-miterlimit:10;stroke-dasharray:none;stroke-opacity:1"
                 d="m 249.446,-306.398 c 0,-5.051 -4.092,-9.145 -9.144,-9.145 -5.052,0 -9.144,4.094 -9.144,9.145 0,5.05 4.092,9.144 9.144,9.144 5.052,0 9.144,-4.094 9.144,-9.144 z" /></g><path
               inkscape:connector-curvature="0"
               id="path4172"
               style="fill:#000000;fill-opacity:1;fill-rule:evenodd;stroke:none"
               d="m 154.281,241.66 c 0,-5.051 -4,-9.144 -8.929,-9.144 -4.934,0 -8.934,4.093 -8.934,9.144 0,5.051 4,9.145 8.934,9.145 4.929,0 8.929,-4.094 8.929,-9.145" /><g
               transform="matrix(0.976553,0,0,1,0,388)"
               id="g4174"><path
                 inkscape:connector-curvature="0"
                 id="path4176"
                 style="fill:none;stroke:#000000;stroke-width:1.524369;stroke-linecap:butt;stroke-linejoin:miter;stroke-miterlimit:10;stroke-dasharray:none;stroke-opacity:1"
                 d="m 157.986,-146.34 c 0,-5.051 -4.097,-9.144 -9.145,-9.144 -5.052,0 -9.148,4.093 -9.148,9.144 0,5.051 4.096,9.145 9.148,9.145 5.048,0 9.145,-4.094 9.145,-9.145 z" /></g><path
               inkscape:connector-curvature="0"
               id="path4178"
               style="fill:#000000;fill-opacity:1;fill-rule:evenodd;stroke:none"
               d="m 248.066,177.637 c 0,-5.051 -4,-9.149 -8.933,-9.149 -4.93,0 -8.93,4.098 -8.93,9.149 0,5.051 4,9.148 8.93,9.148 4.933,0 8.933,-4.097 8.933,-9.148" /><g
               transform="matrix(0.976553,0,0,1,0,388)"
               id="g4180"><path
                 inkscape:connector-curvature="0"
                 id="path4182"
                 style="fill:none;stroke:#000000;stroke-width:1.524369;stroke-linecap:butt;stroke-linejoin:miter;stroke-miterlimit:10;stroke-dasharray:none;stroke-opacity:1"
                 d="m 254.022,-210.363 c 0,-5.051 -4.096,-9.149 -9.148,-9.149 -5.048,0 -9.144,4.098 -9.144,9.149 0,5.05 4.096,9.148 9.144,9.148 5.052,0 9.148,-4.098 9.148,-9.148 z" /></g><path
               inkscape:connector-curvature="0"
               id="path4184"
               style="fill:#000000;fill-opacity:1;fill-rule:evenodd;stroke:none"
               d="m 100.691,323.977 c 0,-5.051 -4,-9.149 -8.933,-9.149 -4.93,0 -8.93,4.098 -8.93,9.149 0,5.05 4,9.144 8.93,9.144 4.933,0 8.933,-4.094 8.933,-9.144" /><g
               transform="matrix(0.976553,0,0,1,0,388)"
               id="g4186"><path
                 inkscape:connector-curvature="0"
                 id="path4188"
                 style="fill:none;stroke:#000000;stroke-width:1.524369;stroke-linecap:butt;stroke-linejoin:miter;stroke-miterlimit:10;stroke-dasharray:none;stroke-opacity:1"
                 d="m 103.109,-64.023 c 0,-5.051 -4.096,-9.149 -9.148,-9.149 -5.048,0 -9.144,4.098 -9.144,9.149 0,5.05 4.096,9.144 9.144,9.144 5.052,0 9.148,-4.094 9.148,-9.144 z" /></g><path
               inkscape:connector-curvature="0"
               id="path4190"
               style="fill:#000000;fill-opacity:1;fill-rule:evenodd;stroke:none"
               d="m 288.258,141.051 c 0,-5.051 -4,-9.145 -8.934,-9.145 -4.929,0 -8.929,4.094 -8.929,9.145 0,5.051 4,9.148 8.929,9.148 4.934,0 8.934,-4.097 8.934,-9.148" /><g
               transform="matrix(0.976553,0,0,1,0,388)"
               id="g4192"><path
                 inkscape:connector-curvature="0"
                 id="path4194"
                 style="fill:none;stroke:#000000;stroke-width:1.524369;stroke-linecap:butt;stroke-linejoin:miter;stroke-miterlimit:10;stroke-dasharray:none;stroke-opacity:1"
                 d="m 295.179,-246.949 c 0,-5.051 -4.096,-9.145 -9.148,-9.145 -5.048,0 -9.144,4.094 -9.144,9.145 0,5.051 4.096,9.148 9.144,9.148 5.052,0 9.148,-4.097 9.148,-9.148 z" /></g><g
               transform="matrix(0.976553,0,0,1,0,388)"
               id="g4196"><path
                 inkscape:connector-curvature="0"
                 id="path4198"
                 style="fill:none;stroke:#000000;stroke-width:0.76218402;stroke-linecap:butt;stroke-linejoin:miter;stroke-miterlimit:10;stroke-dasharray:6.910471, 3.455236, 1.524369, 3.455236;stroke-dashoffset:0;stroke-opacity:1"
                 d="m 482.269,-173.777 c 0,-80.598 -65.337,-145.934 -145.93,-145.934 -80.597,0 -145.933,65.336 -145.933,145.934 0,80.593 65.336,145.933 145.933,145.933 80.593,0 145.93,-65.34 145.93,-145.933 z" /></g><g
               transform="matrix(0.976553,0,0,1,0,388)"
               id="g4200"><path
                 inkscape:connector-curvature="0"
                 id="path4202"
                 style="fill:none;stroke:#000000;stroke-width:1.524369;stroke-linecap:butt;stroke-linejoin:miter;stroke-miterlimit:10;stroke-dasharray:none;stroke-opacity:1"
                 d="m 349.243,-173.777 c 0,-7.129 -5.776,-12.907 -12.904,-12.907 -7.128,0 -12.908,5.778 -12.908,12.907 0,7.125 5.78,12.906 12.908,12.906 7.128,0 12.904,-5.781 12.904,-12.906 z" /></g></g><g
             id="g4204"><g
               clip-path="url(#clipPath4208)"
               id="g4206"><g
                 id="g4212"><g
                   id="g4214"><g
                     clip-path="url(#clipPath4218)"
                     id="g4216"><g
                       id="g4222"><g
                         transform="matrix(0.976553,0,0,1,0,388)"
                         id="g4224"><path
                           inkscape:connector-curvature="0"
                           id="path4226"
                           style="fill:none;stroke:#000000;stroke-width:1.524369;stroke-linecap:butt;stroke-linejoin:miter;stroke-miterlimit:10;stroke-dasharray:none;stroke-opacity:1"
                           d="M 7.072,-365.848 7.072,0" /></g></g></g></g></g></g></g><g
             id="g4228"><path
               inkscape:connector-curvature="0"
               id="path4230"
               style="fill:#000000;fill-opacity:1;fill-rule:evenodd;stroke:none"
               d="m 12.863,360.355 -5.957,24.391 -5.953,-24.391 11.91,0" /><g
               transform="matrix(0.976553,0,0,1,0,388)"
               id="g4232"><path
                 inkscape:connector-curvature="0"
                 id="path4234"
                 style="fill:none;stroke:#000000;stroke-width:1.524369;stroke-linecap:butt;stroke-linejoin:miter;stroke-miterlimit:10;stroke-dasharray:none;stroke-opacity:1"
                 d="m 13.172,-27.645 -6.1,24.391 -6.096,-24.391 12.196,0 z" /></g></g><g
             id="g4236"><g
               clip-path="url(#clipPath4240)"
               id="g4238"><g
                 id="g4244"><g
                   id="g4246"><g
                     clip-path="url(#clipPath4250)"
                     id="g4248"><g
                       id="g4254"><g
                         transform="matrix(0.976553,0,0,1,0,388)"
                         id="g4256"><path
                           inkscape:connector-curvature="0"
                           id="path4258"
                           style="fill:none;stroke:#000000;stroke-width:0.76218402;stroke-linecap:butt;stroke-linejoin:miter;stroke-miterlimit:10;stroke-dasharray:none;stroke-opacity:1"
                           d="M 336.339,-173.777 254.022,-54.879" /></g></g></g></g></g></g></g><g
             id="g4260"><g
               transform="matrix(0.976553,0,0,1,0,388)"
               id="g4262"><path
                 inkscape:connector-curvature="0"
                 id="path4264"
                 style="fill:none;stroke:#000000;stroke-width:0.76218402;stroke-linecap:butt;stroke-linejoin:miter;stroke-miterlimit:10;stroke-dasharray:none;stroke-opacity:1"
                 d="m 325.971,-164.023 9.452,-8.332 -4.472,11.789" /></g><g
               transform="matrix(0.976553,0,0,1,0,388)"
               id="g4266"><path
                 inkscape:connector-curvature="0"
                 id="path4268"
                 style="fill:none;stroke:#000000;stroke-width:0.76218402;stroke-linecap:butt;stroke-linejoin:miter;stroke-miterlimit:10;stroke-dasharray:none;stroke-opacity:1"
                 d="m 264.287,-64.531 -9.353,8.23 4.372,-11.687" /></g></g><g
             id="g4270"><g
               clip-path="url(#clipPath4274)"
               id="g4272"><g
                 id="g4278"><g
                   id="g4280"><g
                     clip-path="url(#clipPath4284)"
                     id="g4282"><g
                       id="g4288"><g
                         transform="matrix(0.976553,0,0,1,0,388)"
                         id="g4290"><path
                           inkscape:connector-curvature="0"
                           id="path4292"
                           style="fill:none;stroke:#000000;stroke-width:1.524369;stroke-linecap:butt;stroke-linejoin:miter;stroke-miterlimit:10;stroke-dasharray:none;stroke-opacity:1"
                           d="m 7.072,-365.848 548.773,0" /></g></g></g></g></g></g></g><g
             id="g4294"><path
               inkscape:connector-curvature="0"
               id="path4296"
               style="fill:#000000;fill-opacity:1;fill-rule:evenodd;stroke:none"
               d="m 515.82,16.055 23.817,6.097 -23.817,6.098 0,-12.195" /><g
               transform="matrix(0.976553,0,0,1,0,388)"
               id="g4298"><path
                 inkscape:connector-curvature="0"
                 id="path4300"
                 style="fill:none;stroke:#000000;stroke-width:1.524369;stroke-linecap:butt;stroke-linejoin:miter;stroke-miterlimit:10;stroke-dasharray:none;stroke-opacity:1"
                 d="m 528.205,-371.945 24.388,6.097 -24.388,6.098 0,-12.195 z" /></g></g></g></g></g><text
       id="text4302"
       style="font-variant:normal;font-weight:normal;font-size:19.06039619px;font-family:'DejaVu Sans';-inkscape-font-specification:DejaVuSans;writing-mode:lr-tb;fill:#000000;fill-opacity:1;fill-rule:nonzero;stroke:none"
       transform="scale(0.98820705,-1.0119337)"
       x="264.61172"
       y="-255.95827"><tspan
         id="tspan4304"
         y="-255.95827"
         x="264.61172">R</tspan><tspan
         id="tspan4306"
         y="-52.575813"
         x="237.49396">p</tspan></text>
<text
       id="text4308"
       style="font-variant:normal;font-weight:normal;font-size:12.70687771px;font-family:'DejaVu Sans';-inkscape-font-specification:DejaVuSans;writing-mode:lr-tb;fill:#000000;fill-opacity:1;fill-rule:nonzero;stroke:none"
       transform="scale(0.98820703,-1.0119337)"
       x="247.79323"
       y="-44.708031"><tspan
         id="tspan4310"
         y="-44.708031"
         x="247.79323">6</tspan></text>
<text
       id="text4312"
       style="font-variant:normal;font-weight:normal;font-size:19.06039619px;font-family:'DejaVu Sans';-inkscape-font-specification:DejaVuSans;writing-mode:lr-tb;fill:#000000;fill-opacity:1;fill-rule:nonzero;stroke:none"
       transform="scale(0.98820705,-1.0119337)"
       x="287.20959"
       y="-115.84956"><tspan
         id="tspan4314"
         y="-115.84956"
         x="287.20959">p</tspan></text>
<text
       id="text4316"
       style="font-variant:normal;font-weight:normal;font-size:12.70687771px;font-family:'DejaVu Sans';-inkscape-font-specification:DejaVuSans;writing-mode:lr-tb;fill:#000000;fill-opacity:1;fill-rule:nonzero;stroke:none"
       transform="scale(0.98820703,-1.0119337)"
       x="297.04254"
       y="-107.52637"><tspan
         id="tspan4318"
         y="-107.52637"
         x="297.04254">4</tspan></text>
<text
       id="text4320"
       style="font-variant:normal;font-weight:normal;font-size:19.06039619px;font-family:'DejaVu Sans';-inkscape-font-specification:DejaVuSans;writing-mode:lr-tb;fill:#000000;fill-opacity:1;fill-rule:nonzero;stroke:none"
       transform="scale(0.98820705,-1.0119337)"
       x="142.58099"
       y="-215.28242"><tspan
         id="tspan4322"
         y="-215.28242"
         x="142.58099">p</tspan></text>
<text
       id="text4324"
       style="font-variant:normal;font-weight:normal;font-size:12.70687771px;font-family:'DejaVu Sans';-inkscape-font-specification:DejaVuSans;writing-mode:lr-tb;fill:#000000;fill-opacity:1;fill-rule:nonzero;stroke:none"
       transform="scale(0.98820703,-1.0119337)"
       x="153.81288"
       y="-208.77916"><tspan
         id="tspan4326"
         y="-208.77916"
         x="153.81288">3</tspan></text>
<text
       id="text4328"
       style="font-variant:normal;font-weight:normal;font-size:19.06039619px;font-family:'DejaVu Sans';-inkscape-font-specification:DejaVuSans;writing-mode:lr-tb;fill:#000000;fill-opacity:1;fill-rule:nonzero;stroke:none"
       transform="scale(0.98820705,-1.0119337)"
       x="88.345467"
       y="-296.63571"><tspan
         id="tspan4330"
         y="-296.63571"
         x="88.345467">p</tspan></text>
<text
       id="text4332"
       style="font-variant:normal;font-weight:normal;font-size:12.70687771px;font-family:'DejaVu Sans';-inkscape-font-specification:DejaVuSans;writing-mode:lr-tb;fill:#000000;fill-opacity:1;fill-rule:nonzero;stroke:none"
       transform="scale(0.98820703,-1.0119337)"
       x="99.111031"
       y="-290.58786"><tspan
         id="tspan4334"
         y="-290.58786"
         x="99.111031">1</tspan></text>
<text
       id="text4336"
       style="font-variant:normal;font-weight:normal;font-size:19.06039619px;font-family:'DejaVu Sans';-inkscape-font-specification:DejaVuSans;writing-mode:lr-tb;fill:#000000;fill-opacity:1;fill-rule:nonzero;stroke:none"
       transform="scale(0.98820705,-1.0119337)"
       x="83.827164"
       y="-93.251686"><tspan
         id="tspan4338"
         y="-93.251686"
         x="83.827164">p</tspan></text>
<text
       id="text4340"
       style="font-variant:normal;font-weight:normal;font-size:12.70687771px;font-family:'DejaVu Sans';-inkscape-font-specification:DejaVuSans;writing-mode:lr-tb;fill:#000000;fill-opacity:1;fill-rule:nonzero;stroke:none"
       transform="scale(0.98820703,-1.0119337)"
       x="95.525368"
       y="-86.29464"><tspan
         id="tspan4342"
         y="-86.29464"
         x="95.525368">5</tspan></text>
<text
       id="text4344"
       style="font-variant:normal;font-weight:normal;font-size:19.06039619px;font-family:'DejaVu Sans';-inkscape-font-specification:DejaVuSans;writing-mode:lr-tb;fill:#000000;fill-opacity:1;fill-rule:nonzero;stroke:none"
       transform="scale(0.98820705,-1.0119337)"
       x="242.01385"
       y="-152.00711"><tspan
         id="tspan4346"
         y="-152.00711"
         x="242.01385">p</tspan></text>
<text
       id="text4348"
       style="font-variant:normal;font-weight:normal;font-size:12.70687771px;font-family:'DejaVu Sans';-inkscape-font-specification:DejaVuSans;writing-mode:lr-tb;fill:#000000;fill-opacity:1;fill-rule:nonzero;stroke:none"
       transform="scale(0.98820703,-1.0119337)"
       x="252.77942"
       y="-143.68391"><tspan
         id="tspan4350"
         y="-143.68391"
         x="252.77942">2</tspan></text>
<text
       id="text4352"
       style="font-variant:normal;font-weight:normal;font-size:27.16417503px;font-family:'DejaVu Sans';-inkscape-font-specification:DejaVuSans;writing-mode:lr-tb;fill:#000000;fill-opacity:1;fill-rule:nonzero;stroke:none"
       transform="scale(0.98820704,-1.0119337)"
       x="346.3049"
       y="-187.48016"><tspan
         id="tspan4354"
         y="-187.48016"
         x="346.3049">p (x)</tspan></text>
<text
       id="text4356"
       style="font-variant:normal;font-weight:normal;font-size:18.109375px;font-family:'DejaVu Sans';-inkscape-font-specification:DejaVuSans;writing-mode:lr-tb;fill:#000000;fill-opacity:1;fill-rule:nonzero;stroke:none"
       transform="scale(0.98820703,-1.0119337)"
       x="361.64764"
       y="-177.56296"><tspan
         id="tspan4358"
         y="-177.56296"
         x="361.64764">t</tspan></text>
<text
       id="text4366"
       style="font-variant:normal;font-weight:normal;font-size:12.70687771px;font-family:'DejaVu Sans';-inkscape-font-specification:DejaVuSans;writing-mode:lr-tb;fill:#000000;fill-opacity:1;fill-rule:nonzero;stroke:none"
       transform="scale(0.98820703,-1.0119337)"
       x="425.23615"
       y="-329.93304"><tspan
         id="tspan4368"
         y="-329.93304"
         x="425.23615" /></text>
<text
       id="text4370"
       style="font-variant:normal;font-weight:normal;font-size:19.06039619px;font-family:'DejaVu Sans';-inkscape-font-specification:DejaVuSans;writing-mode:lr-tb;fill:#000000;fill-opacity:1;fill-rule:nonzero;stroke:none"
       transform="scale(0.98820705,-1.0119337)"
       x="436.27838"
       y="-332.79166"><tspan
         id="tspan4372"
         sodipodi:role="line"
         y="-332.79166"
         x="436.27838" /></text>
<text
       id="text4374"
       style="font-variant:normal;font-weight:normal;font-size:12.70687771px;font-family:'DejaVu Sans';-inkscape-font-specification:DejaVuSans;writing-mode:lr-tb;fill:#000000;fill-opacity:1;fill-rule:nonzero;stroke:none"
       transform="scale(0.98820703,-1.0119337)"
       x="455.23392"
       y="-326.29001"><tspan
         id="tspan4376"
         y="-326.29001"
         x="455.23392" /></text>
<text
       id="text4378"
       style="font-variant:normal;font-weight:normal;font-size:19.06039619px;font-family:'DejaVu Sans';-inkscape-font-specification:DejaVuSans;writing-mode:lr-tb;fill:#000000;fill-opacity:1;fill-rule:nonzero;stroke:none"
       transform="scale(0.98820705,-1.0119337)"
       x="458.57175"
       y="-332.79166"><tspan
         id="tspan4382"
         y="-328.27179"
         x="11.512054">C</tspan></text>
<text
       id="text4384"
       style="font-variant:normal;font-weight:normal;font-size:12.70687771px;font-family:'DejaVu Sans';-inkscape-font-specification:DejaVuSans;writing-mode:lr-tb;fill:#000000;fill-opacity:1;fill-rule:nonzero;stroke:none"
       transform="scale(0.98820703,-1.0119337)"
       x="24.864487"
       y="-325.41315"><tspan
         id="tspan4386"
         y="-325.41315"
         x="24.864487">2</tspan></text>
<text
       id="text4388"
       style="font-variant:normal;font-weight:normal;font-size:19.06039619px;font-family:'DejaVu Sans';-inkscape-font-specification:DejaVuSans;writing-mode:lr-tb;fill:#000000;fill-opacity:1;fill-rule:nonzero;stroke:none"
       transform="scale(0.98820705,-1.0119337)"
       x="495.11191"
       y="-2.8601992"><tspan
         id="tspan4390"
         y="-2.8601992"
         x="495.11191">C</tspan></text>
<text
       id="text4392"
       style="font-variant:normal;font-weight:normal;font-size:12.70687771px;font-family:'DejaVu Sans';-inkscape-font-specification:DejaVuSans;writing-mode:lr-tb;fill:#000000;fill-opacity:1;fill-rule:nonzero;stroke:none"
       transform="scale(0.98820703,-1.0119337)"
       x="508.46436"
       y="8.6113942e-006"><tspan
         id="tspan4394"
         y="8.6113942e-006"
         x="508.46436">1</tspan></text>
<text
       xml:space="preserve"
       style="font-style:normal;font-weight:normal;font-size:17.55276299px;line-height:125%;font-family:sans-serif;letter-spacing:0px;word-spacing:0px;baseline-shift:baseline;fill:#000000;fill-opacity:1;stroke:none;stroke-width:1px;stroke-linecap:butt;stroke-linejoin:miter;stroke-opacity:1"
       x="423.52533"
       y="-323.38409"
       id="text4730"
       sodipodi:linespacing="125%"
       transform="scale(1,-1)"><tspan
         sodipodi:role="line"
         id="tspan4732"
         x="423.52533"
         y="-323.38409"
         style="font-size:29.25460434px">S (p (x))</tspan></text>
<text
       xml:space="preserve"
       style="font-style:normal;font-weight:normal;font-size:46.80736542px;line-height:125%;font-family:sans-serif;letter-spacing:0px;word-spacing:0px;fill:#000000;fill-opacity:1;stroke:none;stroke-width:1px;stroke-linecap:butt;stroke-linejoin:miter;stroke-opacity:1"
       x="441.72467"
       y="-311.9873"
       id="text4742"
       sodipodi:linespacing="125%"
       transform="scale(1,-1)"><tspan
         sodipodi:role="line"
         id="tspan4744"
         x="441.72467"
         y="-311.9873"
         style="font-size:20.47822189px">R</tspan></text>
<text
       xml:space="preserve"
       style="font-style:normal;font-weight:normal;font-size:46.80736542px;line-height:125%;font-family:sans-serif;letter-spacing:0px;word-spacing:0px;fill:#000000;fill-opacity:1;stroke:none;stroke-width:1px;stroke-linecap:butt;stroke-linejoin:miter;stroke-opacity:1"
       x="482.76691"
       y="-312.26227"
       id="text4746"
       sodipodi:linespacing="125%"
       transform="scale(1,-1)"><tspan
         sodipodi:role="line"
         id="tspan4748"
         x="482.76691"
         y="-312.26227"
         style="font-size:20.47822189px">t</tspan></text>
</g></svg>